<svg width="64" height="66" viewBox="0 0 64 66" fill="none" xmlns="http://www.w3.org/2000/svg">
<path d="M26 4.4641C29.7128 2.32051 34.2872 2.32051 38 4.4641L53.7128 13.5359C57.4256 15.6795 59.7128 19.641 59.7128 23.9282V42.0718C59.7128 46.359 57.4256 50.3205 53.7128 52.4641L38 61.5359C34.2872 63.6795 29.7128 63.6795 26 61.5359L10.2872 52.4641C6.57438 50.3205 4.28719 46.359 4.28719 42.0718V23.9282C4.28719 19.641 6.57437 15.6795 10.2872 13.5359L26 4.4641Z" fill="#0B0E11"/>
<path d="M38.5 3.59808C34.4778 1.27585 29.5222 1.27585 25.5 3.59808L9.78719 12.6699C5.76497 14.9921 3.28719 19.2838 3.28719 23.9282V42.0718C3.28719 46.7162 5.76497 51.0079 9.78719 53.3301L25.5 62.4019C29.5222 64.7242 34.4778 64.7242 38.5 62.4019L54.2128 53.3301C58.235 51.0079 60.7128 46.7162 60.7128 42.0718V23.9282C60.7128 19.2838 58.235 14.9921 54.2128 12.6699L38.5 3.59808Z" stroke="url(#paint0_angular_25_188)" stroke-opacity="0.8" stroke-width="2"/>
<path d="M37.68 37.716C37.88 37.716 38.048 37.788 38.184 37.932L39.612 39.456C38.908 40.352 38.032 41.032 36.984 41.496C35.944 41.96 34.704 42.192 33.264 42.192C31.96 42.192 30.788 41.972 29.748 41.532C28.708 41.084 27.824 40.464 27.096 39.672C26.368 38.88 25.808 37.94 25.416 36.852C25.024 35.764 24.828 34.576 24.828 33.288C24.828 32.424 24.92 31.604 25.104 30.828C25.296 30.044 25.572 29.324 25.932 28.668C26.292 28.012 26.724 27.42 27.228 26.892C27.74 26.364 28.316 25.916 28.956 25.548C29.596 25.172 30.292 24.888 31.044 24.696C31.804 24.496 32.612 24.396 33.468 24.396C34.108 24.396 34.712 24.452 35.28 24.564C35.856 24.676 36.392 24.832 36.888 25.032C37.384 25.232 37.84 25.476 38.256 25.764C38.68 26.044 39.06 26.352 39.396 26.688L38.184 28.344C38.112 28.448 38.02 28.54 37.908 28.62C37.796 28.7 37.644 28.74 37.452 28.74C37.26 28.74 37.064 28.672 36.864 28.536C36.672 28.4 36.432 28.248 36.144 28.08C35.864 27.912 35.508 27.76 35.076 27.624C34.652 27.488 34.112 27.42 33.456 27.42C32.728 27.42 32.06 27.552 31.452 27.816C30.844 28.08 30.32 28.464 29.88 28.968C29.448 29.464 29.112 30.076 28.872 30.804C28.632 31.532 28.512 32.36 28.512 33.288C28.512 34.224 28.64 35.06 28.896 35.796C29.16 36.524 29.516 37.14 29.964 37.644C30.42 38.148 30.948 38.532 31.548 38.796C32.156 39.052 32.804 39.18 33.492 39.18C33.9 39.18 34.268 39.16 34.596 39.12C34.932 39.08 35.24 39.012 35.52 38.916C35.808 38.82 36.076 38.696 36.324 38.544C36.58 38.392 36.836 38.2 37.092 37.968C37.18 37.896 37.272 37.836 37.368 37.788C37.464 37.74 37.568 37.716 37.68 37.716Z" fill="#4705DA"/>
<defs>
<radialGradient id="paint0_angular_25_188" cx="0" cy="0" r="1" gradientUnits="userSpaceOnUse" gradientTransform="translate(32 33) rotate(90) scale(32)">
<stop offset="0.163092" stop-color="#F449F4"/>
<stop offset="0.491755" stop-color="#0019C0"/>
<stop offset="0.839524" stop-color="#7976E8"/>
</radialGradient>
</defs>
</svg>
