<svg width="64" height="66" viewBox="0 0 64 66" fill="none" xmlns="http://www.w3.org/2000/svg">
<path d="M26 4.4641C29.7128 2.32051 34.2872 2.32051 38 4.4641L53.7128 13.5359C57.4256 15.6795 59.7128 19.641 59.7128 23.9282V42.0718C59.7128 46.359 57.4256 50.3205 53.7128 52.4641L38 61.5359C34.2872 63.6795 29.7128 63.6795 26 61.5359L10.2872 52.4641C6.57438 50.3205 4.28719 46.359 4.28719 42.0718V23.9282C4.28719 19.641 6.57437 15.6795 10.2872 13.5359L26 4.4641Z" fill="#0B0E11"/>
<path d="M38.5 3.59808C34.4778 1.27585 29.5222 1.27585 25.5 3.59808L9.78719 12.6699C5.76497 14.9921 3.28719 19.2838 3.28719 23.9282V42.0718C3.28719 46.7162 5.76497 51.0079 9.78719 53.3301L25.5 62.4019C29.5222 64.7242 34.4778 64.7242 38.5 62.4019L54.2128 53.3301C58.235 51.0079 60.7128 46.7162 60.7128 42.0718V23.9282C60.7128 19.2838 58.235 14.9921 54.2128 12.6699L38.5 3.59808Z" stroke="url(#paint0_angular_25_186)" stroke-opacity="0.8" stroke-width="2"/>
<path d="M26.448 42H22.824V24.588H26.448V42ZM42.4136 27.492H37.3256V42H33.7136V27.492H28.6256V24.588H42.4136V27.492Z" fill="#F614F9"/>
<defs>
<radialGradient id="paint0_angular_25_186" cx="0" cy="0" r="1" gradientUnits="userSpaceOnUse" gradientTransform="translate(32 33) rotate(90) scale(32)">
<stop offset="0.163092" stop-color="#F449F4"/>
<stop offset="0.491755" stop-color="#0019C0"/>
<stop offset="0.839524" stop-color="#7976E8"/>
</radialGradient>
</defs>
</svg>
