<svg width="494" height="133" viewBox="0 0 494 133" fill="none" xmlns="http://www.w3.org/2000/svg">
<g clip-path="url(#clip0_247_1557)">
<path d="M55.2668 0.59996C54.7335 0.999954 54.3335 3.93329 54.3335 6.99995C54.3335 13.5333 53.5335 14.3333 44.2002 17.6666L37.2668 20.0666L32.2002 15.9333L27.1335 11.6666L19.4002 19.2666C12.2002 26.4666 11.8002 27 13.6668 29.6666C20.3335 38.7333 20.2002 37.5333 16.7335 46.2L13.6668 54.2L7.00018 54.6L0.333511 55L-0.0664893 65.8C-0.466489 77.8 -0.0664897 78.2 9.66684 78.3333C13.2668 78.3333 13.9335 79.1333 16.7335 86.2C18.3335 90.4666 19.6668 94.3333 19.6668 94.7333C19.6668 95.2666 17.8002 97.6666 15.4002 100.333L11.2668 105.133L19.0002 113L26.8668 120.867L32.4668 116.333L38.2002 111.667L43.9335 114.467C47.1335 115.933 50.6002 117.667 51.6668 118.2C52.8668 118.867 53.9335 121.933 54.3335 125.8L55.0002 132.333L65.8002 132.733C77.8002 133.133 78.3335 132.733 78.3335 123C78.3335 119.4 79.1335 118.6 86.6002 115.267L94.8668 111.667L99.0002 115.667C101.267 117.8 104.067 119.667 105.134 119.667C107.4 119.667 119.667 107.667 119.667 105.4C119.667 104.467 117.934 101.667 115.667 99.2666L111.667 94.7333L115.4 86.4666C118.6 79.1333 119.4 78.3333 123 78.3333C132.734 78.3333 133.133 77.8 132.734 65.8L132.334 55L125.667 54.6L118.867 54.2L115.267 46.0666L111.8 38.0666L115.667 33.1333C117.934 30.6 119.667 27.8 119.667 27C119.667 26.2 116.467 22.3333 112.467 18.4666L105.4 11.4L100.734 15.5333C98.0668 17.8 95.4002 19.6666 94.6002 19.6666C93.8002 19.6666 89.9335 18.3333 85.8002 16.8666C79.0002 14.2 78.3335 13.6666 78.3335 9.79996C78.3335 0.0666199 77.8002 -0.333374 66.4668 -0.333374C60.7335 -0.333374 55.6668 0.0666199 55.2668 0.59996ZM73.9335 4.99995C75.2668 16.0666 75.6668 16.7333 80.7335 18.4666C83.4002 19.2666 86.8668 20.8666 88.3335 21.8C92.2002 24.4666 95.4002 24.0666 99.9335 20.3333C102.067 18.4666 104.334 17 104.867 17C105.4 17 108.067 19.4 110.867 22.2L115.934 27.4L111.8 32.6L107.534 37.8L110.867 45.1333C112.6 49.1333 114.334 53.2666 114.734 54.4666C115.267 55.9333 117.8 57 122.2 57.6666L129 58.6V66.3333V73.9333L122.2 75.1333C115.534 76.3333 115.267 76.6 113.667 82.0666C112.734 85.1333 110.867 89.2666 109.667 91.1333C107.534 94.4666 107.534 94.7333 111.667 99.9333L115.934 105.267L110.867 110.467C108.067 113.267 105.4 115.667 104.734 115.667C104.2 115.667 101.667 113.8 99.1335 111.667L94.4668 107.533L87.8002 111C84.0668 112.867 80.2002 114.333 79.0002 114.333C76.6002 114.333 74.3335 119.533 74.3335 125.133C74.3335 129 74.3335 129 66.4668 129C57.9335 129 57.0002 128.067 57.0002 119.4C57.0002 116.467 56.0668 115.533 52.0668 114.2C49.2668 113.4 44.8668 111.533 42.2002 110.2L37.4002 107.8L32.0668 112.333L26.7335 116.867L21.2668 111.267L15.6668 105.533L19.9335 100.467C23.8002 95.6666 24.0668 95.1333 22.4668 91.1333C21.4002 88.8666 19.8002 84.4666 18.7335 81.4C16.7335 75.9333 16.4668 75.8 9.53351 74.8666L2.33351 74.0666V66.3333V58.4666L9.53351 57.6666C16.6002 56.7333 16.8668 56.6 18.7335 51.1333C19.8002 48.2 21.4002 43.8 22.4668 41.5333C24.0668 37.5333 23.8002 37 19.9335 32.2L15.6668 27.1333L21.2668 21.4L26.7335 15.8L31.8002 19.6666C34.4668 21.9333 37.1335 23.6666 37.8002 23.6666C38.3335 23.6666 42.8668 22.0666 47.9335 19.9333C55.9335 16.7333 57.0002 15.9333 57.0002 12.7333C57.0002 10.7333 57.5335 7.66663 58.3335 5.66663C59.5335 2.46663 60.2002 2.19995 66.6002 2.59996C71.6668 2.86662 73.6668 3.53329 73.9335 4.99995Z" fill="#FAFAFA"/>
<path d="M53.5332 30.0667C43.7999 33.5334 36.4666 39.8 32.0666 48.6C22.3332 68.6 29.9332 91 49.7999 101C58.5999 105.4 72.3332 105.4 81.9332 101.133C95.5332 95.1334 104.2 81.5334 104.2 66.3334C104.2 39.6667 78.7332 21.4 53.5332 30.0667ZM80.3332 34.2C92.3332 39.8 101 53.2667 101 66.3334C100.867 90.0667 76.9999 106.733 54.1999 99C30.9999 91 23.6666 60.0667 40.7332 41.8C49.6666 32.3334 68.4666 28.7334 80.3332 34.2Z" fill="#FAFAFA"/>
<path d="M67.134 49.1333C66.2007 51.6666 62.334 79 62.334 82.6C62.334 84.7333 62.734 85.1333 63.8007 84.0666C65.934 81.9333 70.734 50.2 69.134 48.6C68.2007 47.6666 67.534 47.8 67.134 49.1333Z" fill="#FAFAFA"/>
<path d="M50.4673 59.1333C45.934 62.4666 42.334 65.6666 42.334 66.2C42.334 67.2666 54.8673 76.7333 57.6673 77.9333C61.8007 79.4 59.4007 75.6666 53.6673 71.5333C50.334 69.1333 47.6673 66.7333 47.6673 66.2C47.6673 65.6666 50.334 63.2666 53.6673 60.8666C57.0007 58.4666 59.6673 55.8 59.6673 54.7333C59.6673 52.2 59.534 52.3333 50.4673 59.1333Z" fill="#FAFAFA"/>
<path d="M71.6675 54.5999C71.8008 55.5333 74.4675 58.3333 77.6675 60.7333C81.0008 63.1333 83.6675 65.6666 83.6675 66.3333C83.6675 66.9999 81.0008 69.3999 77.6675 71.7999C71.8008 75.9333 70.2008 78.3333 73.0008 78.3333C75.0008 78.3333 89.0008 67.6666 89.0008 66.1999C89.0008 64.8666 74.2008 52.9999 72.7342 52.9999C72.0675 52.9999 71.6675 53.7999 71.6675 54.5999Z" fill="#FAFAFA"/>
<path d="M196.201 38.8667C194.601 43.0001 196.201 45.6667 200.334 45.6667C203.934 45.6667 204.334 45.2667 204.334 41.6667C204.334 38.3334 203.801 37.6667 200.601 37.2667C198.334 37.0001 196.734 37.5334 196.201 38.8667Z" fill="#FAFAFA"/>
<path d="M290.201 37.5332C289.934 37.7999 289.801 48.9999 290.067 62.1999L290.467 86.3333H293.801C295.534 86.3333 297.401 85.3999 297.801 84.3333C298.467 82.5999 299.001 82.5999 302.334 84.3333C304.467 85.3999 307.534 86.3333 309.267 86.3333C323.934 86.3333 327.534 56.7332 313.534 50.8666C309.134 48.9999 308.334 48.9999 303.934 51.2666L299.001 53.6666L299.401 45.3999L299.934 36.9999H295.401C292.867 36.9999 290.467 37.2666 290.201 37.5332ZM311.401 60.9999C313.267 64.7333 312.734 73.3999 310.334 76.3333C307.934 79.1333 302.734 78.7333 301.001 75.7999C298.867 71.6666 299.401 61.5333 301.801 58.9999C304.734 56.0666 309.267 56.9999 311.401 60.9999Z" fill="#FAFAFA"/>
<path d="M161.667 41.2666C159.267 47.5332 146.334 85.2666 146.334 85.7999C146.334 86.0666 148.601 86.3333 151.401 86.3333C156.334 86.3333 156.734 86.0666 158.201 80.9999L159.801 75.6666H168.201H176.601L178.201 80.9999C179.667 86.0666 180.067 86.3333 185.001 86.3333H190.201L182.201 63.5333C177.934 50.9999 174.334 40.4666 174.334 40.1999C174.334 38.7332 162.201 39.7999 161.667 41.2666ZM168.734 67.3999C165.801 67.6666 163.134 67.5333 162.867 67.2666C162.334 66.8666 165.401 54.9999 167.267 50.3333C167.667 49.1333 169.267 52.1999 171.001 57.6666L174.067 66.9999L168.734 67.3999Z" fill="#FAFAFA"/>
<path d="M215.666 62.9999V86.3333H229.666H243.666V82.3333V78.3333H234.333H224.999V58.9999V39.6666H220.333H215.666V62.9999Z" fill="#FAFAFA"/>
<path d="M259.267 50.3333C253.267 51.4 252.467 52.0667 253.534 55.4C254.334 57.5333 255.534 57.9333 262.067 57.8C269.001 57.6667 269.667 57.9333 270.067 60.6C270.467 63.4 269.934 63.6667 264.334 63.6667C257.534 63.6667 251.134 66.3333 249.801 69.6667C245.267 81.5333 258.201 91.4 268.067 83.6667L271.534 81L272.334 83.6667C272.867 85.4 274.334 86.3333 276.467 86.3333C279.667 86.3333 279.667 86.3333 279.667 71.9333C279.667 55.5333 278.467 52.6 270.601 50.3333C267.934 49.6667 265.401 49.1333 265.001 49.1333C264.601 49.2667 262.067 49.8 259.267 50.3333ZM270.334 72.3333C270.334 76.6 264.467 80.7333 261.134 78.7333C255.667 75.2667 259.134 69 266.601 69C269.667 69 270.334 69.5333 270.334 72.3333Z" fill="#FAFAFA"/>
<path d="M195.666 68.3333V86.3333H200.333H204.999V68.3333V50.3333H200.333H195.666V68.3333Z" fill="#FAFAFA"/>
<path d="M386.066 105.133C384.066 105.933 382.066 107.8 381.533 109.4C380.066 113.933 380.466 122.067 382.333 124.333C386.999 129.933 395.799 123.4 393.266 116.067C392.333 113 391.266 112.333 387.799 112.333C382.199 112.333 382.733 108.867 388.733 107C390.999 106.333 392.999 105.267 392.999 104.733C392.999 103.4 390.599 103.533 386.066 105.133ZM390.333 115.667C392.466 119.667 390.733 123.667 386.999 123.667C382.866 123.667 380.999 117.267 384.466 114.733C387.666 112.333 388.599 112.6 390.333 115.667Z" fill="#FAFAFA"/>
<path d="M149 115.667C149 121.933 149.533 126.333 150.333 126.333C151.133 126.333 151.667 122.333 151.667 117V107.667H156.333H161V117C161 122.333 161.533 126.333 162.333 126.333C163.133 126.333 163.667 121.933 163.667 115.667V105H156.333H149V115.667Z" fill="#FAFAFA"/>
<path d="M169 121.933C169 129.133 169.533 133 170.467 133C171.4 133 171.8 131.4 171.4 129.133C170.867 125.667 171.133 125.4 174.867 125.533C177.933 125.667 179.267 124.867 180.867 121.933C182.733 118.733 182.733 117.933 181 114.6C179.267 111.667 177.933 111 173.933 111L169 110.867V121.933ZM179 115.667C180.333 120.067 178.467 123.667 174.867 123.667C172.067 123.667 171.667 123.133 171.667 118.333C171.667 113.533 172.067 113 174.867 113C177 113 178.467 113.933 179 115.667Z" fill="#FAFAFA"/>
<path d="M187.133 112.467C182.866 116.6 185.666 126.333 191.133 126.333C195.666 126.333 198.333 123.667 198.333 119C198.333 114.067 195.533 110.333 191.666 110.333C190.333 110.333 188.2 111.267 187.133 112.467ZM195 118.333C195 122.467 194.6 123 191.666 123C189.133 123 188.2 122.2 187.933 119.933C187.266 115.133 188.6 112.733 191.933 113.267C194.466 113.533 195 114.467 195 118.333Z" fill="#FAFAFA"/>
<path d="M202.334 118.333C202.334 122.733 202.867 126.333 203.667 126.333C204.467 126.333 205.001 123.267 205.001 119.667C205.001 113.4 205.267 113 208.334 113C210.201 113 211.667 112.333 211.667 111.667C211.667 110.867 209.534 110.333 207.001 110.333H202.334V118.333Z" fill="#FAFAFA"/>
<path d="M214.334 121.933C214.334 128.467 214.867 133 215.667 133C216.467 133 217.001 131.267 217.001 129.133C217.001 125.8 217.401 125.4 220.334 126.067C225.001 126.867 227.667 124.2 227.667 118.333C227.667 112.2 225.801 110.467 219.401 110.733L214.334 110.867V121.933ZM224.334 118.333C224.334 122.467 223.934 123 221.001 123C218.467 123 217.534 122.2 217.267 119.933C216.601 115.133 217.934 112.733 221.267 113.267C223.801 113.533 224.334 114.467 224.334 118.333Z" fill="#FAFAFA"/>
<path d="M233 111.533C233 112.333 234.466 113 236.333 113C238.466 113 239.666 113.8 239.666 115C239.666 116.2 238.466 117 236.466 117C234.733 117 232.6 117.933 231.533 119.133C228.866 122.467 231.666 125.667 237.533 125.667L242.466 125.8L242.066 118.333C241.666 111.133 241.533 111 237.4 110.6C234.866 110.333 233 110.733 233 111.533ZM239.666 120.867C239.666 123.533 236.333 125.533 234.2 124.2C232.466 123.133 232.733 119.933 234.733 119.267C238.066 117.8 239.666 118.333 239.666 120.867Z" fill="#FAFAFA"/>
<path d="M247.933 118.6C248.066 126.6 248.066 126.733 248.866 121L249.666 115L251.933 120.6C253.266 123.8 254.733 126.333 255.399 126.333C255.933 126.333 257.399 123.8 258.599 120.6L260.866 115V120.6C260.999 123.8 261.666 126.333 262.333 126.333C263.133 126.333 263.666 122.733 263.666 118.333C263.666 108.867 260.866 107.267 258.333 115.267C255.933 122.867 254.866 123.133 252.733 116.867C249.799 107.933 247.666 108.6 247.933 118.6Z" fill="#FAFAFA"/>
<path d="M267.666 118.333C267.666 127.267 270.333 129.533 270.466 120.6L270.599 115L272.599 120.6C274.866 127.267 276.466 127.8 278.466 122.6C281.133 115.133 281.533 115 282.333 121C283.266 126.867 283.266 126.733 283.399 118.6C283.666 108.6 281.533 107.933 278.599 116.867C276.466 123.133 275.399 122.867 272.999 115.267C270.466 107.267 267.666 108.867 267.666 118.333Z" fill="#FAFAFA"/>
<path d="M287.666 118.333C287.666 128.333 289.933 128.867 295.266 119.933L298.999 113.667L299.799 120.333L300.599 127L300.733 118.6C300.866 114.067 300.466 110.333 299.666 110.333C298.999 110.333 296.733 113.133 294.733 116.6L290.999 123L290.599 116.6C290.066 107.533 287.666 108.867 287.666 118.333Z" fill="#FAFAFA"/>
<path d="M306.334 121.933C306.334 128.467 306.867 133 307.667 133C308.467 133 309.001 131.267 309.001 129.133C309.001 125.933 309.401 125.4 312.067 125.933C316.201 126.733 319.667 123.267 319.667 118.333C319.667 113.133 316.467 110.333 311.001 110.6L306.334 110.733V121.933ZM316.334 118.333C316.334 122.467 315.934 123 313.001 123C310.467 123 309.534 122.2 309.267 119.933C308.601 115.133 309.934 112.733 313.267 113.267C315.801 113.533 316.334 114.467 316.334 118.333Z" fill="#FAFAFA"/>
<path d="M321.001 110.867C321.001 111.133 322.201 114.2 323.667 117.667C327.134 125.667 327.001 128.2 323.401 130.867L320.334 133L323.667 132.733C326.334 132.333 327.534 130.733 330.601 123C334.467 113 335.001 110.333 333.134 110.333C332.601 110.333 331.267 113.133 330.201 116.6L328.467 122.867L325.934 116.6C324.467 113.133 322.867 110.333 322.201 110.333C321.534 110.333 321.001 110.6 321.001 110.867Z" fill="#FAFAFA"/>
<path d="M338.468 112.2C337.535 113.267 337.001 116.467 337.268 119.267C337.535 123.267 338.335 124.467 341.135 125.533C343.135 126.2 345.801 126.2 347.135 125.667C349.268 124.733 348.868 124.467 345.001 123.8C338.335 122.6 337.668 118.333 344.201 118.333C347.935 118.333 349.001 117.8 349.001 115.933C349.001 110.733 341.668 108.2 338.468 112.2ZM346.335 115C346.335 116.2 345.135 117 343.001 117C340.868 117 339.668 116.2 339.668 115C339.668 113.8 340.868 113 343.001 113C345.135 113 346.335 113.8 346.335 115Z" fill="#FAFAFA"/>
<path d="M353 118.333C353 122.733 353.533 126.333 354.333 126.333C355.133 126.333 355.667 124.067 355.8 121.267V116.333L357.933 121.267C359 124.067 360.467 126.333 361 126.333C361.533 126.333 362.867 124.067 364.067 121.267L366.067 116.333L366.2 121.267C366.467 129.667 369 126.867 369 118.333C369 108.733 366.333 107.4 363.8 115.667C361.667 123 360.2 123.267 358.333 116.333C355.8 107.4 353 108.467 353 118.333Z" fill="#FAFAFA"/>
<path d="M395.666 111C395.666 111.267 396.866 114.6 398.333 118.333C399.799 122.067 400.999 126.067 400.999 127.133C400.999 128.333 399.799 129.533 398.333 129.933C395.266 130.733 394.733 133 397.533 133C400.199 133 401.933 130.467 405.666 120.467C409.399 110.467 409.399 110.333 407.799 110.333C407.266 110.333 405.933 113 404.999 116.467C403.133 123.133 402.066 122.867 399.666 115.267C398.866 112.6 397.533 110.333 396.866 110.333C396.199 110.333 395.666 110.6 395.666 111Z" fill="#FAFAFA"/>
<path d="M414.333 113.933C414.333 116.067 413.4 119.4 412.333 121.533C411.267 123.533 410.467 126.867 410.467 128.867C410.733 131.933 410.733 132.067 411.267 129.267C411.8 126.867 412.733 126.333 417.133 126.333C421.4 126.333 422.333 126.733 422.333 129C422.333 132.067 428.333 134.2 430.733 131.8C433 129.533 439.8 110.067 438.067 110.6C437.133 111 435.667 113.8 434.6 117C432.467 123.4 432.467 123.267 429 113.933C428.333 111.933 427.133 110.333 426.467 110.333C425.667 110.333 426.333 113.133 427.8 116.6C431 124.067 431.4 128.867 428.867 130.467C425.933 132.333 425 131.933 425 128.467C425 126.6 424.467 124.733 423.667 124.333C423 123.933 422.333 120.6 422.333 116.867C422.333 110.467 422.2 110.333 418.333 110.333C414.867 110.333 414.333 110.867 414.333 113.933ZM421 118.333C421 123.133 420.733 123.667 417.533 123.667C414.867 123.667 414.2 123.133 414.867 121.533C415.267 120.333 416.067 117.933 416.467 116.2C417.8 110.867 421 112.333 421 118.333Z" fill="#FAFAFA"/>
<path d="M442.2 111C441.8 111.667 441.667 113.133 441.8 113.933C441.933 114.867 442.067 118.067 442.2 121L442.333 126.333H451.667C460.067 126.333 461 126.6 461 129C461 130.467 461.667 131.667 462.467 131.667C463.533 131.667 463.8 129.667 463.133 125.533C462.733 122.067 462.333 117.267 462.333 114.867C462.333 112.333 461.8 110.333 461 110.333C460.333 110.333 459.667 113.267 459.667 117C459.667 123.267 459.4 123.667 456.333 123.667C453.267 123.667 453 123.267 453 117C453 113.267 452.467 110.333 451.667 110.333C451 110.333 450.333 113.267 450.333 117C450.333 123.133 450.067 123.667 447.133 123.667C444.067 123.667 443.8 123.133 443.4 116.6C443.133 112.867 442.6 110.2 442.2 111Z" fill="#FAFAFA"/>
<path d="M467.8 112.2C466.867 113.267 466.333 116.467 466.6 119.267C466.867 123.267 467.667 124.467 470.467 125.533C472.467 126.2 475.133 126.2 476.467 125.667C478.6 124.733 478.2 124.467 474.333 123.8C467.667 122.6 467 118.333 473.533 118.333C477.267 118.333 478.333 117.8 478.333 115.933C478.333 110.733 471 108.2 467.8 112.2ZM475.667 115C475.667 116.2 474.467 117 472.333 117C470.2 117 469 116.2 469 115C469 113.8 470.2 113 472.333 113C474.467 113 475.667 113.8 475.667 115Z" fill="#FAFAFA"/>
<path d="M483.8 112.2C482.867 113.267 482.333 116.467 482.6 119.267C482.867 123.267 483.667 124.467 486.467 125.533C488.467 126.2 491.133 126.2 492.467 125.667C494.6 124.733 494.2 124.467 490.333 123.8C483.667 122.6 483 118.333 489.533 118.333C493.267 118.333 494.333 117.8 494.333 115.933C494.333 110.733 487 108.2 483.8 112.2ZM491.667 115C491.667 116.2 490.467 117 488.333 117C486.2 117 485 116.2 485 115C485 113.8 486.2 113 488.333 113C490.467 113 491.667 113.8 491.667 115Z" fill="#FAFAFA"/>
</g>
<defs>
<clipPath id="clip0_247_1557">
<rect width="494" height="133" fill="white"/>
</clipPath>
</defs>
</svg>
