<svg width="269" height="76" viewBox="0 0 269 76" fill="none" xmlns="http://www.w3.org/2000/svg">
<path d="M13.6934 10.5639H18.1582L24.7324 29.3549L31.3066 10.5639H35.7715L26.5254 36.1576H22.9395L13.6934 10.5639ZM11.2852 10.5639H15.7324L16.541 28.8803V36.1576H11.2852V10.5639ZM33.7324 10.5639H38.1973V36.1576H32.9238V28.8803L33.7324 10.5639ZM53.7363 10.5639V36.1576H48.4805V10.5639H53.7363ZM61.6113 10.5639V14.6947H40.7285V10.5639H61.6113ZM77.6602 29.4604C77.6602 29.0033 77.5898 28.5932 77.4492 28.2299C77.3203 27.8549 77.0742 27.515 76.7109 27.2104C76.3477 26.894 75.8379 26.5834 75.1816 26.2787C74.5254 25.974 73.6758 25.6576 72.6328 25.3295C71.4727 24.9545 70.3711 24.5326 69.3281 24.0639C68.2969 23.5951 67.3828 23.0502 66.5859 22.4291C65.8008 21.7963 65.1797 21.0639 64.7227 20.2318C64.2773 19.3998 64.0547 18.433 64.0547 17.3315C64.0547 16.265 64.2891 15.2982 64.7578 14.4311C65.2266 13.5522 65.8828 12.8022 66.7266 12.1811C67.5703 11.5482 68.5664 11.0619 69.7148 10.7221C70.875 10.3822 72.1465 10.2123 73.5293 10.2123C75.416 10.2123 77.0625 10.5522 78.4688 11.2318C79.875 11.9115 80.9648 12.8432 81.7383 14.0268C82.5234 15.2104 82.916 16.5639 82.916 18.0873H77.6777C77.6777 17.3373 77.5195 16.6811 77.2031 16.1186C76.8984 15.5443 76.4297 15.0932 75.7969 14.765C75.1758 14.4369 74.3906 14.2729 73.4414 14.2729C72.5273 14.2729 71.7656 14.4135 71.1562 14.6947C70.5469 14.9643 70.0898 15.3334 69.7852 15.8022C69.4805 16.2592 69.3281 16.7748 69.3281 17.349C69.3281 17.7826 69.4336 18.1752 69.6445 18.5268C69.8672 18.8783 70.1953 19.2065 70.6289 19.5111C71.0625 19.8158 71.5957 20.1029 72.2285 20.3725C72.8613 20.642 73.5938 20.9057 74.4258 21.1635C75.8203 21.5854 77.0449 22.06 78.0996 22.5873C79.166 23.1147 80.0566 23.7065 80.7715 24.3627C81.4863 25.019 82.0254 25.7631 82.3887 26.5951C82.752 27.4272 82.9336 28.3705 82.9336 29.4252C82.9336 30.5385 82.7168 31.5346 82.2832 32.4135C81.8496 33.2924 81.2227 34.0365 80.4023 34.6459C79.582 35.2553 78.6035 35.7182 77.4668 36.0346C76.3301 36.351 75.0586 36.5092 73.6523 36.5092C72.3867 36.5092 71.1387 36.3451 69.9082 36.017C68.6777 35.6772 67.5586 35.1674 66.5508 34.4877C65.5547 33.808 64.7578 32.9408 64.1602 31.8861C63.5625 30.8315 63.2637 29.5834 63.2637 28.142H68.5547C68.5547 28.9389 68.6777 29.6127 68.9238 30.1635C69.1699 30.7143 69.5156 31.1596 69.9609 31.4994C70.418 31.8393 70.957 32.0854 71.5781 32.2377C72.2109 32.39 72.9023 32.4662 73.6523 32.4662C74.5664 32.4662 75.3164 32.3373 75.9023 32.0795C76.5 31.8217 76.9395 31.4643 77.2207 31.0072C77.5137 30.5502 77.6602 30.0346 77.6602 29.4604Z" fill="#FAFAFA"/>
<path d="M11.0859 51.7826H13.0703L15.9922 60.1342L18.9141 51.7826H20.8984L16.7891 63.1576H15.1953L11.0859 51.7826ZM10.0156 51.7826H11.9922L12.3516 59.9232V63.1576H10.0156V51.7826ZM19.9922 51.7826H21.9766V63.1576H19.6328V59.9232L19.9922 51.7826ZM23.5312 59.017V58.8529C23.5312 58.2331 23.6198 57.6628 23.7969 57.142C23.974 56.616 24.2318 56.1602 24.5703 55.7748C24.9089 55.3894 25.3255 55.0899 25.8203 54.8764C26.3151 54.6576 26.8828 54.5482 27.5234 54.5482C28.1641 54.5482 28.7344 54.6576 29.2344 54.8764C29.7344 55.0899 30.1536 55.3894 30.4922 55.7748C30.8359 56.1602 31.0964 56.616 31.2734 57.142C31.4505 57.6628 31.5391 58.2331 31.5391 58.8529V59.017C31.5391 59.6316 31.4505 60.2019 31.2734 60.7279C31.0964 61.2488 30.8359 61.7045 30.4922 62.0951C30.1536 62.4805 29.737 62.78 29.2422 62.9936C28.7474 63.2071 28.1797 63.3139 27.5391 63.3139C26.8984 63.3139 26.3281 63.2071 25.8281 62.9936C25.3333 62.78 24.9141 62.4805 24.5703 62.0951C24.2318 61.7045 23.974 61.2488 23.7969 60.7279C23.6198 60.2019 23.5312 59.6316 23.5312 59.017ZM25.7812 58.8529V59.017C25.7812 59.3712 25.8125 59.7019 25.875 60.0092C25.9375 60.3165 26.0365 60.5873 26.1719 60.8217C26.3125 61.0509 26.4948 61.2305 26.7188 61.3607C26.9427 61.491 27.2161 61.5561 27.5391 61.5561C27.8516 61.5561 28.1198 61.491 28.3438 61.3607C28.5677 61.2305 28.7474 61.0509 28.8828 60.8217C29.0182 60.5873 29.1172 60.3165 29.1797 60.0092C29.2474 59.7019 29.2812 59.3712 29.2812 59.017V58.8529C29.2812 58.5092 29.2474 58.1863 29.1797 57.8842C29.1172 57.5769 29.0156 57.3061 28.875 57.0717C28.7396 56.8321 28.5599 56.6446 28.3359 56.5092C28.112 56.3738 27.8411 56.3061 27.5234 56.3061C27.2057 56.3061 26.9349 56.3738 26.7109 56.5092C26.4922 56.6446 26.3125 56.8321 26.1719 57.0717C26.0365 57.3061 25.9375 57.5769 25.875 57.8842C25.8125 58.1863 25.7812 58.5092 25.7812 58.8529ZM37.9141 61.3139V51.1576H40.1797V63.1576H38.1406L37.9141 61.3139ZM32.5703 59.0326V58.8686C32.5703 58.2227 32.6432 57.6368 32.7891 57.1107C32.9349 56.5795 33.1484 56.1238 33.4297 55.7436C33.7109 55.3634 34.0573 55.0691 34.4688 54.8607C34.8802 54.6524 35.349 54.5482 35.875 54.5482C36.3698 54.5482 36.8021 54.6524 37.1719 54.8607C37.5469 55.0691 37.8646 55.366 38.125 55.7514C38.3906 56.1316 38.6042 56.5821 38.7656 57.1029C38.9271 57.6186 39.0443 58.1837 39.1172 58.7982V59.1576C39.0443 59.7462 38.9271 60.293 38.7656 60.7982C38.6042 61.3035 38.3906 61.7462 38.125 62.1264C37.8646 62.5014 37.5469 62.793 37.1719 63.0014C36.7969 63.2097 36.3594 63.3139 35.8594 63.3139C35.3333 63.3139 34.8646 63.2071 34.4531 62.9936C34.0469 62.78 33.7031 62.4805 33.4219 62.0951C33.1458 61.7097 32.9349 61.2566 32.7891 60.7357C32.6432 60.2149 32.5703 59.6472 32.5703 59.0326ZM34.8203 58.8686V59.0326C34.8203 59.3816 34.8464 59.7071 34.8984 60.0092C34.9557 60.3113 35.0469 60.5795 35.1719 60.8139C35.3021 61.043 35.4688 61.2227 35.6719 61.3529C35.8802 61.4779 36.1328 61.5404 36.4297 61.5404C36.8151 61.5404 37.1328 61.4545 37.3828 61.2826C37.6328 61.1055 37.8229 60.8634 37.9531 60.5561C38.0885 60.2488 38.1667 59.8946 38.1875 59.4936V58.4701C38.1719 58.142 38.125 57.8477 38.0469 57.5873C37.974 57.3217 37.8646 57.0951 37.7188 56.9076C37.5781 56.7201 37.401 56.5743 37.1875 56.4701C36.9792 56.366 36.7318 56.3139 36.4453 56.3139C36.1536 56.3139 35.9036 56.3816 35.6953 56.517C35.487 56.6472 35.3177 56.8269 35.1875 57.0561C35.0625 57.2852 34.9688 57.5561 34.9062 57.8686C34.849 58.1759 34.8203 58.5092 34.8203 58.8686ZM45.8281 63.3139C45.1719 63.3139 44.5833 63.2097 44.0625 63.0014C43.5417 62.7878 43.099 62.4936 42.7344 62.1186C42.375 61.7436 42.099 61.3087 41.9062 60.8139C41.7135 60.3139 41.6172 59.7826 41.6172 59.2201V58.9076C41.6172 58.267 41.7083 57.6811 41.8906 57.1498C42.0729 56.6186 42.3333 56.1576 42.6719 55.767C43.0156 55.3764 43.4323 55.0769 43.9219 54.8686C44.4115 54.655 44.9635 54.5482 45.5781 54.5482C46.1771 54.5482 46.7083 54.6472 47.1719 54.8451C47.6354 55.043 48.0234 55.3243 48.3359 55.6889C48.6536 56.0535 48.8932 56.491 49.0547 57.0014C49.2161 57.5066 49.2969 58.0691 49.2969 58.6889V59.6264H42.5781V58.1264H47.0859V57.9545C47.0859 57.642 47.0286 57.3634 46.9141 57.1186C46.8047 56.8686 46.638 56.6706 46.4141 56.5248C46.1901 56.379 45.9036 56.3061 45.5547 56.3061C45.2578 56.3061 45.0026 56.3712 44.7891 56.5014C44.5755 56.6316 44.401 56.8139 44.2656 57.0482C44.1354 57.2826 44.0365 57.5587 43.9688 57.8764C43.9062 58.1889 43.875 58.5326 43.875 58.9076V59.2201C43.875 59.5587 43.9219 59.8712 44.0156 60.1576C44.1146 60.4441 44.2526 60.6915 44.4297 60.8998C44.612 61.1081 44.8307 61.2696 45.0859 61.3842C45.3464 61.4988 45.6406 61.5561 45.9688 61.5561C46.375 61.5561 46.7526 61.4779 47.1016 61.3217C47.4557 61.1602 47.7604 60.918 48.0156 60.5951L49.1094 61.7826C48.9323 62.0378 48.6901 62.2826 48.3828 62.517C48.0807 62.7514 47.7161 62.9441 47.2891 63.0951C46.862 63.241 46.375 63.3139 45.8281 63.3139ZM52.8281 56.5482V63.1576H50.5781V54.7045H52.6953L52.8281 56.5482ZM55.375 54.6498L55.3359 56.7357C55.2266 56.7201 55.0938 56.7071 54.9375 56.6967C54.7865 56.6811 54.6484 56.6732 54.5234 56.6732C54.2057 56.6732 53.9297 56.7149 53.6953 56.7982C53.4661 56.8764 53.2734 56.9936 53.1172 57.1498C52.9661 57.3061 52.8516 57.4962 52.7734 57.7201C52.7005 57.9441 52.6589 58.1993 52.6484 58.4857L52.1953 58.3451C52.1953 57.7982 52.25 57.2956 52.3594 56.8373C52.4688 56.3738 52.6276 55.9701 52.8359 55.6264C53.0495 55.2826 53.3099 55.017 53.6172 54.8295C53.9245 54.642 54.276 54.5482 54.6719 54.5482C54.7969 54.5482 54.9245 54.5587 55.0547 54.5795C55.1849 54.5951 55.2917 54.6186 55.375 54.6498ZM58.6406 56.5092V63.1576H56.3906V54.7045H58.5L58.6406 56.5092ZM58.3125 58.6342H57.7031C57.7031 58.0092 57.7839 57.4467 57.9453 56.9467C58.1068 56.4415 58.3333 56.0118 58.625 55.6576C58.9167 55.2982 59.263 55.0248 59.6641 54.8373C60.0703 54.6446 60.5234 54.5482 61.0234 54.5482C61.4193 54.5482 61.7812 54.6055 62.1094 54.7201C62.4375 54.8347 62.7188 55.017 62.9531 55.267C63.1927 55.517 63.375 55.8477 63.5 56.2592C63.6302 56.6706 63.6953 57.1732 63.6953 57.767V63.1576H61.4297V57.7592C61.4297 57.3842 61.3776 57.0925 61.2734 56.8842C61.1693 56.6759 61.0156 56.53 60.8125 56.4467C60.6146 56.3581 60.3698 56.3139 60.0781 56.3139C59.776 56.3139 59.513 56.3738 59.2891 56.4936C59.0703 56.6134 58.888 56.78 58.7422 56.9936C58.6016 57.2019 58.4948 57.4467 58.4219 57.7279C58.349 58.0092 58.3125 58.3113 58.3125 58.6342ZM74.1953 51.7826V63.1576H71.8594V51.7826H74.1953ZM77.6953 51.7826V53.6186H68.4141V51.7826H77.6953ZM80.5938 56.5482V63.1576H78.3438V54.7045H80.4609L80.5938 56.5482ZM83.1406 54.6498L83.1016 56.7357C82.9922 56.7201 82.8594 56.7071 82.7031 56.6967C82.5521 56.6811 82.4141 56.6732 82.2891 56.6732C81.9714 56.6732 81.6953 56.7149 81.4609 56.7982C81.2318 56.8764 81.0391 56.9936 80.8828 57.1498C80.7318 57.3061 80.6172 57.4962 80.5391 57.7201C80.4661 57.9441 80.4245 58.1993 80.4141 58.4857L79.9609 58.3451C79.9609 57.7982 80.0156 57.2956 80.125 56.8373C80.2344 56.3738 80.3932 55.9701 80.6016 55.6264C80.8151 55.2826 81.0755 55.017 81.3828 54.8295C81.6901 54.642 82.0417 54.5482 82.4375 54.5482C82.5625 54.5482 82.6901 54.5587 82.8203 54.5795C82.9505 54.5951 83.0573 54.6186 83.1406 54.6498ZM88.5 61.2514V57.4857C88.5 57.2149 88.4557 56.9831 88.3672 56.7904C88.2786 56.5925 88.1406 56.4389 87.9531 56.3295C87.7708 56.2201 87.5339 56.1654 87.2422 56.1654C86.9922 56.1654 86.776 56.2097 86.5938 56.2982C86.4115 56.3816 86.2708 56.504 86.1719 56.6654C86.0729 56.8217 86.0234 57.0066 86.0234 57.2201H83.7734C83.7734 56.8607 83.8568 56.5196 84.0234 56.1967C84.1901 55.8738 84.4323 55.5899 84.75 55.3451C85.0677 55.0951 85.4453 54.8998 85.8828 54.7592C86.3255 54.6186 86.8203 54.5482 87.3672 54.5482C88.0234 54.5482 88.6068 54.6576 89.1172 54.8764C89.6276 55.0951 90.0286 55.4232 90.3203 55.8607C90.6172 56.2982 90.7656 56.8451 90.7656 57.5014V61.1186C90.7656 61.5821 90.7943 61.9623 90.8516 62.2592C90.9089 62.5509 90.9922 62.8061 91.1016 63.0248V63.1576H88.8281C88.7188 62.9285 88.6354 62.642 88.5781 62.2982C88.526 61.9493 88.5 61.6003 88.5 61.2514ZM88.7969 58.0092L88.8125 59.2826H87.5547C87.2578 59.2826 87 59.3165 86.7812 59.3842C86.5625 59.4519 86.3828 59.5482 86.2422 59.6732C86.1016 59.793 85.9974 59.9337 85.9297 60.0951C85.8672 60.2566 85.8359 60.4337 85.8359 60.6264C85.8359 60.8191 85.8802 60.9936 85.9688 61.1498C86.0573 61.3009 86.1849 61.4206 86.3516 61.5092C86.5182 61.5925 86.7135 61.6342 86.9375 61.6342C87.276 61.6342 87.5703 61.5665 87.8203 61.4311C88.0703 61.2956 88.263 61.129 88.3984 60.9311C88.5391 60.7331 88.612 60.5456 88.6172 60.3686L89.2109 61.3217C89.1276 61.5352 89.013 61.7566 88.8672 61.9857C88.7266 62.2149 88.5469 62.4311 88.3281 62.6342C88.1094 62.8321 87.8464 62.9962 87.5391 63.1264C87.2318 63.2514 86.8672 63.3139 86.4453 63.3139C85.9089 63.3139 85.4219 63.2071 84.9844 62.9936C84.5521 62.7748 84.2083 62.4753 83.9531 62.0951C83.7031 61.7097 83.5781 61.2722 83.5781 60.7826C83.5781 60.3399 83.6615 59.9467 83.8281 59.6029C83.9948 59.2592 84.2396 58.9701 84.5625 58.7357C84.8906 58.4962 85.2995 58.3165 85.7891 58.1967C86.2786 58.0717 86.8464 58.0092 87.4922 58.0092H88.7969ZM97.4922 61.3139V51.1576H99.7578V63.1576H97.7188L97.4922 61.3139ZM92.1484 59.0326V58.8686C92.1484 58.2227 92.2214 57.6368 92.3672 57.1107C92.513 56.5795 92.7266 56.1238 93.0078 55.7436C93.2891 55.3634 93.6354 55.0691 94.0469 54.8607C94.4583 54.6524 94.9271 54.5482 95.4531 54.5482C95.9479 54.5482 96.3802 54.6524 96.75 54.8607C97.125 55.0691 97.4427 55.366 97.7031 55.7514C97.9688 56.1316 98.1823 56.5821 98.3438 57.1029C98.5052 57.6186 98.6224 58.1837 98.6953 58.7982V59.1576C98.6224 59.7462 98.5052 60.293 98.3438 60.7982C98.1823 61.3035 97.9688 61.7462 97.7031 62.1264C97.4427 62.5014 97.125 62.793 96.75 63.0014C96.375 63.2097 95.9375 63.3139 95.4375 63.3139C94.9115 63.3139 94.4427 63.2071 94.0312 62.9936C93.625 62.78 93.2812 62.4805 93 62.0951C92.724 61.7097 92.513 61.2566 92.3672 60.7357C92.2214 60.2149 92.1484 59.6472 92.1484 59.0326ZM94.3984 58.8686V59.0326C94.3984 59.3816 94.4245 59.7071 94.4766 60.0092C94.5339 60.3113 94.625 60.5795 94.75 60.8139C94.8802 61.043 95.0469 61.2227 95.25 61.3529C95.4583 61.4779 95.7109 61.5404 96.0078 61.5404C96.3932 61.5404 96.7109 61.4545 96.9609 61.2826C97.2109 61.1055 97.401 60.8634 97.5312 60.5561C97.6667 60.2488 97.7448 59.8946 97.7656 59.4936V58.4701C97.75 58.142 97.7031 57.8477 97.625 57.5873C97.5521 57.3217 97.4427 57.0951 97.2969 56.9076C97.1562 56.7201 96.9792 56.5743 96.7656 56.4701C96.5573 56.366 96.3099 56.3139 96.0234 56.3139C95.7318 56.3139 95.4818 56.3816 95.2734 56.517C95.0651 56.6472 94.8958 56.8269 94.7656 57.0561C94.6406 57.2852 94.5469 57.5561 94.4844 57.8686C94.4271 58.1759 94.3984 58.5092 94.3984 58.8686ZM105.406 63.3139C104.75 63.3139 104.161 63.2097 103.641 63.0014C103.12 62.7878 102.677 62.4936 102.312 62.1186C101.953 61.7436 101.677 61.3087 101.484 60.8139C101.292 60.3139 101.195 59.7826 101.195 59.2201V58.9076C101.195 58.267 101.286 57.6811 101.469 57.1498C101.651 56.6186 101.911 56.1576 102.25 55.767C102.594 55.3764 103.01 55.0769 103.5 54.8686C103.99 54.655 104.542 54.5482 105.156 54.5482C105.755 54.5482 106.286 54.6472 106.75 54.8451C107.214 55.043 107.602 55.3243 107.914 55.6889C108.232 56.0535 108.471 56.491 108.633 57.0014C108.794 57.5066 108.875 58.0691 108.875 58.6889V59.6264H102.156V58.1264H106.664V57.9545C106.664 57.642 106.607 57.3634 106.492 57.1186C106.383 56.8686 106.216 56.6706 105.992 56.5248C105.768 56.379 105.482 56.3061 105.133 56.3061C104.836 56.3061 104.581 56.3712 104.367 56.5014C104.154 56.6316 103.979 56.8139 103.844 57.0482C103.714 57.2826 103.615 57.5587 103.547 57.8764C103.484 58.1889 103.453 58.5326 103.453 58.9076V59.2201C103.453 59.5587 103.5 59.8712 103.594 60.1576C103.693 60.4441 103.831 60.6915 104.008 60.8998C104.19 61.1081 104.409 61.2696 104.664 61.3842C104.924 61.4988 105.219 61.5561 105.547 61.5561C105.953 61.5561 106.331 61.4779 106.68 61.3217C107.034 61.1602 107.339 60.918 107.594 60.5951L108.688 61.7826C108.51 62.0378 108.268 62.2826 107.961 62.517C107.659 62.7514 107.294 62.9441 106.867 63.0951C106.44 63.241 105.953 63.3139 105.406 63.3139ZM112.57 60.9701L114.328 54.7045H115.758L115.297 57.1654L113.539 63.1576H112.344L112.57 60.9701ZM111.68 54.7045L112.938 60.9623L113.055 63.1576H111.648L109.508 54.7045H111.68ZM117.367 60.8607L118.594 54.7045H120.773L118.633 63.1576H117.234L117.367 60.8607ZM115.953 54.7045L117.703 60.9232L117.945 63.1576H116.742L114.984 57.1732L114.539 54.7045H115.953ZM126.469 61.2514V57.4857C126.469 57.2149 126.424 56.9831 126.336 56.7904C126.247 56.5925 126.109 56.4389 125.922 56.3295C125.74 56.2201 125.503 56.1654 125.211 56.1654C124.961 56.1654 124.745 56.2097 124.562 56.2982C124.38 56.3816 124.24 56.504 124.141 56.6654C124.042 56.8217 123.992 57.0066 123.992 57.2201H121.742C121.742 56.8607 121.826 56.5196 121.992 56.1967C122.159 55.8738 122.401 55.5899 122.719 55.3451C123.036 55.0951 123.414 54.8998 123.852 54.7592C124.294 54.6186 124.789 54.5482 125.336 54.5482C125.992 54.5482 126.576 54.6576 127.086 54.8764C127.596 55.0951 127.997 55.4232 128.289 55.8607C128.586 56.2982 128.734 56.8451 128.734 57.5014V61.1186C128.734 61.5821 128.763 61.9623 128.82 62.2592C128.878 62.5509 128.961 62.8061 129.07 63.0248V63.1576H126.797C126.688 62.9285 126.604 62.642 126.547 62.2982C126.495 61.9493 126.469 61.6003 126.469 61.2514ZM126.766 58.0092L126.781 59.2826H125.523C125.227 59.2826 124.969 59.3165 124.75 59.3842C124.531 59.4519 124.352 59.5482 124.211 59.6732C124.07 59.793 123.966 59.9337 123.898 60.0951C123.836 60.2566 123.805 60.4337 123.805 60.6264C123.805 60.8191 123.849 60.9936 123.938 61.1498C124.026 61.3009 124.154 61.4206 124.32 61.5092C124.487 61.5925 124.682 61.6342 124.906 61.6342C125.245 61.6342 125.539 61.5665 125.789 61.4311C126.039 61.2956 126.232 61.129 126.367 60.9311C126.508 60.7331 126.581 60.5456 126.586 60.3686L127.18 61.3217C127.096 61.5352 126.982 61.7566 126.836 61.9857C126.695 62.2149 126.516 62.4311 126.297 62.6342C126.078 62.8321 125.815 62.9962 125.508 63.1264C125.201 63.2514 124.836 63.3139 124.414 63.3139C123.878 63.3139 123.391 63.2071 122.953 62.9936C122.521 62.7748 122.177 62.4753 121.922 62.0951C121.672 61.7097 121.547 61.2722 121.547 60.7826C121.547 60.3399 121.63 59.9467 121.797 59.6029C121.964 59.2592 122.208 58.9701 122.531 58.7357C122.859 58.4962 123.268 58.3165 123.758 58.1967C124.247 58.0717 124.815 58.0092 125.461 58.0092H126.766ZM132.852 62.2045L135.094 54.7045H137.508L134.109 64.4311C134.036 64.6446 133.938 64.8738 133.812 65.1186C133.693 65.3634 133.529 65.5951 133.32 65.8139C133.117 66.0378 132.859 66.2201 132.547 66.3607C132.24 66.5014 131.862 66.5717 131.414 66.5717C131.201 66.5717 131.026 66.5587 130.891 66.5326C130.755 66.5066 130.594 66.4701 130.406 66.4232V64.7748C130.464 64.7748 130.523 64.7748 130.586 64.7748C130.648 64.78 130.708 64.7826 130.766 64.7826C131.062 64.7826 131.305 64.7488 131.492 64.6811C131.68 64.6134 131.831 64.5092 131.945 64.3686C132.06 64.2331 132.151 64.0561 132.219 63.8373L132.852 62.2045ZM131.914 54.7045L133.75 60.8295L134.07 63.2123L132.539 63.3764L129.5 54.7045H131.914ZM148.453 60.1811C148.453 59.9779 148.422 59.7956 148.359 59.6342C148.302 59.4675 148.193 59.3165 148.031 59.1811C147.87 59.0404 147.643 58.9024 147.352 58.767C147.06 58.6316 146.682 58.491 146.219 58.3451C145.703 58.1785 145.214 57.991 144.75 57.7826C144.292 57.5743 143.885 57.3321 143.531 57.0561C143.182 56.7748 142.906 56.4493 142.703 56.0795C142.505 55.7097 142.406 55.28 142.406 54.7904C142.406 54.3165 142.51 53.8868 142.719 53.5014C142.927 53.1107 143.219 52.7774 143.594 52.5014C143.969 52.2201 144.411 52.004 144.922 51.8529C145.438 51.7019 146.003 51.6264 146.617 51.6264C147.456 51.6264 148.188 51.7774 148.812 52.0795C149.438 52.3816 149.922 52.7956 150.266 53.3217C150.615 53.8477 150.789 54.4493 150.789 55.1264H148.461C148.461 54.793 148.391 54.5014 148.25 54.2514C148.115 53.9962 147.906 53.7956 147.625 53.6498C147.349 53.504 147 53.4311 146.578 53.4311C146.172 53.4311 145.833 53.4936 145.562 53.6186C145.292 53.7384 145.089 53.9024 144.953 54.1107C144.818 54.3139 144.75 54.543 144.75 54.7982C144.75 54.991 144.797 55.1654 144.891 55.3217C144.99 55.4779 145.135 55.6238 145.328 55.7592C145.521 55.8946 145.758 56.0222 146.039 56.142C146.32 56.2618 146.646 56.379 147.016 56.4936C147.635 56.6811 148.18 56.892 148.648 57.1264C149.122 57.3607 149.518 57.6238 149.836 57.9154C150.154 58.2071 150.393 58.5378 150.555 58.9076C150.716 59.2774 150.797 59.6967 150.797 60.1654C150.797 60.6602 150.701 61.1029 150.508 61.4936C150.315 61.8842 150.036 62.2149 149.672 62.4857C149.307 62.7566 148.872 62.9623 148.367 63.1029C147.862 63.2436 147.297 63.3139 146.672 63.3139C146.109 63.3139 145.555 63.241 145.008 63.0951C144.461 62.9441 143.964 62.7175 143.516 62.4154C143.073 62.1134 142.719 61.7279 142.453 61.2592C142.188 60.7904 142.055 60.2357 142.055 59.5951H144.406C144.406 59.9493 144.461 60.2488 144.57 60.4936C144.68 60.7384 144.833 60.9363 145.031 61.0873C145.234 61.2384 145.474 61.3477 145.75 61.4154C146.031 61.4831 146.339 61.517 146.672 61.517C147.078 61.517 147.411 61.4597 147.672 61.3451C147.938 61.2305 148.133 61.0717 148.258 60.8686C148.388 60.6654 148.453 60.4363 148.453 60.1811ZM156.141 63.3139C155.484 63.3139 154.896 63.2097 154.375 63.0014C153.854 62.7878 153.411 62.4936 153.047 62.1186C152.688 61.7436 152.411 61.3087 152.219 60.8139C152.026 60.3139 151.93 59.7826 151.93 59.2201V58.9076C151.93 58.267 152.021 57.6811 152.203 57.1498C152.385 56.6186 152.646 56.1576 152.984 55.767C153.328 55.3764 153.745 55.0769 154.234 54.8686C154.724 54.655 155.276 54.5482 155.891 54.5482C156.49 54.5482 157.021 54.6472 157.484 54.8451C157.948 55.043 158.336 55.3243 158.648 55.6889C158.966 56.0535 159.206 56.491 159.367 57.0014C159.529 57.5066 159.609 58.0691 159.609 58.6889V59.6264H152.891V58.1264H157.398V57.9545C157.398 57.642 157.341 57.3634 157.227 57.1186C157.117 56.8686 156.951 56.6706 156.727 56.5248C156.503 56.379 156.216 56.3061 155.867 56.3061C155.57 56.3061 155.315 56.3712 155.102 56.5014C154.888 56.6316 154.714 56.8139 154.578 57.0482C154.448 57.2826 154.349 57.5587 154.281 57.8764C154.219 58.1889 154.188 58.5326 154.188 58.9076V59.2201C154.188 59.5587 154.234 59.8712 154.328 60.1576C154.427 60.4441 154.565 60.6915 154.742 60.8998C154.924 61.1081 155.143 61.2696 155.398 61.3842C155.659 61.4988 155.953 61.5561 156.281 61.5561C156.688 61.5561 157.065 61.4779 157.414 61.3217C157.768 61.1602 158.073 60.918 158.328 60.5951L159.422 61.7826C159.245 62.0378 159.003 62.2826 158.695 62.517C158.393 62.7514 158.029 62.9441 157.602 63.0951C157.174 63.241 156.688 63.3139 156.141 63.3139ZM163.141 56.5482V63.1576H160.891V54.7045H163.008L163.141 56.5482ZM165.688 54.6498L165.648 56.7357C165.539 56.7201 165.406 56.7071 165.25 56.6967C165.099 56.6811 164.961 56.6732 164.836 56.6732C164.518 56.6732 164.242 56.7149 164.008 56.7982C163.779 56.8764 163.586 56.9936 163.43 57.1498C163.279 57.3061 163.164 57.4962 163.086 57.7201C163.013 57.9441 162.971 58.1993 162.961 58.4857L162.508 58.3451C162.508 57.7982 162.562 57.2956 162.672 56.8373C162.781 56.3738 162.94 55.9701 163.148 55.6264C163.362 55.2826 163.622 55.017 163.93 54.8295C164.237 54.642 164.589 54.5482 164.984 54.5482C165.109 54.5482 165.237 54.5587 165.367 54.5795C165.497 54.5951 165.604 54.6186 165.688 54.6498ZM169.766 61.517L171.641 54.7045H173.992L171.141 63.1576H169.719L169.766 61.517ZM168.477 54.7045L170.359 61.5248L170.398 63.1576H168.969L166.117 54.7045H168.477ZM177.375 54.7045V63.1576H175.117V54.7045H177.375ZM174.977 52.5014C174.977 52.1732 175.091 51.9024 175.32 51.6889C175.549 51.4753 175.857 51.3686 176.242 51.3686C176.622 51.3686 176.927 51.4753 177.156 51.6889C177.391 51.9024 177.508 52.1732 177.508 52.5014C177.508 52.8295 177.391 53.1003 177.156 53.3139C176.927 53.5274 176.622 53.6342 176.242 53.6342C175.857 53.6342 175.549 53.5274 175.32 53.3139C175.091 53.1003 174.977 52.8295 174.977 52.5014ZM182.727 61.5561C183.003 61.5561 183.247 61.504 183.461 61.3998C183.674 61.2904 183.841 61.1394 183.961 60.9467C184.086 60.7488 184.151 60.517 184.156 60.2514H186.273C186.268 60.8451 186.109 61.3738 185.797 61.8373C185.484 62.2956 185.065 62.6576 184.539 62.9232C184.013 63.1837 183.424 63.3139 182.773 63.3139C182.117 63.3139 181.544 63.2045 181.055 62.9857C180.57 62.767 180.167 62.4649 179.844 62.0795C179.521 61.6889 179.279 61.2357 179.117 60.7201C178.956 60.1993 178.875 59.642 178.875 59.0482V58.8217C178.875 58.2227 178.956 57.6654 179.117 57.1498C179.279 56.629 179.521 56.1759 179.844 55.7904C180.167 55.3998 180.57 55.0951 181.055 54.8764C181.539 54.6576 182.107 54.5482 182.758 54.5482C183.451 54.5482 184.057 54.6811 184.578 54.9467C185.104 55.2123 185.516 55.5925 185.812 56.0873C186.115 56.5769 186.268 57.1576 186.273 57.8295H184.156C184.151 57.5482 184.091 57.293 183.977 57.0639C183.867 56.8347 183.706 56.6524 183.492 56.517C183.284 56.3764 183.026 56.3061 182.719 56.3061C182.391 56.3061 182.122 56.3764 181.914 56.517C181.706 56.6524 181.544 56.8399 181.43 57.0795C181.315 57.3139 181.234 57.5821 181.188 57.8842C181.146 58.1811 181.125 58.4936 181.125 58.8217V59.0482C181.125 59.3764 181.146 59.6915 181.188 59.9936C181.229 60.2956 181.307 60.5639 181.422 60.7982C181.542 61.0326 181.706 61.2175 181.914 61.3529C182.122 61.4884 182.393 61.5561 182.727 61.5561ZM191.469 63.3139C190.812 63.3139 190.224 63.2097 189.703 63.0014C189.182 62.7878 188.74 62.4936 188.375 62.1186C188.016 61.7436 187.74 61.3087 187.547 60.8139C187.354 60.3139 187.258 59.7826 187.258 59.2201V58.9076C187.258 58.267 187.349 57.6811 187.531 57.1498C187.714 56.6186 187.974 56.1576 188.312 55.767C188.656 55.3764 189.073 55.0769 189.562 54.8686C190.052 54.655 190.604 54.5482 191.219 54.5482C191.818 54.5482 192.349 54.6472 192.812 54.8451C193.276 55.043 193.664 55.3243 193.977 55.6889C194.294 56.0535 194.534 56.491 194.695 57.0014C194.857 57.5066 194.938 58.0691 194.938 58.6889V59.6264H188.219V58.1264H192.727V57.9545C192.727 57.642 192.669 57.3634 192.555 57.1186C192.445 56.8686 192.279 56.6706 192.055 56.5248C191.831 56.379 191.544 56.3061 191.195 56.3061C190.898 56.3061 190.643 56.3712 190.43 56.5014C190.216 56.6316 190.042 56.8139 189.906 57.0482C189.776 57.2826 189.677 57.5587 189.609 57.8764C189.547 58.1889 189.516 58.5326 189.516 58.9076V59.2201C189.516 59.5587 189.562 59.8712 189.656 60.1576C189.755 60.4441 189.893 60.6915 190.07 60.8998C190.253 61.1081 190.471 61.2696 190.727 61.3842C190.987 61.4988 191.281 61.5561 191.609 61.5561C192.016 61.5561 192.393 61.4779 192.742 61.3217C193.096 61.1602 193.401 60.918 193.656 60.5951L194.75 61.7826C194.573 62.0378 194.331 62.2826 194.023 62.517C193.721 62.7514 193.357 62.9441 192.93 63.0951C192.503 63.241 192.016 63.3139 191.469 63.3139ZM200.789 60.8217C200.789 60.6602 200.742 60.5144 200.648 60.3842C200.555 60.254 200.38 60.1342 200.125 60.0248C199.875 59.9102 199.513 59.8061 199.039 59.7123C198.612 59.6186 198.214 59.5014 197.844 59.3607C197.479 59.2149 197.161 59.0404 196.891 58.8373C196.625 58.6342 196.417 58.3946 196.266 58.1186C196.115 57.8373 196.039 57.517 196.039 57.1576C196.039 56.8035 196.115 56.4701 196.266 56.1576C196.422 55.8451 196.643 55.5691 196.93 55.3295C197.221 55.0847 197.576 54.8946 197.992 54.7592C198.414 54.6186 198.888 54.5482 199.414 54.5482C200.148 54.5482 200.779 54.6654 201.305 54.8998C201.836 55.1342 202.242 55.4571 202.523 55.8686C202.81 56.2748 202.953 56.7384 202.953 57.2592H200.703C200.703 57.0404 200.656 56.8451 200.562 56.6732C200.474 56.4962 200.333 56.3581 200.141 56.2592C199.953 56.155 199.708 56.1029 199.406 56.1029C199.156 56.1029 198.94 56.1472 198.758 56.2357C198.576 56.3191 198.435 56.4337 198.336 56.5795C198.242 56.7201 198.195 56.8764 198.195 57.0482C198.195 57.1785 198.221 57.2956 198.273 57.3998C198.331 57.4988 198.422 57.5899 198.547 57.6732C198.672 57.7566 198.833 57.8347 199.031 57.9076C199.234 57.9753 199.484 58.0378 199.781 58.0951C200.391 58.2201 200.935 58.3842 201.414 58.5873C201.893 58.7852 202.273 59.0561 202.555 59.3998C202.836 59.7384 202.977 60.1837 202.977 60.7357C202.977 61.1107 202.893 61.4545 202.727 61.767C202.56 62.0795 202.32 62.3529 202.008 62.5873C201.695 62.8165 201.32 62.9962 200.883 63.1264C200.451 63.2514 199.964 63.3139 199.422 63.3139C198.635 63.3139 197.969 63.1732 197.422 62.892C196.88 62.6107 196.469 62.254 196.188 61.8217C195.911 61.3842 195.773 60.9363 195.773 60.4779H197.906C197.917 60.7852 197.995 61.0326 198.141 61.2201C198.292 61.4076 198.482 61.543 198.711 61.6264C198.945 61.7097 199.198 61.7514 199.469 61.7514C199.76 61.7514 200.003 61.7123 200.195 61.6342C200.388 61.5509 200.534 61.4415 200.633 61.3061C200.737 61.1654 200.789 61.004 200.789 60.8217ZM210.797 51.1576V63.1576H208.539V51.1576H210.797ZM215.031 54.7045V63.1576H212.773V54.7045H215.031ZM212.633 52.5014C212.633 52.1732 212.747 51.9024 212.977 51.6889C213.206 51.4753 213.513 51.3686 213.898 51.3686C214.279 51.3686 214.583 51.4753 214.812 51.6889C215.047 51.9024 215.164 52.1732 215.164 52.5014C215.164 52.8295 215.047 53.1003 214.812 53.3139C214.583 53.5274 214.279 53.6342 213.898 53.6342C213.513 53.6342 213.206 53.5274 212.977 53.3139C212.747 53.1003 212.633 52.8295 212.633 52.5014ZM219.141 56.4545V63.1576H216.883V54.7045H219L219.141 56.4545ZM218.828 58.6342H218.203C218.203 58.0456 218.273 57.504 218.414 57.0092C218.56 56.5092 218.771 56.0769 219.047 55.7123C219.328 55.3425 219.674 55.0561 220.086 54.8529C220.497 54.6498 220.974 54.5482 221.516 54.5482C221.891 54.5482 222.234 54.6055 222.547 54.7201C222.859 54.8295 223.128 55.004 223.352 55.2436C223.581 55.4779 223.758 55.7852 223.883 56.1654C224.008 56.5404 224.07 56.991 224.07 57.517V63.1576H221.82V57.767C221.82 57.3816 221.768 57.0847 221.664 56.8764C221.56 56.668 221.411 56.5222 221.219 56.4389C221.031 56.3555 220.805 56.3139 220.539 56.3139C220.247 56.3139 219.992 56.3738 219.773 56.4936C219.56 56.6134 219.383 56.78 219.242 56.9936C219.102 57.2019 218.997 57.4467 218.93 57.7279C218.862 58.0092 218.828 58.3113 218.828 58.6342ZM223.859 58.3764L223.055 58.4779C223.055 57.9259 223.122 57.4128 223.258 56.9389C223.398 56.4649 223.604 56.0482 223.875 55.6889C224.151 55.3295 224.492 55.0509 224.898 54.8529C225.305 54.6498 225.773 54.5482 226.305 54.5482C226.711 54.5482 227.081 54.6081 227.414 54.7279C227.747 54.8425 228.031 55.0274 228.266 55.2826C228.505 55.5326 228.688 55.8607 228.812 56.267C228.943 56.6732 229.008 57.1706 229.008 57.7592V63.1576H226.75V57.7592C226.75 57.3686 226.698 57.0717 226.594 56.8686C226.495 56.6602 226.349 56.517 226.156 56.4389C225.969 56.3555 225.745 56.3139 225.484 56.3139C225.214 56.3139 224.977 56.3686 224.773 56.4779C224.57 56.5821 224.401 56.7279 224.266 56.9154C224.13 57.1029 224.029 57.3217 223.961 57.5717C223.893 57.8165 223.859 58.0847 223.859 58.3764ZM233.125 54.7045V63.1576H230.867V54.7045H233.125ZM230.727 52.5014C230.727 52.1732 230.841 51.9024 231.07 51.6889C231.299 51.4753 231.607 51.3686 231.992 51.3686C232.372 51.3686 232.677 51.4753 232.906 51.6889C233.141 51.9024 233.258 52.1732 233.258 52.5014C233.258 52.8295 233.141 53.1003 232.906 53.3139C232.677 53.5274 232.372 53.6342 231.992 53.6342C231.607 53.6342 231.299 53.5274 231.07 53.3139C230.841 53.1003 230.727 52.8295 230.727 52.5014ZM239.125 54.7045V56.2982H234.203V54.7045H239.125ZM235.422 52.6186H237.672V60.6107C237.672 60.8555 237.703 61.043 237.766 61.1732C237.833 61.3035 237.932 61.3946 238.062 61.4467C238.193 61.4936 238.357 61.517 238.555 61.517C238.695 61.517 238.82 61.5118 238.93 61.5014C239.044 61.4857 239.141 61.4701 239.219 61.4545L239.227 63.1107C239.034 63.1732 238.826 63.2227 238.602 63.2592C238.378 63.2956 238.13 63.3139 237.859 63.3139C237.365 63.3139 236.932 63.2331 236.562 63.0717C236.198 62.905 235.917 62.6394 235.719 62.2748C235.521 61.9102 235.422 61.4311 235.422 60.8373V52.6186ZM244.297 63.3139C243.641 63.3139 243.052 63.2097 242.531 63.0014C242.01 62.7878 241.568 62.4936 241.203 62.1186C240.844 61.7436 240.568 61.3087 240.375 60.8139C240.182 60.3139 240.086 59.7826 240.086 59.2201V58.9076C240.086 58.267 240.177 57.6811 240.359 57.1498C240.542 56.6186 240.802 56.1576 241.141 55.767C241.484 55.3764 241.901 55.0769 242.391 54.8686C242.88 54.655 243.432 54.5482 244.047 54.5482C244.646 54.5482 245.177 54.6472 245.641 54.8451C246.104 55.043 246.492 55.3243 246.805 55.6889C247.122 56.0535 247.362 56.491 247.523 57.0014C247.685 57.5066 247.766 58.0691 247.766 58.6889V59.6264H241.047V58.1264H245.555V57.9545C245.555 57.642 245.497 57.3634 245.383 57.1186C245.273 56.8686 245.107 56.6706 244.883 56.5248C244.659 56.379 244.372 56.3061 244.023 56.3061C243.727 56.3061 243.471 56.3712 243.258 56.5014C243.044 56.6316 242.87 56.8139 242.734 57.0482C242.604 57.2826 242.505 57.5587 242.438 57.8764C242.375 58.1889 242.344 58.5326 242.344 58.9076V59.2201C242.344 59.5587 242.391 59.8712 242.484 60.1576C242.583 60.4441 242.721 60.6915 242.898 60.8998C243.081 61.1081 243.299 61.2696 243.555 61.3842C243.815 61.4988 244.109 61.5561 244.438 61.5561C244.844 61.5561 245.221 61.4779 245.57 61.3217C245.924 61.1602 246.229 60.918 246.484 60.5951L247.578 61.7826C247.401 62.0378 247.159 62.2826 246.852 62.517C246.549 62.7514 246.185 62.9441 245.758 63.0951C245.331 63.241 244.844 63.3139 244.297 63.3139ZM254.039 61.3139V51.1576H256.305V63.1576H254.266L254.039 61.3139ZM248.695 59.0326V58.8686C248.695 58.2227 248.768 57.6368 248.914 57.1107C249.06 56.5795 249.273 56.1238 249.555 55.7436C249.836 55.3634 250.182 55.0691 250.594 54.8607C251.005 54.6524 251.474 54.5482 252 54.5482C252.495 54.5482 252.927 54.6524 253.297 54.8607C253.672 55.0691 253.99 55.366 254.25 55.7514C254.516 56.1316 254.729 56.5821 254.891 57.1029C255.052 57.6186 255.169 58.1837 255.242 58.7982V59.1576C255.169 59.7462 255.052 60.293 254.891 60.7982C254.729 61.3035 254.516 61.7462 254.25 62.1264C253.99 62.5014 253.672 62.793 253.297 63.0014C252.922 63.2097 252.484 63.3139 251.984 63.3139C251.458 63.3139 250.99 63.2071 250.578 62.9936C250.172 62.78 249.828 62.4805 249.547 62.0951C249.271 61.7097 249.06 61.2566 248.914 60.7357C248.768 60.2149 248.695 59.6472 248.695 59.0326ZM250.945 58.8686V59.0326C250.945 59.3816 250.971 59.7071 251.023 60.0092C251.081 60.3113 251.172 60.5795 251.297 60.8139C251.427 61.043 251.594 61.2227 251.797 61.3529C252.005 61.4779 252.258 61.5404 252.555 61.5404C252.94 61.5404 253.258 61.4545 253.508 61.2826C253.758 61.1055 253.948 60.8634 254.078 60.5561C254.214 60.2488 254.292 59.8946 254.312 59.4936V58.4701C254.297 58.142 254.25 57.8477 254.172 57.5873C254.099 57.3217 253.99 57.0951 253.844 56.9076C253.703 56.7201 253.526 56.5743 253.312 56.4701C253.104 56.366 252.857 56.3139 252.57 56.3139C252.279 56.3139 252.029 56.3816 251.82 56.517C251.612 56.6472 251.443 56.8269 251.312 57.0561C251.188 57.2852 251.094 57.5561 251.031 57.8686C250.974 58.1759 250.945 58.5092 250.945 58.8686Z" fill="#FAFAFA"/>
<rect y="0.157623" width="2" height="25" fill="#FAFAFA"/>
<rect x="2" y="0.157623" width="10" height="2" fill="#FAFAFA"/>
<rect x="269" y="75.1576" width="2" height="25" transform="rotate(-180 269 75.1576)" fill="#FAFAFA"/>
<rect x="267" y="75.1576" width="10" height="2" transform="rotate(-180 267 75.1576)" fill="#FAFAFA"/>
</svg>
