<svg width="109" height="103" viewBox="0 0 109 103" fill="none" xmlns="http://www.w3.org/2000/svg">
<g clip-path="url(#clip0_247_1507)">
<path d="M14.0173 77.2331V85.2583H16.7564V77.2331H18.7972V85.2583H21.5092V77.2331H23.5432V86.8501H11.9766V77.2331H14.0173Z" fill="#939393"/>
<path d="M31.2449 82.6823H27.3397V85.2583H31.9229V86.8501H25.3057V77.2331H31.9093V78.8381H27.3397V81.1301H31.2449V82.6823Z" fill="#939393"/>
<path d="M36.3369 82.9201H35.1639V86.8501H33.1299V77.2331H35.1639V81.0838H36.0928L38.5064 77.2331H40.9879L37.9437 81.784L41.3066 86.8501H38.8793L36.3369 82.9201Z" fill="#939393"/>
<path d="M49.6249 83.6466C49.548 84.6814 49.1548 85.496 48.4452 86.0905C47.74 86.685 46.8089 86.9822 45.6518 86.9822C44.3862 86.9822 43.3896 86.5683 42.6619 85.7404C41.9387 84.9082 41.5771 83.7677 41.5771 82.319V81.7311C41.5771 80.8064 41.7443 79.9918 42.0788 79.2872C42.4133 78.5827 42.8901 78.0433 43.5094 77.669C44.1331 77.2903 44.8563 77.101 45.6789 77.101C46.818 77.101 47.7355 77.3982 48.4316 77.9926C49.1277 78.5871 49.53 79.4216 49.6384 80.496H47.6044C47.5547 79.8751 47.3762 79.426 47.0688 79.1485C46.766 78.8667 46.3027 78.7258 45.6789 78.7258C45.0009 78.7258 44.4924 78.9636 44.1535 79.4392C43.8191 79.9103 43.6472 80.6435 43.6382 81.6387V82.3652C43.6382 83.4044 43.7986 84.164 44.1195 84.644C44.445 85.124 44.9557 85.3639 45.6518 85.3639C46.2801 85.3639 46.7479 85.2252 47.0553 84.9478C47.3671 84.666 47.5458 84.2323 47.591 83.6466H49.6249Z" fill="#939393"/>
<path d="M58.9952 86.8501H56.9612V82.7285H52.9949V86.8501H50.9609V77.2331H52.9949V81.1301H56.9612V77.2331H58.9952V86.8501Z" fill="#939393"/>
<path d="M66.4735 84.8686H62.9072L62.2292 86.8501H60.0664L63.7411 77.2331H65.626L69.321 86.8501H67.1582L66.4735 84.8686ZM63.4564 83.2635H65.9243L64.6836 79.6637L63.4564 83.2635Z" fill="#939393"/>
<path d="M13.6103 92.7894V101.37H17.0071V92.7894H18.3021V101.37H21.6785V92.7894H22.9802V102.407H12.3018V92.7894H13.6103Z" fill="#939393"/>
<path d="M31.5497 92.7894H32.8515V102.407H31.5497V94.9955L26.6885 102.407H25.3799V92.7894H26.6885V100.2L31.5497 92.7894Z" fill="#939393"/>
<path d="M42.7635 102.407H41.4549V93.833H36.5869V102.407H35.2852V92.7894H42.7635V102.407Z" fill="#939393"/>
<path d="M52.6765 102.407H51.3679V93.833H46.4999V102.407H45.1982V92.7894H52.6765V102.407Z" fill="#939393"/>
<path d="M61.2732 92.7894H62.575V102.407H61.2732V94.9955L56.412 102.407H55.1035V92.7894H56.412V100.2L61.2732 92.7894Z" fill="#939393"/>
<path d="M72.5349 102.407H71.2264V97.9612H66.2499V102.407H64.9482V92.7894H66.2499V96.9242H71.2264V92.7894H72.5349V102.407Z" fill="#939393"/>
<path d="M80.9685 93.833H76.209V102.407H74.9004V92.7894H80.9685V93.833Z" fill="#939393"/>
<path d="M97.8734 50.3943C96.8628 50.4658 95.8521 50.5784 94.8414 50.6704L94.3261 50.7318C94.225 50.834 94.1441 50.9465 94.043 51.0488L92.5372 52.5932C84.8006 62.3737 74.2226 69.4468 62.2979 72.8132V73.0587L62.8233 72.9257L67.2704 71.9029C68.847 71.5347 70.4741 71.0029 72.1922 70.5222C73.0412 70.2665 73.9206 70.0415 74.7898 69.7449L77.4175 68.8244L80.1059 67.8733L82.764 66.7789C83.6432 66.4005 84.5528 66.063 85.4219 65.6539L88.0195 64.4061C89.7578 63.6186 91.3849 62.6163 93.002 61.7469C93.8105 61.2969 94.5584 60.7753 95.3265 60.3048C96.0947 59.8343 96.7719 59.4048 97.4389 58.9139L97.5702 58.5457C97.6915 58.1468 97.8128 57.7479 97.9442 57.349L98.3283 56.1626L98.6112 54.9558C98.7123 54.5569 98.8135 54.158 98.9044 53.7591L99.1065 52.5523C99.2682 51.8159 99.339 51.0693 99.4401 50.3329L97.8734 50.3943Z" fill="#FAFAFA"/>
<path d="M108.991 45.076L108.839 41.0361L104.635 40.627L101.098 40.2895C99.9354 40.2895 98.763 40.1872 97.5907 40.1667C96.4183 40.1463 95.2863 40.1667 94.1241 40.2281C92.9618 40.2895 91.8298 40.3508 90.6878 40.4122C89.5457 40.4736 88.4138 40.627 87.2818 40.7497C86.1498 40.8724 85.0179 41.0054 83.9062 41.1793C81.6523 41.4656 79.4491 41.9259 77.2357 42.335C75.0223 42.7441 72.8393 43.2452 70.6865 43.818C68.5338 44.3907 66.371 44.9533 64.2182 45.5465C62.0655 46.1397 59.9633 46.8454 57.8611 47.592C55.7589 48.3386 53.6769 48.9932 51.5848 49.7398C49.4927 50.4864 47.4916 51.2739 45.3995 52.1126C43.3074 52.9513 41.3568 53.7797 39.3355 54.6695L36.3034 56.0093L33.2714 57.4105C31.2972 58.3514 29.2995 59.3265 27.2781 60.3356C25.3073 61.3584 23.3668 62.3811 21.4364 63.4039C19.5061 64.4266 17.5757 65.5415 15.6756 66.6869C13.7755 67.8324 11.9361 68.9882 10.0967 70.195C9.16687 70.7984 8.24716 71.4121 7.33756 72.0462C6.42795 72.6803 5.48803 73.2633 4.59863 73.969L7.80247 73.1406L10.9962 72.2917L17.323 70.5121L23.6195 68.7018L29.8756 66.8608L42.317 63.1789L54.7179 59.589L60.9133 57.9219C62.9347 57.3389 65.0268 56.8071 67.0885 56.2752C69.1503 55.7434 71.2121 55.1911 73.2739 54.7206L79.4491 53.299C81.5109 52.8694 83.5693 52.4671 85.6243 52.0921C86.635 51.8774 87.6456 51.7137 88.6563 51.5603C89.667 51.4069 90.6777 51.2228 91.6883 51.1103C92.5373 51.008 93.3863 50.8751 94.2352 50.783L94.7507 50.7216C95.7613 50.6296 96.772 50.5171 97.7827 50.4455L99.3492 50.3637C99.2482 51.1001 99.1774 51.8467 99.0157 52.5831L98.8136 53.7899C98.7226 54.1888 98.6215 54.5877 98.5205 54.9866L98.2375 56.1934L97.8534 57.3798C97.7221 57.7787 97.6008 58.1776 97.4795 58.5764L97.3481 58.9446C97.247 59.2106 97.1359 59.4765 97.0348 59.7526L96.5699 60.9288L96.3374 61.522L96.0645 62.0947C95.6906 62.8516 95.3369 63.6289 94.9629 64.4062L93.6794 66.646C93.255 67.4078 92.7894 68.1454 92.2846 68.8552C91.7793 69.5711 91.2739 70.328 90.7888 71.0235L89.1414 73.069C88.8584 73.4167 88.6058 73.7951 88.3026 74.0917L87.393 75.1145L85.5839 77.16C84.9573 77.8248 84.2902 78.4487 83.6434 79.1033C82.9965 79.7578 82.3194 80.392 81.622 81.0772C82.471 80.7192 83.3099 80.3408 84.1588 79.9419C85.0078 79.5431 85.8871 79.1953 86.6956 78.7351L89.1212 77.293L90.334 76.5566C90.7383 76.3009 91.1123 76.0043 91.4963 75.7282L93.9826 73.9997C94.7507 73.4167 95.4177 72.7212 96.1454 72.0871C96.8786 71.4474 97.5738 70.7644 98.2274 70.0416L100.188 67.8427C100.784 67.0654 101.391 66.2778 101.967 65.4699L102.412 64.8664L102.806 64.2323L103.594 62.9641C103.857 62.5345 104.14 62.1152 104.372 61.6652L105.06 60.3254L105.737 58.9651L106.323 57.5537C106.515 57.0832 106.717 56.6127 106.899 56.132L107.394 54.6797C107.738 53.7081 107.96 52.6956 108.223 51.683C108.354 51.1819 108.435 50.6603 108.546 50.1489C108.658 49.6375 108.738 49.1261 108.799 48.5738C108.86 48.0215 108.951 47.5511 108.991 46.9476C108.991 46.6715 108.991 46.4056 108.991 46.0988C108.991 45.7919 109.011 45.5465 108.991 45.076Z" fill="#FAFAFA"/>
<path d="M22.9628 54.3831C23.8522 53.6263 24.782 52.9206 25.6815 52.1944C26.581 51.4682 27.5007 50.7625 28.4305 50.0773L31.1998 48.0318C32.1498 47.367 33.0594 46.6817 34.0095 45.9862C34.9595 45.2908 35.8893 44.6669 36.8495 44.0328L39.7097 42.1304C41.6299 40.8929 43.5603 39.6656 45.521 38.4894C46.5317 37.886 47.4817 37.303 48.4722 36.7302L51.4436 35.012L54.4756 33.3449L57.5076 31.7289C58.5183 31.1869 59.5289 30.7062 60.5396 30.1539L62.561 29.1823C63.3493 29.6936 64.1275 30.205 64.9259 30.7164C66.1691 31.4937 67.4223 32.2608 68.6958 32.9972C69.9692 33.7335 71.2629 34.4699 72.5666 35.1654C73.8704 35.8609 75.1944 36.5359 76.6093 37.1393C75.6795 35.9427 74.689 34.8279 73.6986 33.7131C72.7081 32.5983 71.6772 31.5346 70.6666 30.4812C69.6559 29.4277 68.5846 28.4356 67.5133 27.4129C66.442 26.3901 65.3807 25.3674 64.2892 24.406L63.3796 23.5775L61.9344 24.048C60.7114 24.4469 59.63 24.856 58.4981 25.2958C57.3661 25.7356 56.2746 26.206 55.1831 26.6765C54.0915 27.147 53.0101 27.6993 51.9287 28.2004C50.8473 28.7016 49.7962 29.2232 48.7451 29.8368C47.694 30.4505 46.653 30.9925 45.612 31.596C44.571 32.1994 43.5906 32.8335 42.58 33.4779C41.5693 34.1222 40.5586 34.7972 39.548 35.4722L38.0825 36.495L36.6473 37.5791C35.6872 38.2951 34.7372 39.0315 33.8174 39.8088C32.8977 40.5861 31.978 41.3429 31.0886 42.1611C30.1992 42.9793 29.2997 43.7975 28.3901 44.626C27.4805 45.4544 26.7023 46.3238 25.9039 47.2238C25.1054 48.1238 24.3171 49.0341 23.5389 49.9443C22.7607 50.8546 22.033 51.8364 21.3457 52.8081C20.992 53.299 20.6383 53.8308 20.3351 54.2808L19.3244 55.7945C18.9909 56.2957 18.6776 56.8173 18.3946 57.3389C18.1116 57.8605 17.7983 58.3617 17.5254 58.914C18.4552 58.1571 19.3345 57.3696 20.2441 56.6127C21.1537 55.8559 22.0532 55.1195 22.9628 54.3831Z" fill="#FAFAFA"/>
<path d="M93.4064 33.7641C95.7816 33.3044 98.1943 33.0716 100.613 33.0686C102.425 33.0733 104.235 33.2032 106.03 33.4572C100.295 20.7852 90.1116 10.7218 77.4569 5.22058C64.8021 -0.280632 50.5789 -0.827086 37.5484 3.68732C24.5179 8.20172 13.6099 17.4549 6.94214 29.6503C0.274351 41.8458 -1.67751 56.1135 1.4655 69.6835C4.471 66.7732 7.90855 64.3574 11.6531 62.5241C11.4133 60.6587 11.2885 58.78 11.2791 56.8989C11.2646 47.1093 14.4222 37.5849 20.2682 29.785C26.1143 21.9851 34.3262 16.34 43.6458 13.7147C52.9654 11.0895 62.8785 11.6288 71.8662 15.2501C80.8539 18.8714 88.4205 25.3749 93.4064 33.7641Z" fill="url(#paint0_linear_247_1507)"/>
</g>
<defs>
<linearGradient id="paint0_linear_247_1507" x1="8.5" y1="51.037" x2="123.151" y2="36.0955" gradientUnits="userSpaceOnUse">
<stop stop-color="#939393"/>
<stop offset="0.369792" stop-color="#E9E9E9" stop-opacity="0.630208"/>
<stop offset="1" stop-color="#939393"/>
</linearGradient>
<clipPath id="clip0_247_1507">
<rect width="109" height="102" fill="white" transform="translate(0 0.657623)"/>
</clipPath>
</defs>
</svg>
