<svg width="1920" height="2080" viewBox="0 0 1920 2080" fill="none" xmlns="http://www.w3.org/2000/svg">
<g opacity="0.4">
<path fill-rule="evenodd" clip-rule="evenodd" d="M1413.05 580.473C1545.68 748.406 1802.88 609.737 1752.71 930.787C1702.54 1251.84 1296.85 1450.91 1033.49 1301.53C770.128 1152.15 669.498 1073.95 570.9 1116.35C472.303 1158.74 229.5 1216.09 148.728 1077.9C67.9561 939.702 61.7229 838.836 255.407 732.216C449.091 625.595 583.469 622.519 680.164 630.071C776.858 637.624 919.15 282.39 1122.12 304.961C1325.09 327.531 1280.43 412.539 1413.05 580.473Z" stroke="url(#paint0_linear_6_1770)" stroke-width="1.82402"/>
<path opacity="0.985714" fill-rule="evenodd" clip-rule="evenodd" d="M1406.3 572.918C1541.76 738.431 1796.31 595.418 1751.83 917.093C1707.35 1238.77 1305.49 1444.71 1039.73 1299.99C773.964 1155.28 672.043 1078.89 574.274 1122.95C476.505 1167.02 234.915 1228.53 151.781 1091.83C68.6461 955.14 60.6442 854.458 252.29 744.568C443.936 634.678 578.148 629.28 674.894 635.155C771.639 641.029 907.564 283.603 1110.76 302.646C1313.96 321.689 1270.83 407.405 1406.3 572.918Z" stroke="url(#paint1_linear_6_1770)" stroke-width="1.82402"/>
<path opacity="0.971429" fill-rule="evenodd" clip-rule="evenodd" d="M1399.41 565.488C1537.68 728.533 1789.49 581.227 1750.71 903.426C1711.93 1225.63 1314.03 1438.36 1045.94 1298.35C777.853 1158.35 674.674 1083.77 577.762 1129.5C480.85 1175.22 240.543 1240.86 155.074 1105.7C69.6049 970.553 59.8389 870.086 249.392 756.965C438.945 643.845 572.949 636.13 669.717 640.327C766.485 644.524 896.01 285.018 1099.37 300.533C1302.73 316.047 1261.15 402.444 1399.41 565.488Z" stroke="url(#paint2_linear_6_1770)" stroke-width="1.82402"/>
<path opacity="0.957143" fill-rule="evenodd" clip-rule="evenodd" d="M1392.41 558.186C1533.43 718.714 1782.44 567.167 1749.36 889.79C1716.27 1212.41 1322.45 1431.86 1052.12 1296.6C781.793 1161.34 677.387 1088.6 581.36 1135.97C485.333 1183.33 246.381 1253.08 158.605 1119.51C70.8299 985.935 59.3048 885.714 246.71 769.402C434.116 653.091 567.873 643.065 664.635 645.585C761.396 648.105 884.489 286.636 1087.95 298.622C1291.42 310.608 1251.39 397.658 1392.41 558.186Z" stroke="url(#paint3_linear_6_1770)" stroke-width="1.82402"/>
<path opacity="0.942857" fill-rule="evenodd" clip-rule="evenodd" d="M1385.28 551.014C1529 708.98 1775.15 553.244 1747.76 876.19C1720.38 1199.14 1330.75 1425.22 1058.26 1294.74C785.779 1164.26 680.181 1093.38 585.066 1142.37C489.951 1191.36 252.424 1265.18 162.372 1133.23C72.3189 1001.28 59.0403 901.339 244.245 781.877C429.449 662.415 562.919 650.083 659.645 650.929C756.371 651.774 873.003 288.455 1076.51 296.914C1280.02 305.373 1241.55 393.048 1385.28 551.014Z" stroke="url(#paint4_linear_6_1770)" stroke-width="1.82402"/>
<path opacity="0.928571" fill-rule="evenodd" clip-rule="evenodd" d="M1378.03 543.971C1524.42 699.33 1767.62 539.459 1745.94 862.628C1724.27 1185.8 1338.93 1418.45 1064.37 1292.77C789.816 1167.1 683.057 1098.11 588.882 1148.71C494.708 1199.3 258.674 1277.17 166.374 1146.88C74.0745 1016.59 59.0486 916.955 241.999 794.383C424.95 671.812 558.093 657.183 654.755 656.355C751.416 655.527 861.561 290.475 1065.05 295.408C1268.54 300.342 1231.65 388.613 1378.03 543.971Z" stroke="url(#paint5_linear_6_1770)" stroke-width="1.82402"/>
<path opacity="0.914286" fill-rule="evenodd" clip-rule="evenodd" d="M1370.67 537.063C1519.67 689.769 1759.86 525.818 1743.88 849.109C1727.91 1172.4 1346.98 1411.53 1070.43 1290.7C793.893 1169.88 686.008 1102.78 592.8 1154.97C499.593 1207.15 265.122 1289.04 170.605 1160.45C76.0887 1031.86 59.3222 932.558 239.967 806.92C420.612 681.282 553.389 664.362 649.956 661.863C746.524 659.365 850.156 292.694 1053.57 294.106C1256.98 295.517 1221.67 384.357 1370.67 537.063Z" stroke="url(#paint6_linear_6_1770)" stroke-width="1.82402"/>
<path opacity="0.9" fill-rule="evenodd" clip-rule="evenodd" d="M1363.19 530.289C1514.76 680.298 1751.87 512.325 1741.6 835.636C1731.32 1158.95 1354.91 1404.47 1076.47 1288.52C798.022 1172.57 689.044 1107.4 596.831 1161.16C504.617 1214.91 271.778 1300.79 175.075 1173.93C78.3728 1047.07 59.8728 948.143 238.16 819.48C416.448 690.818 548.819 671.616 645.265 667.451C741.71 663.285 838.807 295.112 1042.08 293.006C1245.35 290.899 1211.63 380.28 1363.19 530.289Z" stroke="url(#paint7_linear_6_1770)" stroke-width="1.82402"/>
<path opacity="0.885714" fill-rule="evenodd" clip-rule="evenodd" d="M1355.6 523.657C1509.68 670.926 1743.64 498.988 1739.07 822.219C1734.49 1145.45 1362.7 1397.29 1082.44 1286.25C802.185 1175.2 692.149 1111.96 600.955 1167.27C509.762 1222.58 278.621 1312.41 179.765 1187.33C80.909 1062.24 60.6833 963.709 236.563 832.067C412.443 700.425 544.37 678.95 640.664 673.121C736.958 667.291 827.499 297.732 1030.57 292.113C1233.64 286.495 1201.52 376.387 1355.6 523.657Z" stroke="url(#paint8_linear_6_1770)" stroke-width="1.82402"/>
<path opacity="0.871429" fill-rule="evenodd" clip-rule="evenodd" d="M1347.91 517.159C1504.46 661.647 1735.21 485.802 1736.32 808.853C1737.43 1131.91 1370.37 1389.97 1088.39 1283.86C806.399 1177.75 695.339 1116.46 605.191 1173.3C515.044 1230.14 285.67 1323.9 184.693 1200.62C83.7149 1077.35 61.7717 979.245 235.194 844.668C408.616 710.091 540.059 686.352 636.174 678.863C732.288 671.373 816.253 300.545 1019.06 291.42C1221.87 282.296 1191.36 372.671 1347.91 517.159Z" stroke="url(#paint9_linear_6_1770)" stroke-width="1.82402"/>
<path opacity="0.857143" fill-rule="evenodd" clip-rule="evenodd" d="M1340.1 510.804C1499.07 652.469 1726.54 472.776 1733.34 795.548C1740.14 1118.32 1377.91 1382.52 1094.28 1281.37C810.652 1180.22 698.602 1120.91 609.526 1179.26C520.451 1237.61 292.91 1335.26 189.844 1213.83C86.7774 1092.4 63.1256 994.751 234.042 857.284C404.958 719.818 535.879 693.826 631.784 684.681C727.69 675.535 805.064 303.555 1007.55 290.932C1210.03 278.308 1181.14 369.138 1340.1 510.804Z" stroke="url(#paint10_linear_6_1770)" stroke-width="1.82402"/>
<path opacity="0.842857" fill-rule="evenodd" clip-rule="evenodd" d="M1332.2 504.593C1493.53 643.395 1717.66 459.916 1730.13 782.308C1742.6 1104.7 1385.31 1374.95 1100.13 1278.78C814.942 1182.62 701.937 1125.29 613.959 1185.13C525.981 1244.98 300.338 1346.48 195.217 1226.93C90.0961 1107.38 64.745 1010.22 233.107 869.913C401.469 729.603 531.829 701.37 627.497 690.574C723.166 679.778 793.934 306.762 996.036 290.649C1198.14 274.535 1170.86 365.791 1332.2 504.593Z" stroke="url(#paint11_linear_6_1770)" stroke-width="1.82402"/>
<path opacity="0.828571" fill-rule="evenodd" clip-rule="evenodd" d="M1324.19 498.52C1487.84 634.419 1708.57 447.216 1726.7 769.128C1744.83 1091.04 1392.58 1367.24 1105.93 1276.09C819.276 1184.93 705.351 1129.6 618.495 1190.92C531.64 1252.24 307.96 1357.55 200.819 1239.92C93.6769 1122.29 66.6364 1025.65 232.397 882.541C398.158 739.436 527.918 708.972 623.321 696.531C718.725 684.09 782.874 310.156 984.533 290.562C1186.19 270.968 1160.54 362.621 1324.19 498.52Z" stroke="url(#paint12_linear_6_1770)" stroke-width="1.82402"/>
<path opacity="0.814286" fill-rule="evenodd" clip-rule="evenodd" d="M1316.08 492.6C1482 625.558 1699.25 434.693 1723.04 756.027C1746.82 1077.36 1399.7 1359.43 1111.67 1273.3C823.639 1187.18 708.829 1133.86 623.121 1196.63C537.412 1259.4 315.761 1368.5 206.633 1252.81C97.5058 1137.13 68.7862 1041.03 231.899 895.18C395.012 749.327 524.135 716.644 619.245 702.564C714.354 688.484 771.874 313.75 973.031 290.685C1174.19 267.621 1150.17 359.642 1316.08 492.6Z" stroke="url(#paint13_linear_6_1770)" stroke-width="1.82402"/>
<path opacity="0.8" fill-rule="evenodd" clip-rule="evenodd" d="M1307.88 486.822C1476 616.801 1689.74 422.338 1719.15 742.994C1748.57 1063.65 1406.69 1351.48 1117.36 1270.41C828.041 1189.34 712.383 1138.05 627.845 1202.25C543.307 1266.44 323.748 1379.28 212.67 1265.58C101.592 1151.88 71.2041 1056.36 231.624 907.811C392.044 759.259 520.492 724.372 615.28 708.659C710.068 692.947 760.95 317.528 961.545 291.006C1162.14 264.483 1139.76 356.842 1307.88 486.822Z" stroke="url(#paint14_linear_6_1770)" stroke-width="1.82402"/>
<path opacity="0.785714" fill-rule="evenodd" clip-rule="evenodd" d="M1299.59 481.195C1469.87 608.159 1680.01 410.163 1715.05 730.043C1750.08 1049.92 1413.52 1343.43 1123 1267.42C832.476 1191.42 716.005 1142.18 632.662 1207.78C549.318 1273.38 331.914 1389.93 218.922 1278.24C105.929 1166.55 73.8846 1071.64 231.567 920.44C389.25 769.239 516.984 732.16 611.422 714.822C705.861 697.483 750.099 321.499 950.072 291.53C1150.04 261.562 1129.31 354.231 1299.59 481.195Z" stroke="url(#paint15_linear_6_1770)" stroke-width="1.82402"/>
<path opacity="0.771429" fill-rule="evenodd" clip-rule="evenodd" d="M1291.2 475.721C1463.58 599.634 1670.08 398.171 1710.72 717.176C1751.36 1036.18 1420.22 1335.26 1128.58 1264.34C836.943 1193.42 719.695 1146.24 637.57 1213.23C555.445 1280.22 340.258 1400.42 225.388 1290.78C110.518 1181.14 76.8277 1086.86 231.729 933.063C386.631 779.263 513.615 740.006 607.675 721.05C701.736 702.093 739.326 325.66 938.618 292.259C1137.91 258.858 1118.82 351.808 1291.2 475.721Z" stroke="url(#paint16_linear_6_1770)" stroke-width="1.82402"/>
<path opacity="0.757143" fill-rule="evenodd" clip-rule="evenodd" d="M1282.73 470.396C1457.16 591.223 1659.95 386.361 1706.17 704.392C1752.39 1022.42 1426.77 1326.97 1134.1 1261.16C841.439 1195.35 723.451 1150.23 642.567 1218.58C561.683 1286.93 348.774 1410.75 232.063 1303.19C115.352 1195.63 80.0291 1102.02 232.107 945.671C384.185 789.322 510.381 747.903 604.037 727.336C697.692 706.769 728.632 330.005 927.184 293.186C1125.74 256.367 1108.3 349.568 1282.73 470.396Z" stroke="url(#paint17_linear_6_1770)" stroke-width="1.82402"/>
<path opacity="0.742857" fill-rule="evenodd" clip-rule="evenodd" d="M1274.17 465.227C1450.59 582.935 1649.63 374.74 1701.41 691.702C1753.19 1008.66 1433.17 1318.58 1139.57 1257.89C845.97 1197.19 727.277 1154.15 647.657 1223.84C568.037 1293.54 357.468 1420.93 238.953 1315.48C120.439 1210.03 83.4963 1117.11 232.709 958.265C381.921 799.42 507.293 755.854 600.516 733.685C693.739 711.516 718.028 334.538 915.782 294.317C1113.54 254.096 1097.75 347.519 1274.17 465.227Z" stroke="url(#paint18_linear_6_1770)" stroke-width="1.82402"/>
<path opacity="0.728571" fill-rule="evenodd" clip-rule="evenodd" d="M1265.53 460.209C1443.89 574.765 1639.12 363.306 1696.43 679.1C1753.74 994.893 1439.42 1310.08 1144.97 1254.51C850.525 1198.95 731.166 1158 652.831 1229.01C574.496 1300.02 366.327 1430.95 246.047 1327.64C125.767 1224.33 87.2184 1132.12 233.525 970.835C379.831 809.545 504.342 763.848 597.105 740.086C689.868 716.324 707.508 339.25 904.406 295.644C1101.3 252.037 1087.17 345.653 1265.53 460.209Z" stroke="url(#paint19_linear_6_1770)" stroke-width="1.82402"/>
<path opacity="0.714286" fill-rule="evenodd" clip-rule="evenodd" d="M1256.81 455.35C1437.05 566.722 1628.41 352.07 1691.23 666.599C1754.06 981.128 1445.51 1301.48 1150.3 1251.05C855.103 1200.63 735.113 1161.78 658.086 1234.08C581.059 1306.39 375.347 1440.8 253.341 1339.66C131.334 1238.52 91.193 1147.06 234.553 983.385C377.914 819.704 501.528 771.893 593.803 746.547C686.078 721.201 697.075 344.148 893.058 297.174C1089.04 250.199 1076.57 343.979 1256.81 455.35Z" stroke="url(#paint20_linear_6_1770)" stroke-width="1.82402"/>
<path opacity="0.7" fill-rule="evenodd" clip-rule="evenodd" d="M1248.01 450.645C1430.07 558.803 1617.52 341.027 1685.83 654.196C1754.14 967.365 1451.45 1292.78 1155.58 1247.5C859.711 1202.22 739.127 1165.48 663.428 1239.06C587.73 1312.63 384.535 1450.49 260.841 1351.55C137.147 1252.61 95.4274 1161.92 235.803 995.903C376.178 829.885 498.86 779.978 590.621 753.058C682.382 726.137 686.74 349.222 881.751 298.898C1076.76 248.575 1065.95 342.488 1248.01 450.645Z" stroke="url(#paint21_linear_6_1770)" stroke-width="1.82402"/>
<path opacity="0.685714" fill-rule="evenodd" clip-rule="evenodd" d="M1239.14 446.1C1422.98 551.013 1606.46 330.185 1680.22 641.898C1753.98 953.611 1457.24 1283.97 1160.79 1243.86C864.347 1203.74 743.205 1169.12 668.857 1243.93C594.508 1318.75 393.887 1460.01 268.545 1363.29C143.203 1266.58 99.92 1176.69 237.273 1008.39C374.625 840.091 496.339 788.105 587.558 759.621C678.778 731.137 676.506 354.476 870.488 300.823C1064.47 247.169 1055.31 341.188 1239.14 446.1Z" stroke="url(#paint22_linear_6_1770)" stroke-width="1.82402"/>
<path opacity="0.671429" fill-rule="evenodd" clip-rule="evenodd" d="M1230.2 441.716C1415.74 543.356 1595.2 319.548 1674.39 629.71C1753.58 939.872 1462.86 1275.08 1165.93 1240.13C868.994 1205.17 747.333 1172.67 674.354 1248.71C601.375 1324.75 403.386 1469.36 276.435 1374.89C149.485 1280.43 104.654 1191.38 238.947 1020.85C373.24 850.318 493.95 796.272 584.602 766.234C675.254 736.197 666.362 359.907 859.258 302.945C1052.15 245.982 1044.66 340.076 1230.2 441.716Z" stroke="url(#paint23_linear_6_1770)" stroke-width="1.82402"/>
<path opacity="0.657143" fill-rule="evenodd" clip-rule="evenodd" d="M1221.19 437.491C1408.38 535.83 1583.78 309.115 1668.36 617.632C1752.94 926.149 1468.33 1266.09 1171 1236.3C873.67 1206.52 751.527 1176.16 679.938 1253.39C608.349 1330.63 413.046 1478.53 284.528 1386.35C156.01 1294.17 109.646 1205.97 240.844 1033.26C372.041 860.561 491.713 804.473 581.77 772.894C671.828 741.314 656.329 365.512 848.083 305.262C1039.84 245.012 1034 339.153 1221.19 437.491Z" stroke="url(#paint24_linear_6_1770)" stroke-width="1.82402"/>
<path opacity="0.642857" fill-rule="evenodd" clip-rule="evenodd" d="M1212.12 433.428C1400.9 528.439 1572.19 298.89 1662.13 605.668C1752.07 912.447 1473.64 1257.01 1176 1232.4C878.363 1207.79 755.775 1179.57 685.596 1257.97C615.416 1336.38 422.854 1487.52 292.81 1397.65C162.765 1307.77 114.885 1220.45 242.952 1045.64C371.019 870.817 489.618 812.708 579.055 779.598C668.492 746.488 646.4 371.289 836.956 307.774C1027.51 244.259 1023.33 338.416 1212.12 433.428Z" stroke="url(#paint25_linear_6_1770)" stroke-width="1.82402"/>
<path opacity="0.628571" fill-rule="evenodd" clip-rule="evenodd" d="M1202.98 429.528C1393.29 521.186 1560.42 288.878 1655.69 593.824C1750.96 898.77 1478.78 1247.84 1180.93 1228.41C883.073 1208.97 760.078 1182.9 691.327 1262.44C622.575 1341.99 432.808 1496.34 301.279 1408.8C169.749 1321.25 120.368 1234.84 245.271 1057.96C370.174 881.084 487.666 820.974 576.457 786.346C665.248 751.717 636.578 377.237 825.881 310.48C1015.18 243.724 1012.66 337.869 1202.98 429.528Z" stroke="url(#paint26_linear_6_1770)" stroke-width="1.82402"/>
<path opacity="0.614286" fill-rule="evenodd" clip-rule="evenodd" d="M1193.78 425.791C1385.57 514.072 1548.5 279.08 1649.06 582.102C1749.61 885.124 1483.77 1238.59 1185.78 1224.33C887.8 1210.07 764.435 1186.15 697.131 1266.82C629.827 1347.48 442.908 1504.98 309.934 1419.79C176.961 1334.6 126.098 1249.12 247.803 1070.24C369.509 891.359 485.861 829.269 573.98 793.135C662.098 757 626.87 383.354 814.864 313.38C1002.86 243.406 1001.99 337.511 1193.78 425.791Z" stroke="url(#paint27_linear_6_1770)" stroke-width="1.82402"/>
<path opacity="0.6" fill-rule="evenodd" clip-rule="evenodd" d="M1184.53 422.218C1377.73 507.098 1536.41 269.498 1642.22 570.503C1748.03 871.509 1488.58 1229.26 1190.56 1220.17C892.541 1211.08 768.844 1189.32 703.004 1271.08C637.165 1352.84 453.146 1513.43 318.771 1430.62C184.397 1347.81 132.068 1263.29 250.545 1082.46C369.021 901.637 484.199 837.589 571.62 799.961C659.041 762.334 617.275 389.636 803.905 316.471C990.535 243.305 991.322 337.339 1184.53 422.218Z" stroke="url(#paint28_linear_6_1770)" stroke-width="1.82402"/>
<path opacity="0.585714" fill-rule="evenodd" clip-rule="evenodd" d="M1175.21 418.812C1369.77 500.268 1524.17 260.135 1635.19 559.034C1746.21 857.933 1493.23 1219.85 1195.26 1215.93C897.29 1212.02 773.298 1192.41 708.942 1275.24C644.585 1358.07 463.517 1521.69 327.783 1441.29C192.05 1360.88 138.274 1277.35 253.491 1094.63C368.707 911.918 482.679 845.933 569.377 806.826C656.075 767.718 607.793 396.084 793.006 319.752C978.219 243.421 980.656 337.356 1175.21 418.812Z" stroke="url(#paint29_linear_6_1770)" stroke-width="1.82402"/>
<path opacity="0.571429" fill-rule="evenodd" clip-rule="evenodd" d="M1165.86 415.571C1361.71 493.582 1511.78 250.995 1627.97 547.697C1744.16 844.399 1497.72 1210.37 1199.89 1211.62C902.062 1212.86 777.813 1195.43 714.957 1279.29C652.1 1363.16 474.033 1529.77 336.983 1451.79C199.934 1373.81 144.73 1291.28 256.656 1106.74C368.583 922.196 481.316 854.297 567.266 813.724C653.216 773.15 598.443 402.693 782.184 323.223C965.926 243.753 970.011 337.56 1165.86 415.571Z" stroke="url(#paint30_linear_6_1770)" stroke-width="1.82402"/>
<path opacity="0.557143" fill-rule="evenodd" clip-rule="evenodd" d="M1156.46 412.496C1353.54 487.042 1499.25 242.079 1620.56 536.494C1741.88 830.91 1502.03 1200.81 1204.43 1207.22C906.839 1213.62 782.372 1198.36 721.032 1283.23C659.691 1368.11 484.674 1537.66 346.352 1462.12C208.03 1386.59 151.416 1305.09 260.024 1118.78C368.633 932.469 480.094 862.68 565.271 820.655C650.449 778.629 589.211 409.462 771.428 326.882C953.645 244.301 959.375 337.951 1156.46 412.496Z" stroke="url(#paint31_linear_6_1770)" stroke-width="1.82402"/>
<path opacity="0.542857" fill-rule="evenodd" clip-rule="evenodd" d="M1147.01 409.589C1345.26 480.651 1486.57 233.388 1612.97 525.429C1739.36 817.47 1506.18 1191.19 1208.9 1202.75C911.625 1214.3 786.977 1201.21 727.169 1287.07C667.361 1372.93 495.442 1545.35 355.891 1472.28C216.34 1399.22 158.334 1318.78 263.597 1130.76C368.859 942.734 479.018 871.078 563.398 827.615C647.779 784.153 580.104 416.388 760.744 330.726C941.385 245.065 948.754 338.528 1147.01 409.589Z" stroke="url(#paint32_linear_6_1770)" stroke-width="1.82402"/>
<path opacity="0.528571" fill-rule="evenodd" clip-rule="evenodd" d="M1137.51 406.851C1336.88 474.409 1473.75 224.928 1605.18 514.506C1736.62 804.084 1510.15 1181.5 1213.28 1198.2C916.415 1214.89 791.624 1203.97 733.365 1290.79C675.105 1377.61 506.331 1552.85 365.595 1482.27C224.859 1411.69 165.482 1332.33 267.372 1142.66C369.262 952.988 478.087 879.489 561.646 834.604C645.205 789.719 571.124 423.47 750.135 334.757C929.147 246.043 938.151 339.292 1137.51 406.851Z" stroke="url(#paint33_linear_6_1770)" stroke-width="1.82402"/>
<path opacity="0.514286" fill-rule="evenodd" clip-rule="evenodd" d="M1127.99 404.28C1328.4 468.319 1460.8 216.697 1597.22 503.726C1733.65 790.755 1513.96 1171.74 1217.59 1193.57C921.221 1215.4 796.325 1206.65 739.628 1294.4C682.932 1382.15 517.35 1560.15 375.472 1492.08C233.595 1424.01 172.868 1345.75 271.36 1154.49C369.852 963.227 477.311 887.91 560.025 841.618C642.739 795.327 562.284 430.704 739.615 338.97C916.947 247.235 927.58 340.241 1127.99 404.28Z" stroke="url(#paint34_linear_6_1770)" stroke-width="1.82402"/>
<path opacity="0.5" fill-rule="evenodd" clip-rule="evenodd" d="M1118.42 401.878C1319.81 462.382 1447.71 208.7 1589.07 493.094C1730.44 777.487 1517.58 1161.93 1221.8 1188.88C926.02 1215.83 801.056 1209.25 745.938 1297.9C690.82 1386.55 528.473 1567.26 385.5 1501.71C242.527 1436.16 180.468 1359.03 275.538 1166.24C370.607 973.449 476.672 896.339 558.517 848.656C640.362 800.974 553.566 438.088 729.167 343.365C904.768 248.641 917.025 341.375 1118.42 401.878Z" stroke="url(#paint35_linear_6_1770)" stroke-width="1.82402"/>
<path opacity="0.485714" fill-rule="evenodd" clip-rule="evenodd" d="M1108.82 399.649C1311.14 456.602 1434.5 200.941 1580.75 482.614C1727.01 764.287 1521.04 1152.06 1225.93 1184.11C930.828 1216.17 805.835 1211.77 752.309 1301.29C698.783 1390.81 539.717 1574.16 395.692 1511.16C251.668 1448.15 188.299 1372.17 279.923 1177.91C371.547 983.653 476.187 904.776 557.139 855.718C638.092 806.661 544.993 445.623 718.812 347.943C892.631 250.263 906.506 342.696 1108.82 399.649Z" stroke="url(#paint36_linear_6_1770)" stroke-width="1.82402"/>
<path opacity="0.471429" fill-rule="evenodd" clip-rule="evenodd" d="M1099.2 397.586C1302.37 450.974 1421.17 193.415 1572.26 472.284C1723.35 751.153 1524.32 1142.13 1229.98 1179.28C935.637 1216.42 810.652 1214.19 758.732 1304.56C706.812 1394.92 551.069 1580.86 406.038 1520.41C261.007 1459.97 196.35 1385.16 284.506 1189.49C372.661 993.83 475.847 913.211 555.884 862.796C635.922 812.38 536.557 453.299 708.545 352.696C880.533 252.092 896.019 344.197 1099.2 397.586Z" stroke="url(#paint37_linear_6_1770)" stroke-width="1.82402"/>
<path opacity="0.457143" fill-rule="evenodd" clip-rule="evenodd" d="M1089.54 395.698C1293.52 445.51 1407.71 186.133 1563.59 462.115C1719.47 738.097 1527.42 1132.16 1233.93 1174.37C940.443 1216.59 815.504 1216.54 765.203 1307.72C714.902 1398.9 562.523 1587.36 416.532 1529.49C270.54 1471.62 204.616 1398 289.282 1200.99C373.949 1003.98 475.651 921.652 554.751 869.896C633.85 818.139 528.259 461.124 698.367 357.63C868.475 254.137 885.565 345.886 1089.54 395.698Z" stroke="url(#paint38_linear_6_1770)" stroke-width="1.82402"/>
<path opacity="0.442857" fill-rule="evenodd" clip-rule="evenodd" d="M1079.86 393.976C1284.57 440.199 1394.15 179.088 1554.75 452.1C1715.36 725.113 1530.35 1122.13 1237.8 1169.4C945.249 1216.68 820.393 1218.79 771.724 1310.76C723.055 1402.72 574.082 1593.65 427.175 1538.37C280.268 1483.09 213.099 1410.68 294.256 1212.4C375.413 1014.11 475.604 930.086 553.743 877.006C631.882 823.925 520.108 469.083 688.287 362.736C856.466 256.388 875.152 347.753 1079.86 393.976Z" stroke="url(#paint39_linear_6_1770)" stroke-width="1.82402"/>
<path opacity="0.428571" fill-rule="evenodd" clip-rule="evenodd" d="M1070.16 392.427C1275.54 435.051 1380.47 172.286 1545.75 442.249C1711.03 712.212 1533.1 1112.06 1241.58 1164.37C950.05 1216.68 825.315 1220.96 778.29 1313.68C731.265 1406.4 585.736 1599.74 437.96 1547.06C290.184 1494.38 221.792 1423.21 299.421 1223.71C377.05 1024.2 475.702 938.517 552.858 884.131C630.014 829.744 512.1 477.182 678.303 368.016C844.505 258.85 864.779 349.803 1070.16 392.427Z" stroke="url(#paint40_linear_6_1770)" stroke-width="1.82402"/>
<path opacity="0.414286" fill-rule="evenodd" clip-rule="evenodd" d="M1060.45 391.049C1266.44 430.065 1366.69 165.73 1536.59 432.562C1706.49 699.395 1535.68 1101.95 1245.26 1159.27C954.85 1216.6 830.275 1223.04 784.905 1316.49C739.535 1409.94 597.49 1605.62 448.891 1555.56C300.292 1505.49 230.699 1435.58 304.782 1234.92C378.865 1034.25 475.95 946.94 552.102 891.266C628.254 835.591 504.245 485.416 668.424 373.468C832.604 261.519 854.457 352.033 1060.45 391.049Z" stroke="url(#paint41_linear_6_1770)" stroke-width="1.82402"/>
<path opacity="0.4" fill-rule="evenodd" clip-rule="evenodd" d="M1050.71 389.841C1257.25 425.24 1352.81 159.418 1527.26 423.041C1701.72 686.665 1538.07 1091.8 1248.86 1154.11C959.639 1216.43 835.26 1225.03 791.557 1319.18C747.853 1413.32 609.329 1611.28 459.954 1563.85C310.578 1516.42 239.808 1447.79 310.328 1246.03C380.848 1044.27 476.34 955.352 551.466 898.408C626.592 841.464 496.536 493.781 658.645 379.088C820.755 264.395 844.177 354.442 1050.71 389.841Z" stroke="url(#paint42_linear_6_1770)" stroke-width="1.82402"/>
<path opacity="0.385714" fill-rule="evenodd" clip-rule="evenodd" d="M1040.97 388.804C1247.99 420.58 1338.83 153.353 1517.79 413.69C1696.74 674.027 1540.29 1081.62 1252.36 1148.9C964.429 1216.17 840.283 1226.93 798.257 1321.75C756.23 1416.56 621.264 1616.74 471.158 1571.95C321.051 1527.16 249.128 1459.82 316.07 1257.03C383.012 1054.24 476.883 963.752 550.962 905.557C625.042 847.362 488.987 502.276 648.981 384.876C808.974 267.476 833.958 357.029 1040.97 388.804Z" stroke="url(#paint43_linear_6_1770)" stroke-width="1.82402"/>
<path opacity="0.371429" fill-rule="evenodd" clip-rule="evenodd" d="M1031.22 387.94C1238.66 416.086 1324.76 147.539 1508.15 404.513C1691.54 661.487 1542.33 1071.4 1255.77 1143.62C969.205 1215.84 845.331 1228.74 804.991 1324.2C764.652 1419.65 633.278 1621.98 482.488 1579.84C331.698 1537.71 258.644 1471.68 321.993 1267.93C385.343 1064.17 477.568 972.138 550.58 912.711C623.592 853.285 481.59 510.898 639.423 390.83C797.256 270.763 823.789 359.794 1031.22 387.94Z" stroke="url(#paint44_linear_6_1770)" stroke-width="1.82402"/>
<path opacity="0.357143" fill-rule="evenodd" clip-rule="evenodd" d="M1021.46 387.25C1229.25 411.761 1310.61 141.977 1498.37 395.513C1686.13 649.048 1544.19 1061.16 1259.08 1138.29C973.969 1215.42 850.403 1230.47 811.76 1326.53C773.117 1422.6 645.369 1627.01 493.943 1587.54C342.516 1548.06 268.356 1483.38 328.099 1278.72C387.842 1074.05 478.396 980.508 550.32 919.87C622.244 859.231 474.348 519.646 629.975 396.951C785.603 274.255 813.676 362.739 1021.46 387.25Z" stroke="url(#paint45_linear_6_1770)" stroke-width="1.82402"/>
<path opacity="0.342857" fill-rule="evenodd" clip-rule="evenodd" d="M1011.7 386.728C1219.78 407.6 1296.36 136.664 1488.43 386.686C1680.5 636.708 1545.86 1050.89 1262.29 1132.9C978.717 1214.92 855.496 1232.1 818.558 1328.74C781.621 1425.39 657.532 1631.83 505.516 1595.02C353.5 1558.22 278.258 1494.89 334.382 1289.39C390.507 1083.88 479.365 988.855 550.181 927.025C620.997 865.194 467.261 528.512 620.64 403.229C774.019 277.946 803.62 365.855 1011.7 386.728Z" stroke="url(#paint46_linear_6_1770)" stroke-width="1.82402"/>
<path opacity="0.328571" fill-rule="evenodd" clip-rule="evenodd" d="M1001.94 386.378C1210.25 403.609 1282.04 131.605 1478.36 378.041C1674.67 624.477 1547.36 1040.6 1265.41 1127.47C983.46 1214.34 860.62 1233.64 825.397 1330.83C790.173 1428.03 669.776 1636.42 517.217 1602.3C364.658 1568.18 288.359 1506.22 340.854 1299.94C393.349 1093.66 480.487 997.181 550.175 934.179C619.863 871.176 460.344 537.498 611.431 409.668C762.518 281.838 793.637 369.146 1001.94 386.378Z" stroke="url(#paint47_linear_6_1770)" stroke-width="1.82402"/>
<path opacity="0.314286" fill-rule="evenodd" clip-rule="evenodd" d="M992.189 386.199C1200.66 399.788 1267.65 126.8 1468.14 369.577C1668.63 612.355 1548.68 1030.28 1268.43 1121.98C988.187 1213.67 865.766 1235.09 832.265 1332.8C798.763 1430.52 682.087 1640.8 529.033 1609.37C375.978 1577.94 298.647 1517.37 347.502 1310.38C396.358 1103.39 481.753 1005.48 550.294 941.327C618.834 877.174 453.589 546.598 602.342 416.263C751.096 285.928 783.72 372.61 992.189 386.199Z" stroke="url(#paint48_linear_6_1770)" stroke-width="1.82402"/>
<path opacity="0.3" fill-rule="evenodd" clip-rule="evenodd" d="M982.439 386.19C1191.01 396.136 1253.19 122.248 1457.79 361.298C1662.39 600.347 1549.81 1019.95 1271.35 1116.44C992.896 1212.92 870.93 1236.45 839.158 1334.65C807.385 1432.85 694.46 1644.97 540.958 1616.23C387.455 1587.49 309.116 1528.33 354.324 1320.69C399.531 1113.05 483.159 1013.75 550.534 948.469C617.909 883.185 446.997 555.81 593.376 423.013C739.754 290.215 773.871 376.244 982.439 386.19Z" stroke="url(#paint49_linear_6_1770)" stroke-width="1.82402"/>
<path opacity="0.285714" fill-rule="evenodd" clip-rule="evenodd" d="M972.697 386.353C1181.3 392.656 1238.66 117.955 1447.3 353.206C1655.94 588.457 1550.76 1009.61 1274.17 1110.85C997.585 1212.09 876.111 1237.73 846.074 1336.38C816.037 1435.04 706.891 1648.91 552.988 1622.88C399.086 1596.84 319.765 1539.1 361.316 1330.87C402.868 1122.65 484.706 1022 550.896 955.603C617.087 889.21 440.571 565.133 584.533 429.916C728.496 294.7 764.092 380.05 972.697 386.353Z" stroke="url(#paint50_linear_6_1770)" stroke-width="1.82402"/>
<path opacity="0.271429" fill-rule="evenodd" clip-rule="evenodd" d="M962.971 386.687C1171.55 389.349 1224.07 113.918 1436.68 345.303C1649.29 576.688 1551.54 999.264 1276.9 1105.22C1002.26 1211.18 881.312 1238.91 853.018 1337.99C824.723 1437.07 719.383 1652.63 565.127 1629.31C410.871 1605.98 330.595 1549.67 368.484 1340.93C406.372 1132.19 486.399 1030.21 551.387 962.727C616.374 895.245 434.317 574.562 575.824 436.97C717.331 299.378 754.394 384.024 962.971 386.687Z" stroke="url(#paint51_linear_6_1770)" stroke-width="1.82402"/>
<path opacity="0.257143" fill-rule="evenodd" clip-rule="evenodd" d="M953.257 387.187C1161.74 386.212 1209.42 110.137 1425.93 337.589C1642.44 565.041 1552.13 988.904 1279.52 1099.54C1006.91 1210.18 886.526 1239.99 859.98 1339.47C833.433 1438.95 731.924 1656.14 577.363 1635.52C422.802 1614.9 341.596 1560.05 375.816 1350.86C410.037 1141.66 488.231 1038.38 551.998 969.834C615.765 901.286 428.231 584.092 567.243 444.169C706.255 304.246 744.771 388.163 953.257 387.187Z" stroke="url(#paint52_linear_6_1770)" stroke-width="1.82402"/>
<path opacity="0.242857" fill-rule="evenodd" clip-rule="evenodd" d="M943.561 387.86C1151.89 383.252 1194.73 106.617 1415.06 330.07C1635.39 553.524 1552.53 978.544 1282.04 1093.83C1011.54 1209.11 891.753 1240.99 866.959 1340.83C842.166 1440.67 744.513 1659.42 589.694 1641.52C434.876 1623.62 352.766 1570.23 383.314 1360.65C413.862 1151.06 490.203 1046.52 552.732 976.929C615.261 907.337 422.316 593.724 558.795 451.516C695.274 309.307 735.229 392.469 943.561 387.86Z" stroke="url(#paint53_linear_6_1770)" stroke-width="1.82402"/>
<path opacity="0.228571" fill-rule="evenodd" clip-rule="evenodd" d="M933.889 388.701C1142 380.464 1179.98 103.355 1404.07 322.745C1628.15 542.136 1552.76 968.182 1284.45 1088.07C1016.14 1207.96 896.994 1241.89 873.959 1342.07C850.923 1442.25 757.15 1662.48 602.121 1647.29C447.092 1632.11 364.106 1580.21 390.978 1370.3C417.85 1160.39 492.318 1054.62 553.591 984.005C614.865 913.391 416.578 603.453 550.487 459.004C684.395 314.555 725.774 396.939 933.889 388.701Z" stroke="url(#paint54_linear_6_1770)" stroke-width="1.82402"/>
<path opacity="0.214286" fill-rule="evenodd" clip-rule="evenodd" d="M924.245 389.709C1132.08 377.849 1165.2 100.351 1392.96 315.616C1620.72 530.881 1552.81 957.822 1286.77 1082.27C1020.73 1206.72 902.252 1242.7 880.978 1343.18C859.704 1443.66 769.833 1665.31 614.642 1652.85C459.45 1640.38 375.613 1589.98 398.808 1379.81C422.002 1169.64 494.576 1062.67 554.579 991.061C614.581 919.447 411.02 613.274 542.322 466.631C673.624 319.989 716.412 401.57 924.245 389.709Z" stroke="url(#paint55_linear_6_1770)" stroke-width="1.82402"/>
<path opacity="0.2" fill-rule="evenodd" clip-rule="evenodd" d="M914.622 390.885C1122.11 375.41 1150.38 97.6069 1381.74 308.685C1613.1 519.763 1552.68 947.468 1288.98 1076.44C1025.28 1205.41 907.511 1243.42 888.003 1344.17C868.494 1444.92 782.546 1667.92 627.24 1658.18C471.934 1648.44 387.274 1599.55 406.789 1389.18C426.305 1178.81 496.967 1070.68 555.682 998.094C614.396 925.504 405.633 623.185 534.292 474.396C662.951 325.607 707.133 406.36 914.622 390.885Z" stroke="url(#paint56_linear_6_1770)" stroke-width="1.82402"/>
<path opacity="0.185714" fill-rule="evenodd" clip-rule="evenodd" d="M905.027 392.232C1112.11 373.15 1135.51 95.1279 1370.4 301.959C1605.29 508.789 1552.36 937.127 1291.08 1070.57C1029.81 1204.02 912.775 1244.05 895.035 1345.04C877.295 1446.04 795.289 1670.32 639.916 1663.29C484.543 1656.27 399.087 1608.91 414.924 1398.41C430.762 1187.9 499.493 1078.65 556.903 1005.11C614.314 931.565 400.421 633.188 526.403 482.3C652.385 331.412 697.944 411.314 905.027 392.232Z" stroke="url(#paint57_linear_6_1770)" stroke-width="1.82402"/>
<path opacity="0.171429" fill-rule="evenodd" clip-rule="evenodd" d="M895.467 393.74C1102.08 371.06 1120.63 92.9039 1358.96 295.429C1597.3 497.954 1551.86 926.793 1293.08 1064.67C1034.31 1202.55 918.048 1244.58 902.079 1345.78C886.11 1446.99 808.065 1672.48 652.672 1668.18C497.279 1663.87 411.055 1618.05 423.215 1407.48C435.375 1196.91 502.158 1086.56 558.249 1012.09C614.341 937.617 395.393 643.27 518.662 490.331C641.932 337.391 688.854 416.419 895.467 393.74Z" stroke="url(#paint58_linear_6_1770)" stroke-width="1.82402"/>
<path opacity="0.157143" fill-rule="evenodd" clip-rule="evenodd" d="M885.946 395.416C1092.03 369.15 1105.72 90.9442 1347.42 289.106C1589.13 487.268 1551.19 916.478 1294.98 1058.74C1038.78 1201 923.328 1245.02 909.131 1346.41C894.935 1447.79 820.869 1674.42 665.504 1672.84C510.139 1671.25 423.174 1626.98 431.66 1416.4C440.145 1205.83 504.962 1094.43 559.72 1019.05C614.477 943.668 390.548 653.436 511.073 498.494C631.598 343.552 679.865 421.683 885.946 395.416Z" stroke="url(#paint59_linear_6_1770)" stroke-width="1.82402"/>
<path opacity="0.142857" fill-rule="evenodd" clip-rule="evenodd" d="M876.463 397.259C1081.95 367.417 1090.79 89.247 1335.78 282.99C1580.77 476.732 1550.33 906.182 1296.77 1052.78C1043.22 1199.38 928.609 1245.38 916.187 1346.91C903.765 1448.44 833.693 1676.14 678.404 1677.27C523.115 1678.41 435.437 1635.7 440.251 1425.18C445.065 1214.66 507.9 1102.24 561.309 1025.98C614.718 949.713 385.886 663.681 503.634 506.786C621.382 349.891 670.976 427.101 876.463 397.259Z" stroke="url(#paint60_linear_6_1770)" stroke-width="1.82402"/>
<path opacity="0.128571" fill-rule="evenodd" clip-rule="evenodd" d="M867.023 399.261C1071.85 365.857 1075.85 87.8064 1324.05 277.076C1572.25 466.345 1549.3 895.904 1298.46 1046.79C1047.62 1197.68 933.894 1245.63 923.247 1347.28C912.6 1448.93 846.537 1677.63 691.371 1681.47C536.205 1685.32 447.842 1644.19 448.99 1433.79C450.137 1223.4 510.974 1109.99 563.02 1032.87C615.067 955.746 381.409 673.995 496.348 515.197C611.288 356.398 662.193 432.665 867.023 399.261Z" stroke="url(#paint61_linear_6_1770)" stroke-width="1.82402"/>
<path opacity="0.114286" fill-rule="evenodd" clip-rule="evenodd" d="M857.627 401.431C1061.74 364.478 1060.89 86.6315 1312.22 271.375C1563.55 456.118 1548.09 885.654 1300.04 1040.78C1052 1195.9 939.176 1245.8 930.305 1347.53C921.433 1449.26 859.393 1678.9 704.397 1685.45C549.402 1692.01 460.382 1652.46 457.869 1442.25C455.356 1232.04 514.179 1117.68 564.849 1039.73C615.519 961.773 377.116 684.385 489.216 523.734C601.316 363.082 653.514 438.384 857.627 401.431Z" stroke="url(#paint62_linear_6_1770)" stroke-width="1.82402"/>
<path opacity="0.1" fill-rule="evenodd" clip-rule="evenodd" d="M848.275 403.762C1051.61 363.275 1045.93 85.7166 1300.3 265.882C1554.68 446.047 1546.7 875.432 1301.51 1034.74C1056.33 1194.05 944.454 1245.87 937.358 1347.66C930.261 1449.45 872.256 1679.94 717.478 1689.2C562.7 1698.46 473.053 1660.51 466.885 1450.55C460.718 1240.59 517.513 1125.31 566.794 1046.55C616.074 967.787 373.007 694.842 482.238 532.388C591.469 369.933 644.942 444.248 848.275 403.762Z" stroke="url(#paint63_linear_6_1770)" stroke-width="1.82402"/>
<path opacity="0.0857143" fill-rule="evenodd" clip-rule="evenodd" d="M838.974 406.252C1041.47 362.248 1030.97 85.0619 1288.3 260.6C1545.64 436.137 1545.13 865.239 1302.88 1028.68C1060.63 1192.12 949.728 1245.85 944.406 1347.66C939.084 1449.48 885.125 1680.76 730.612 1692.72C576.099 1704.67 485.852 1668.33 476.039 1458.69C466.226 1249.04 520.978 1132.88 568.857 1053.33C616.735 973.786 369.086 705.362 475.419 541.156C581.753 376.95 636.481 450.256 838.974 406.252Z" stroke="url(#paint64_linear_6_1770)" stroke-width="1.82402"/>
<path opacity="0.0714286" fill-rule="evenodd" clip-rule="evenodd" d="M829.724 408.906C1031.32 361.401 1016.01 84.6706 1276.22 255.532C1536.43 426.394 1543.38 855.084 1304.13 1022.61C1064.89 1190.13 954.995 1245.74 951.446 1347.55C947.897 1449.35 897.993 1681.35 743.793 1696C589.592 1710.65 498.774 1675.92 485.324 1466.66C471.874 1257.39 524.571 1140.39 571.034 1060.08C617.497 979.772 365.35 715.946 468.758 550.04C572.166 384.135 628.132 456.411 829.724 408.906Z" stroke="url(#paint65_linear_6_1770)" stroke-width="1.82402"/>
<path opacity="0.0571429" fill-rule="evenodd" clip-rule="evenodd" d="M820.531 411.714C1021.16 360.727 1001.05 84.5355 1264.06 250.674C1527.06 416.813 1541.45 844.961 1305.28 1016.51C1069.11 1188.05 960.257 1245.54 958.479 1347.31C956.701 1449.07 910.862 1681.72 757.02 1699.05C603.178 1716.39 511.818 1683.28 494.741 1474.46C477.665 1265.63 528.293 1147.82 573.33 1066.78C618.366 985.736 361.806 726.583 462.262 559.03C562.717 391.476 619.901 462.702 820.531 411.714Z" stroke="url(#paint66_linear_6_1770)" stroke-width="1.82402"/>
<path opacity="0.0428571" fill-rule="evenodd" clip-rule="evenodd" d="M811.399 414.684C1011.01 360.233 986.116 84.6641 1251.83 246.034C1517.54 407.404 1539.36 834.882 1306.32 1010.4C1073.29 1185.91 965.512 1245.24 965.503 1346.94C965.494 1448.64 923.727 1681.86 770.291 1701.88C616.854 1721.89 524.982 1690.42 504.289 1482.1C483.597 1273.77 532.145 1155.19 575.743 1073.44C619.342 991.685 358.455 737.279 455.932 568.13C553.409 398.981 611.791 469.136 811.399 414.684Z" stroke="url(#paint67_linear_6_1770)" stroke-width="1.82402"/>
<path opacity="0.0285714" fill-rule="evenodd" clip-rule="evenodd" d="M802.331 417.811C1000.81 359.929 971.139 85.0673 1239.42 241.639C1507.69 398.211 1536.94 824.883 1307.18 1004.29C1077.42 1183.7 970.771 1244.86 972.534 1346.46C974.296 1448.06 936.63 1681.77 783.683 1704.45C630.737 1727.12 538.4 1697.28 514.098 1489.53C489.796 1281.77 536.233 1162.46 578.368 1080.03C620.502 997.593 355.423 747.992 449.864 577.31C544.305 406.627 603.855 475.693 802.331 417.811Z" stroke="url(#paint68_linear_6_1770)" stroke-width="1.82402"/>
<path opacity="0.0142857" fill-rule="evenodd" clip-rule="evenodd" d="M793.28 420.959C990.687 359.634 956.262 85.4903 1227.17 237.24C1498.07 388.991 1534.7 814.845 1308.13 998.158C1081.55 1181.47 976.002 1244.46 979.525 1345.95C983.049 1447.45 949.447 1681.66 796.944 1707C644.442 1732.34 551.618 1704.15 523.723 1496.97C495.827 1289.79 540.18 1169.75 580.871 1086.63C621.562 1003.52 352.245 758.75 443.695 586.531C535.146 414.313 595.873 482.284 793.28 420.959Z" stroke="url(#paint69_linear_6_1770)" stroke-width="1.82402"/>
</g>
<defs>
<linearGradient id="paint0_linear_6_1770" x1="1903.61" y1="985.618" x2="1200.62" y2="29.9722" gradientUnits="userSpaceOnUse">
<stop stop-color="#F614F9"/>
<stop offset="1" stop-color="#4705DA"/>
</linearGradient>
<linearGradient id="paint1_linear_6_1770" x1="1903.56" y1="969.273" x2="1184.36" y2="26.5073" gradientUnits="userSpaceOnUse">
<stop stop-color="#F614F9"/>
<stop offset="1" stop-color="#4705DA"/>
</linearGradient>
<linearGradient id="paint2_linear_6_1770" x1="1903.24" y1="952.942" x2="1168.05" y2="23.3319" gradientUnits="userSpaceOnUse">
<stop stop-color="#F614F9"/>
<stop offset="1" stop-color="#4705DA"/>
</linearGradient>
<linearGradient id="paint3_linear_6_1770" x1="1902.63" y1="936.631" x2="1151.7" y2="20.4458" gradientUnits="userSpaceOnUse">
<stop stop-color="#F614F9"/>
<stop offset="1" stop-color="#4705DA"/>
</linearGradient>
<linearGradient id="paint4_linear_6_1770" x1="1901.73" y1="920.344" x2="1135.31" y2="17.8507" gradientUnits="userSpaceOnUse">
<stop stop-color="#F614F9"/>
<stop offset="1" stop-color="#4705DA"/>
</linearGradient>
<linearGradient id="paint5_linear_6_1770" x1="1900.56" y1="904.085" x2="1118.89" y2="15.5452" gradientUnits="userSpaceOnUse">
<stop stop-color="#F614F9"/>
<stop offset="1" stop-color="#4705DA"/>
</linearGradient>
<linearGradient id="paint6_linear_6_1770" x1="1899.1" y1="887.86" x2="1102.44" y2="13.5312" gradientUnits="userSpaceOnUse">
<stop stop-color="#F614F9"/>
<stop offset="1" stop-color="#4705DA"/>
</linearGradient>
<linearGradient id="paint7_linear_6_1770" x1="1897.37" y1="871.674" x2="1085.98" y2="11.8074" gradientUnits="userSpaceOnUse">
<stop stop-color="#F614F9"/>
<stop offset="1" stop-color="#4705DA"/>
</linearGradient>
<linearGradient id="paint8_linear_6_1770" x1="1895.36" y1="855.535" x2="1069.48" y2="10.3796" gradientUnits="userSpaceOnUse">
<stop stop-color="#F614F9"/>
<stop offset="1" stop-color="#4705DA"/>
</linearGradient>
<linearGradient id="paint9_linear_6_1770" x1="1893.07" y1="839.441" x2="1052.99" y2="9.23953" gradientUnits="userSpaceOnUse">
<stop stop-color="#F614F9"/>
<stop offset="1" stop-color="#4705DA"/>
</linearGradient>
<linearGradient id="paint10_linear_6_1770" x1="1890.5" y1="823.401" x2="1036.48" y2="8.39196" gradientUnits="userSpaceOnUse">
<stop stop-color="#F614F9"/>
<stop offset="1" stop-color="#4705DA"/>
</linearGradient>
<linearGradient id="paint11_linear_6_1770" x1="1887.66" y1="807.422" x2="1019.98" y2="7.8384" gradientUnits="userSpaceOnUse">
<stop stop-color="#F614F9"/>
<stop offset="1" stop-color="#4705DA"/>
</linearGradient>
<linearGradient id="paint12_linear_6_1770" x1="1884.54" y1="791.498" x2="1003.48" y2="7.5693" gradientUnits="userSpaceOnUse">
<stop stop-color="#F614F9"/>
<stop offset="1" stop-color="#4705DA"/>
</linearGradient>
<linearGradient id="paint13_linear_6_1770" x1="1881.15" y1="775.649" x2="986.984" y2="7.59852" gradientUnits="userSpaceOnUse">
<stop stop-color="#F614F9"/>
<stop offset="1" stop-color="#4705DA"/>
</linearGradient>
<linearGradient id="paint14_linear_6_1770" x1="1877.49" y1="759.867" x2="970.506" y2="7.91228" gradientUnits="userSpaceOnUse">
<stop stop-color="#F614F9"/>
<stop offset="1" stop-color="#4705DA"/>
</linearGradient>
<linearGradient id="paint15_linear_6_1770" x1="1873.56" y1="744.164" x2="954.046" y2="8.51876" gradientUnits="userSpaceOnUse">
<stop stop-color="#F614F9"/>
<stop offset="1" stop-color="#4705DA"/>
</linearGradient>
<linearGradient id="paint16_linear_6_1770" x1="1869.36" y1="728.544" x2="937.611" y2="9.41707" gradientUnits="userSpaceOnUse">
<stop stop-color="#F614F9"/>
<stop offset="1" stop-color="#4705DA"/>
</linearGradient>
<linearGradient id="paint17_linear_6_1770" x1="1864.89" y1="713.008" x2="921.202" y2="10.6011" gradientUnits="userSpaceOnUse">
<stop stop-color="#F614F9"/>
<stop offset="1" stop-color="#4705DA"/>
</linearGradient>
<linearGradient id="paint18_linear_6_1770" x1="1860.16" y1="697.565" x2="904.834" y2="12.0769" gradientUnits="userSpaceOnUse">
<stop stop-color="#F614F9"/>
<stop offset="1" stop-color="#4705DA"/>
</linearGradient>
<linearGradient id="paint19_linear_6_1770" x1="1855.16" y1="682.213" x2="888.502" y2="13.835" gradientUnits="userSpaceOnUse">
<stop stop-color="#F614F9"/>
<stop offset="1" stop-color="#4705DA"/>
</linearGradient>
<linearGradient id="paint20_linear_6_1770" x1="1849.9" y1="666.964" x2="872.211" y2="15.8835" gradientUnits="userSpaceOnUse">
<stop stop-color="#F614F9"/>
<stop offset="1" stop-color="#4705DA"/>
</linearGradient>
<linearGradient id="paint21_linear_6_1770" x1="1844.38" y1="651.816" x2="855.973" y2="18.2134" gradientUnits="userSpaceOnUse">
<stop stop-color="#F614F9"/>
<stop offset="1" stop-color="#4705DA"/>
</linearGradient>
<linearGradient id="paint22_linear_6_1770" x1="1838.61" y1="636.777" x2="839.795" y2="20.8292" gradientUnits="userSpaceOnUse">
<stop stop-color="#F614F9"/>
<stop offset="1" stop-color="#4705DA"/>
</linearGradient>
<linearGradient id="paint23_linear_6_1770" x1="1832.58" y1="621.853" x2="823.665" y2="23.7292" gradientUnits="userSpaceOnUse">
<stop stop-color="#F614F9"/>
<stop offset="1" stop-color="#4705DA"/>
</linearGradient>
<linearGradient id="paint24_linear_6_1770" x1="1826.3" y1="607.045" x2="807.608" y2="26.9099" gradientUnits="userSpaceOnUse">
<stop stop-color="#F614F9"/>
<stop offset="1" stop-color="#4705DA"/>
</linearGradient>
<linearGradient id="paint25_linear_6_1770" x1="1819.76" y1="592.357" x2="791.618" y2="30.3701" gradientUnits="userSpaceOnUse">
<stop stop-color="#F614F9"/>
<stop offset="1" stop-color="#4705DA"/>
</linearGradient>
<linearGradient id="paint26_linear_6_1770" x1="1812.98" y1="577.796" x2="775.701" y2="34.1101" gradientUnits="userSpaceOnUse">
<stop stop-color="#F614F9"/>
<stop offset="1" stop-color="#4705DA"/>
</linearGradient>
<linearGradient id="paint27_linear_6_1770" x1="1805.95" y1="563.365" x2="759.865" y2="38.1279" gradientUnits="userSpaceOnUse">
<stop stop-color="#F614F9"/>
<stop offset="1" stop-color="#4705DA"/>
</linearGradient>
<linearGradient id="paint28_linear_6_1770" x1="1798.67" y1="549.067" x2="744.11" y2="42.4204" gradientUnits="userSpaceOnUse">
<stop stop-color="#F614F9"/>
<stop offset="1" stop-color="#4705DA"/>
</linearGradient>
<linearGradient id="paint29_linear_6_1770" x1="1791.15" y1="534.908" x2="728.441" y2="46.9874" gradientUnits="userSpaceOnUse">
<stop stop-color="#F614F9"/>
<stop offset="1" stop-color="#4705DA"/>
</linearGradient>
<linearGradient id="paint30_linear_6_1770" x1="1783.4" y1="520.89" x2="712.875" y2="51.8266" gradientUnits="userSpaceOnUse">
<stop stop-color="#F614F9"/>
<stop offset="1" stop-color="#4705DA"/>
</linearGradient>
<linearGradient id="paint31_linear_6_1770" x1="1775.41" y1="507.02" x2="697.403" y2="56.9362" gradientUnits="userSpaceOnUse">
<stop stop-color="#F614F9"/>
<stop offset="1" stop-color="#4705DA"/>
</linearGradient>
<linearGradient id="paint32_linear_6_1770" x1="1767.19" y1="493.298" x2="682.033" y2="62.3134" gradientUnits="userSpaceOnUse">
<stop stop-color="#F614F9"/>
<stop offset="1" stop-color="#4705DA"/>
</linearGradient>
<linearGradient id="paint33_linear_6_1770" x1="1758.73" y1="479.731" x2="666.769" y2="67.9576" gradientUnits="userSpaceOnUse">
<stop stop-color="#F614F9"/>
<stop offset="1" stop-color="#4705DA"/>
</linearGradient>
<linearGradient id="paint34_linear_6_1770" x1="1750.06" y1="466.322" x2="651.626" y2="73.8654" gradientUnits="userSpaceOnUse">
<stop stop-color="#F614F9"/>
<stop offset="1" stop-color="#4705DA"/>
</linearGradient>
<linearGradient id="paint35_linear_6_1770" x1="1741.15" y1="453.074" x2="636.589" y2="80.0349" gradientUnits="userSpaceOnUse">
<stop stop-color="#F614F9"/>
<stop offset="1" stop-color="#4705DA"/>
</linearGradient>
<linearGradient id="paint36_linear_6_1770" x1="1732.02" y1="439.994" x2="621.68" y2="86.4673" gradientUnits="userSpaceOnUse">
<stop stop-color="#F614F9"/>
<stop offset="1" stop-color="#4705DA"/>
</linearGradient>
<linearGradient id="paint37_linear_6_1770" x1="1722.68" y1="427.08" x2="606.895" y2="93.1527" gradientUnits="userSpaceOnUse">
<stop stop-color="#F614F9"/>
<stop offset="1" stop-color="#4705DA"/>
</linearGradient>
<linearGradient id="paint38_linear_6_1770" x1="1713.12" y1="414.343" x2="592.238" y2="100.098" gradientUnits="userSpaceOnUse">
<stop stop-color="#F614F9"/>
<stop offset="1" stop-color="#4705DA"/>
</linearGradient>
<linearGradient id="paint39_linear_6_1770" x1="1703.34" y1="401.778" x2="577.717" y2="107.291" gradientUnits="userSpaceOnUse">
<stop stop-color="#F614F9"/>
<stop offset="1" stop-color="#4705DA"/>
</linearGradient>
<linearGradient id="paint40_linear_6_1770" x1="1693.36" y1="389.395" x2="563.333" y2="114.736" gradientUnits="userSpaceOnUse">
<stop stop-color="#F614F9"/>
<stop offset="1" stop-color="#4705DA"/>
</linearGradient>
<linearGradient id="paint41_linear_6_1770" x1="1683.17" y1="377.195" x2="549.096" y2="122.428" gradientUnits="userSpaceOnUse">
<stop stop-color="#F614F9"/>
<stop offset="1" stop-color="#4705DA"/>
</linearGradient>
<linearGradient id="paint42_linear_6_1770" x1="1672.77" y1="365.18" x2="535.002" y2="130.363" gradientUnits="userSpaceOnUse">
<stop stop-color="#F614F9"/>
<stop offset="1" stop-color="#4705DA"/>
</linearGradient>
<linearGradient id="paint43_linear_6_1770" x1="1662.19" y1="353.356" x2="521.067" y2="138.54" gradientUnits="userSpaceOnUse">
<stop stop-color="#F614F9"/>
<stop offset="1" stop-color="#4705DA"/>
</linearGradient>
<linearGradient id="paint44_linear_6_1770" x1="1651.4" y1="341.727" x2="507.285" y2="146.957" gradientUnits="userSpaceOnUse">
<stop stop-color="#F614F9"/>
<stop offset="1" stop-color="#4705DA"/>
</linearGradient>
<linearGradient id="paint45_linear_6_1770" x1="1640.42" y1="330.296" x2="493.659" y2="155.612" gradientUnits="userSpaceOnUse">
<stop stop-color="#F614F9"/>
<stop offset="1" stop-color="#4705DA"/>
</linearGradient>
<linearGradient id="paint46_linear_6_1770" x1="1629.25" y1="319.062" x2="480.194" y2="164.497" gradientUnits="userSpaceOnUse">
<stop stop-color="#F614F9"/>
<stop offset="1" stop-color="#4705DA"/>
</linearGradient>
<linearGradient id="paint47_linear_6_1770" x1="1617.9" y1="308.033" x2="466.905" y2="173.613" gradientUnits="userSpaceOnUse">
<stop stop-color="#F614F9"/>
<stop offset="1" stop-color="#4705DA"/>
</linearGradient>
<linearGradient id="paint48_linear_6_1770" x1="1606.37" y1="297.209" x2="453.787" y2="182.954" gradientUnits="userSpaceOnUse">
<stop stop-color="#F614F9"/>
<stop offset="1" stop-color="#4705DA"/>
</linearGradient>
<linearGradient id="paint49_linear_6_1770" x1="1594.66" y1="286.593" x2="440.843" y2="192.519" gradientUnits="userSpaceOnUse">
<stop stop-color="#F614F9"/>
<stop offset="1" stop-color="#4705DA"/>
</linearGradient>
<linearGradient id="paint50_linear_6_1770" x1="1582.78" y1="276.191" x2="428.076" y2="202.305" gradientUnits="userSpaceOnUse">
<stop stop-color="#F614F9"/>
<stop offset="1" stop-color="#4705DA"/>
</linearGradient>
<linearGradient id="paint51_linear_6_1770" x1="1570.73" y1="266.003" x2="415.496" y2="212.309" gradientUnits="userSpaceOnUse">
<stop stop-color="#F614F9"/>
<stop offset="1" stop-color="#4705DA"/>
</linearGradient>
<linearGradient id="paint52_linear_6_1770" x1="1558.5" y1="256.031" x2="403.099" y2="222.523" gradientUnits="userSpaceOnUse">
<stop stop-color="#F614F9"/>
<stop offset="1" stop-color="#4705DA"/>
</linearGradient>
<linearGradient id="paint53_linear_6_1770" x1="1546.12" y1="246.281" x2="390.893" y2="232.949" gradientUnits="userSpaceOnUse">
<stop stop-color="#F614F9"/>
<stop offset="1" stop-color="#4705DA"/>
</linearGradient>
<linearGradient id="paint54_linear_6_1770" x1="1533.58" y1="236.753" x2="378.883" y2="243.581" gradientUnits="userSpaceOnUse">
<stop stop-color="#F614F9"/>
<stop offset="1" stop-color="#4705DA"/>
</linearGradient>
<linearGradient id="paint55_linear_6_1770" x1="1520.89" y1="227.448" x2="367.075" y2="254.415" gradientUnits="userSpaceOnUse">
<stop stop-color="#F614F9"/>
<stop offset="1" stop-color="#4705DA"/>
</linearGradient>
<linearGradient id="paint56_linear_6_1770" x1="1508.05" y1="218.372" x2="355.462" y2="265.447" gradientUnits="userSpaceOnUse">
<stop stop-color="#F614F9"/>
<stop offset="1" stop-color="#4705DA"/>
</linearGradient>
<linearGradient id="paint57_linear_6_1770" x1="1495.05" y1="209.53" x2="344.05" y2="276.679" gradientUnits="userSpaceOnUse">
<stop stop-color="#F614F9"/>
<stop offset="1" stop-color="#4705DA"/>
</linearGradient>
<linearGradient id="paint58_linear_6_1770" x1="1481.92" y1="200.915" x2="332.849" y2="288.097" gradientUnits="userSpaceOnUse">
<stop stop-color="#F614F9"/>
<stop offset="1" stop-color="#4705DA"/>
</linearGradient>
<linearGradient id="paint59_linear_6_1770" x1="1468.65" y1="192.537" x2="321.861" y2="299.706" gradientUnits="userSpaceOnUse">
<stop stop-color="#F614F9"/>
<stop offset="1" stop-color="#4705DA"/>
</linearGradient>
<linearGradient id="paint60_linear_6_1770" x1="1455.25" y1="184.398" x2="311.087" y2="311.5" gradientUnits="userSpaceOnUse">
<stop stop-color="#F614F9"/>
<stop offset="1" stop-color="#4705DA"/>
</linearGradient>
<linearGradient id="paint61_linear_6_1770" x1="1441.72" y1="176.493" x2="300.532" y2="323.469" gradientUnits="userSpaceOnUse">
<stop stop-color="#F614F9"/>
<stop offset="1" stop-color="#4705DA"/>
</linearGradient>
<linearGradient id="paint62_linear_6_1770" x1="1428.07" y1="168.833" x2="290.195" y2="335.619" gradientUnits="userSpaceOnUse">
<stop stop-color="#F614F9"/>
<stop offset="1" stop-color="#4705DA"/>
</linearGradient>
<linearGradient id="paint63_linear_6_1770" x1="1414.29" y1="161.415" x2="280.079" y2="347.939" gradientUnits="userSpaceOnUse">
<stop stop-color="#F614F9"/>
<stop offset="1" stop-color="#4705DA"/>
</linearGradient>
<linearGradient id="paint64_linear_6_1770" x1="1400.4" y1="154.241" x2="270.189" y2="360.426" gradientUnits="userSpaceOnUse">
<stop stop-color="#F614F9"/>
<stop offset="1" stop-color="#4705DA"/>
</linearGradient>
<linearGradient id="paint65_linear_6_1770" x1="1386.39" y1="147.316" x2="260.525" y2="373.079" gradientUnits="userSpaceOnUse">
<stop stop-color="#F614F9"/>
<stop offset="1" stop-color="#4705DA"/>
</linearGradient>
<linearGradient id="paint66_linear_6_1770" x1="1372.27" y1="140.635" x2="251.095" y2="385.888" gradientUnits="userSpaceOnUse">
<stop stop-color="#F614F9"/>
<stop offset="1" stop-color="#4705DA"/>
</linearGradient>
<linearGradient id="paint67_linear_6_1770" x1="1358.06" y1="134.208" x2="241.901" y2="398.855" gradientUnits="userSpaceOnUse">
<stop stop-color="#F614F9"/>
<stop offset="1" stop-color="#4705DA"/>
</linearGradient>
<linearGradient id="paint68_linear_6_1770" x1="1343.6" y1="128.069" x2="233.081" y2="411.939" gradientUnits="userSpaceOnUse">
<stop stop-color="#F614F9"/>
<stop offset="1" stop-color="#4705DA"/>
</linearGradient>
<linearGradient id="paint69_linear_6_1770" x1="1329.35" y1="121.923" x2="224.118" y2="425.085" gradientUnits="userSpaceOnUse">
<stop stop-color="#F614F9"/>
<stop offset="1" stop-color="#4705DA"/>
</linearGradient>
</defs>
</svg>
