<svg width="30" height="30" viewBox="0 0 30 30" fill="none" xmlns="http://www.w3.org/2000/svg">
<path d="M16.524 16.524H13.6821V7.99823H16.524V16.524ZM16.524 22.2078H13.6821V19.3659H16.524V22.2078ZM15.103 0.893433C13.237 0.893433 11.3892 1.26097 9.66525 1.97507C7.94126 2.68917 6.3748 3.73584 5.05532 5.05533C2.39051 7.72014 0.893429 11.3344 0.893429 15.103C0.893429 18.8716 2.39051 22.4859 5.05532 25.1507C6.3748 26.4702 7.94126 27.5169 9.66525 28.231C11.3892 28.9451 13.237 29.3126 15.103 29.3126C18.8716 29.3126 22.4859 27.8155 25.1507 25.1507C27.8155 22.4859 29.3126 18.8716 29.3126 15.103C29.3126 13.237 28.9451 11.3892 28.231 9.66525C27.5169 7.94126 26.4702 6.37481 25.1507 5.05533C23.8312 3.73584 22.2648 2.68917 20.5408 1.97507C18.8168 1.26097 16.9691 0.893433 15.103 0.893433V0.893433Z" fill="#EF665B"/>
</svg>
