<svg width="65" height="66" viewBox="0 0 65 66" fill="none" xmlns="http://www.w3.org/2000/svg">
<path d="M26.5 4.4641C30.2128 2.32051 34.7872 2.32051 38.5 4.4641L54.2128 13.5359C57.9256 15.6795 60.2128 19.641 60.2128 23.9282V42.0718C60.2128 46.359 57.9256 50.3205 54.2128 52.4641L38.5 61.5359C34.7872 63.6795 30.2128 63.6795 26.5 61.5359L10.7872 52.4641C7.07438 50.3205 4.78719 46.359 4.78719 42.0718V23.9282C4.78719 19.641 7.07437 15.6795 10.7872 13.5359L26.5 4.4641Z" fill="#0B0E11"/>
<path d="M39 3.59808C34.9778 1.27585 30.0222 1.27585 26 3.59808L10.2872 12.6699C6.26497 14.9921 3.78719 19.2838 3.78719 23.9282V42.0718C3.78719 46.7162 6.26497 51.0079 10.2872 53.3301L26 62.4019C30.0222 64.7242 34.9778 64.7242 39 62.4019L54.7128 53.3301C58.735 51.0079 61.2128 46.7162 61.2128 42.0718V23.9282C61.2128 19.2838 58.735 14.9921 54.7128 12.6699L39 3.59808Z" stroke="url(#paint0_angular_92_1890)" stroke-opacity="0.8" stroke-width="2"/>
<path d="M26.948 42H23.324V24.588H26.948V42ZM42.9136 27.492H37.8256V42H34.2136V27.492H29.1256V24.588H42.9136V27.492Z" fill="#F614F9"/>
<defs>
<radialGradient id="paint0_angular_92_1890" cx="0" cy="0" r="1" gradientUnits="userSpaceOnUse" gradientTransform="translate(32.5 33) rotate(90) scale(32)">
<stop offset="0.163092" stop-color="#F449F4"/>
<stop offset="0.491755" stop-color="#0019C0"/>
<stop offset="0.839524" stop-color="#7976E8"/>
</radialGradient>
</defs>
</svg>
