<svg width="64" height="66" viewBox="0 0 64 66" fill="none" xmlns="http://www.w3.org/2000/svg">
<path d="M54.2128 12.6699L38.5 3.59808C34.4778 1.27585 29.5222 1.27585 25.5 3.59808L9.78719 12.6699C5.76497 14.9921 3.28719 19.2838 3.28719 23.9282V42.0718C3.28719 46.7162 5.76497 51.0079 9.78719 53.3301L25.5 62.4019C29.5222 64.7242 34.4778 64.7241 38.5 62.4019L54.2128 53.3301C58.235 51.0079 60.7128 46.7162 60.7128 42.0718V23.9282C60.7128 19.2838 58.235 14.9921 54.2128 12.6699Z" fill="#0B0E11" stroke="#FAFAFA" stroke-width="2"/>
<path d="M26.448 42H22.824V24.588H26.448V42ZM42.4136 27.492H37.3256V42H33.7136V27.492H28.6256V24.588H42.4136V27.492Z" fill="#FAFAFA"/>
</svg>
