<svg width="64" height="66" viewBox="0 0 64 66" fill="none" xmlns="http://www.w3.org/2000/svg">
<path d="M54.2128 12.6699L38.5 3.59808C34.4778 1.27585 29.5222 1.27585 25.5 3.59808L9.78719 12.6699C5.76497 14.9921 3.28719 19.2838 3.28719 23.9282V42.0718C3.28719 46.7162 5.76497 51.0079 9.78719 53.3301L25.5 62.4019C29.5222 64.7242 34.4778 64.7241 38.5 62.4019L54.2128 53.3301C58.235 51.0079 60.7128 46.7162 60.7128 42.0718V23.9282C60.7128 19.2838 58.235 14.9921 54.2128 12.6699Z" fill="#0B0E11" stroke="#FAFAFA" stroke-width="2"/>
<path d="M42.024 24.588V42H38.844V31.308C38.844 31.084 38.848 30.844 38.856 30.588C38.872 30.332 38.896 30.072 38.928 29.808L33.948 39.252C33.676 39.772 33.256 40.032 32.688 40.032H32.184C31.904 40.032 31.656 39.968 31.44 39.84C31.224 39.704 31.052 39.508 30.924 39.252L25.92 29.772C25.944 30.052 25.964 30.324 25.98 30.588C25.996 30.844 26.004 31.084 26.004 31.308V42H22.824V24.588H25.56C25.712 24.588 25.848 24.592 25.968 24.6C26.088 24.608 26.192 24.632 26.28 24.672C26.376 24.704 26.46 24.76 26.532 24.84C26.612 24.912 26.688 25.016 26.76 25.152L31.632 34.44C31.784 34.72 31.924 35.008 32.052 35.304C32.188 35.6 32.316 35.904 32.436 36.216C32.556 35.896 32.68 35.584 32.808 35.28C32.944 34.976 33.088 34.684 33.24 34.404L38.076 25.152C38.148 25.016 38.224 24.912 38.304 24.84C38.384 24.76 38.468 24.704 38.556 24.672C38.652 24.632 38.756 24.608 38.868 24.6C38.988 24.592 39.128 24.588 39.288 24.588H42.024Z" fill="#FAFAFA"/>
</svg>
