<svg width="32" height="32" viewBox="0 0 32 32" fill="none" xmlns="http://www.w3.org/2000/svg">
<path fill-rule="evenodd" clip-rule="evenodd" d="M15.9307 0.22583C7.29841 0.22583 0.300182 7.22405 0.300182 15.8564C0.300182 24.4887 7.29841 31.4869 15.9307 31.4869C24.5631 31.4869 31.5613 24.4887 31.5613 15.8564C31.5613 7.22405 24.5631 0.22583 15.9307 0.22583ZM22.7059 13.2134C22.8306 13.0708 22.9256 12.9047 22.9852 12.7248C23.0448 12.545 23.0679 12.355 23.053 12.1661C23.0381 11.9772 22.9856 11.7932 22.8985 11.6249C22.8115 11.4567 22.6916 11.3075 22.5461 11.1862C22.4005 11.0649 22.2322 10.9739 22.0509 10.9186C21.8697 10.8634 21.6793 10.8449 21.4908 10.8643C21.3023 10.8837 21.1196 10.9406 20.9535 11.0317C20.7873 11.1228 20.641 11.2461 20.5233 11.3946L14.4131 18.7253L11.2515 15.5622C10.9835 15.3034 10.6246 15.1602 10.252 15.1634C9.87944 15.1667 9.52305 15.3161 9.25959 15.5796C8.99613 15.843 8.84669 16.1994 8.84345 16.572C8.84021 16.9445 8.98344 17.3035 9.24228 17.5715L13.5052 21.8344C13.6448 21.9739 13.8119 22.0828 13.996 22.1542C14.18 22.2255 14.3769 22.2577 14.5741 22.2488C14.7713 22.2398 14.9644 22.1899 15.1413 22.1021C15.3181 22.0144 15.4747 21.8908 15.6011 21.7392L22.7059 13.2134Z" fill="#393A37"/>
</svg>
