<svg width="14" height="14" viewBox="0 0 14 14" fill="none" xmlns="http://www.w3.org/2000/svg">
<path fill-rule="evenodd" clip-rule="evenodd" d="M9.64645 0.146447C9.84171 -0.0488155 10.1583 -0.0488155 10.3536 0.146447L13.8536 3.64645C14.0488 3.84171 14.0488 4.15829 13.8536 4.35355L4.35355 13.8536C4.25979 13.9473 4.13261 14 4 14H0.5C0.223858 14 0 13.7761 0 13.5V10C0 9.86739 0.0526784 9.74021 0.146447 9.64645L9.64645 0.146447ZM8.20711 3L11 5.79289L12.7929 4L10 1.20711L8.20711 3ZM10.2929 6.5L7.5 3.70711L1 10.2071V13H3.79289L10.2929 6.5Z" fill="black"/>
</svg>
