<svg width="17" height="13" viewBox="0 0 17 13" fill="none" xmlns="http://www.w3.org/2000/svg">
<path fill-rule="evenodd" clip-rule="evenodd" d="M15 0.503006C15.3978 0.503006 15.7794 0.661041 16.0607 0.942346C16.342 1.22365 16.5 1.60518 16.5 2.00301V11.003C16.5 11.4008 16.342 11.7824 16.0607 12.0637C15.7794 12.345 15.3978 12.503 15 12.503H2C1.60218 12.503 1.22064 12.345 0.93934 12.0637C0.658035 11.7824 0.5 11.4008 0.5 11.003V2.00301C0.5 1.60518 0.658035 1.22365 0.93934 0.942346C1.22064 0.661041 1.60218 0.503006 2 0.503006H15ZM13.971 2.50301C14.044 2.5032 14.115 2.52619 14.1743 2.56876C14.2335 2.61133 14.278 2.67135 14.3015 2.74042C14.3249 2.8095 14.3262 2.88419 14.3052 2.95404C14.2841 3.02389 14.2417 3.08541 14.184 3.13001L9.11 7.03401C8.93514 7.16861 8.72067 7.2416 8.5 7.2416C8.27933 7.2416 8.06486 7.16861 7.89 7.03401L2.816 3.13001C2.75826 3.08541 2.7159 3.02389 2.69484 2.95404C2.67378 2.88419 2.67507 2.8095 2.69854 2.74042C2.72201 2.67135 2.76647 2.61133 2.82572 2.56876C2.88497 2.52619 2.95605 2.5032 3.029 2.50301H13.971Z" fill="#25262D"/>
</svg>
