<svg width="20" height="22" viewBox="0 0 20 22" fill="none" xmlns="http://www.w3.org/2000/svg">
<path d="M11.26 2.51954L3.04997 11.2095C2.73997 11.5395 2.43997 12.1895 2.37997 12.6395L2.00997 15.8795C1.87997 17.0495 2.71997 17.8495 3.87997 17.6495L7.09997 17.0995C7.54997 17.0195 8.17997 16.6895 8.48997 16.3495L16.7 7.65954C18.12 6.15954 18.76 4.44954 16.55 2.35954C14.35 0.289542 12.68 1.01954 11.26 2.51954V2.51954Z" stroke="#778193" stroke-width="1.5" stroke-miterlimit="10" stroke-linecap="round" stroke-linejoin="round"/>
<path d="M9.89 3.96954C10.0996 5.3104 10.7486 6.54368 11.735 7.47579C12.7214 8.4079 13.9894 8.98607 15.34 9.11954M1 20.9195H19" stroke="#778193" stroke-width="1.5" stroke-miterlimit="10" stroke-linecap="round" stroke-linejoin="round"/>
</svg>
