<svg width="42" height="42" viewBox="0 0 42 42" fill="none" xmlns="http://www.w3.org/2000/svg">
<path d="M21.2315 22.2911C21.0778 22.2707 20.9222 22.2707 20.7685 22.2911C19.1328 22.2331 17.5826 21.5086 16.4453 20.2704C15.308 19.0323 14.6727 17.3775 14.6736 15.6557C14.6736 11.9829 17.4896 9.00001 21 9.00001C22.6577 8.99698 24.2501 9.6794 25.4339 10.9001C26.6178 12.1209 27.2982 13.7821 27.3286 15.5258C27.359 17.2694 26.7368 18.9558 25.5963 20.2213C24.4557 21.4869 22.8881 22.2302 21.2315 22.2911ZM34 35.6836C30.4554 39.111 25.8143 41.009 21 41C15.9852 41 11.4332 38.9911 8 35.6836C8.19288 33.7761 9.35015 31.9093 11.4139 30.4483C16.6988 26.7552 25.3398 26.7552 30.5861 30.4483C32.6499 31.9093 33.8071 33.7761 34 35.6836Z" stroke="black" stroke-width="1.5" stroke-linecap="round" stroke-linejoin="round"/>
<path d="M21 41C32.046 41 41 32.046 41 21C41 9.954 32.046 1 21 1C9.954 1 1 9.954 1 21C1 32.046 9.954 41 21 41Z" stroke="black" stroke-width="1.5" stroke-linecap="round" stroke-linejoin="round"/>
</svg>
