<svg width="16" height="16" viewBox="0 0 16 16" fill="none" xmlns="http://www.w3.org/2000/svg">
<path d="M1.24603 1.13551C-1.45897 3.58851 0.980033 8.15351 4.16203 11.3355C7.34303 14.5165 11.915 16.9615 14.368 14.2565C14.538 14.0685 14.826 13.6565 15.23 13.0235C15.3722 12.7998 15.4198 12.5287 15.3622 12.27C15.3046 12.0112 15.1467 11.7859 14.923 11.6435L12.487 10.2435C12.2687 10.1185 12.0113 10.0803 11.766 10.1366C11.5208 10.193 11.3059 10.3397 11.164 10.5475C10.9773 10.829 10.7647 11.0925 10.529 11.3345C9.18603 12.6715 7.48903 11.4805 5.75303 9.74451C4.01603 8.00751 2.83203 6.31751 4.16903 4.97451C4.37203 4.77051 4.63403 4.55851 4.95503 4.33951C5.16311 4.19765 5.31 3.9825 5.36636 3.73706C5.42271 3.49161 5.38439 3.23393 5.25903 3.01551L3.86003 0.579513C3.71752 0.356039 3.49212 0.198282 3.23336 0.140904C2.9746 0.0835268 2.70365 0.131223 2.48003 0.273513C1.84603 0.677513 1.43503 0.963513 1.24603 1.13551Z" fill="#25262D"/>
</svg>
