<svg width="21" height="24" viewBox="0 0 21 24" fill="none" xmlns="http://www.w3.org/2000/svg">
<path d="M10.493 10.7466C10.3537 10.7345 10.1866 10.7345 10.0334 10.7466C8.43452 10.6994 6.91959 10.1128 5.80938 9.11104C4.69917 8.10931 4.08087 6.77109 4.08541 5.37978C4.08541 2.41169 6.84348 0.000874102 10.2702 0.000874102C11.0814 -0.0118532 11.8877 0.114517 12.6428 0.372769C13.3979 0.631022 14.0871 1.0161 14.6712 1.50601C15.2552 1.99593 15.7225 2.58109 16.0465 3.22808C16.3705 3.87508 16.5447 4.57123 16.5594 5.2768C16.574 5.98238 16.4287 6.68355 16.1318 7.34028C15.8348 7.99702 15.3921 8.59645 14.8288 9.10437C14.2654 9.61228 13.5926 10.0187 12.8487 10.3005C12.1048 10.5823 11.3043 10.7338 10.493 10.7466V10.7466ZM3.52823 15.2169C0.157258 17.1795 0.157258 20.3777 3.52823 22.3282C7.35887 24.5573 13.6411 24.5573 17.4718 22.3282C20.8427 20.3656 20.8427 17.1673 17.4718 15.2169C13.6551 12.9999 7.3728 12.9999 3.52823 15.2169V15.2169Z" stroke="black" stroke-width="1.5" stroke-linecap="round" stroke-linejoin="round"/>
</svg>
