<svg width="28" height="32" viewBox="0 0 28 32" fill="none" xmlns="http://www.w3.org/2000/svg">
<path d="M27.4995 12.7821C27.4995 12.7821 25.8792 14.261 23.1247 16.004C22.3686 11.7257 20.2622 6.44384 16.1575 0C16.1575 0 14.8073 6.91921 10.3245 13.4159C8.38013 10.458 7.51597 8.13403 7.51597 8.13403C-6.52652 21.9196 5.13955 31.691 12.4849 31.691C21.8825 31.691 30.146 27.2543 27.4995 12.7821Z" fill="#FF9D33"/>
<path d="M21.9365 25.0359C22.7466 23.2929 23.3407 21.0217 23.4488 18.1695C23.4488 18.1695 22.3146 19.1203 20.3702 20.3351C19.8301 17.4829 18.3719 13.9969 15.5094 9.66577C15.5094 9.66577 14.5912 14.261 11.4586 18.6449C10.1084 16.6906 9.5143 15.1061 9.5143 15.1061C7.19189 18.6977 6.27373 21.5499 6.21972 23.8211C4.92349 23.3457 4.11334 22.976 4.11334 22.976C6.32773 29.4199 10.9185 30.8459 12.9709 30.8459C16.6436 30.8459 20.3702 29.7896 24.0429 24.6662C24.0429 24.6134 23.2327 24.8247 21.9365 25.0359Z" fill="#FFCE31"/>
<path d="M8.5421 22.1309C8.5421 22.1309 10.0544 24.138 11.1886 23.6626C11.1886 23.6626 13.349 20.3351 16.4815 18.4864C16.4815 18.4864 15.8334 23.557 16.5895 24.4549C17.5617 25.6697 20.2082 23.1345 20.2082 23.1345C20.2082 26.1451 16.8596 29.8952 13.835 29.8952C10.9185 29.8952 6.70578 26.6205 8.5421 22.1309Z" fill="#FFDF85"/>
<path d="M23.6108 8.50377C24.745 6.91922 25.5011 5.22903 25.5011 5.22903C27.3915 8.29249 26.2573 10.1411 25.4471 10.7221C24.3129 11.5672 22.3146 10.3524 23.6108 8.50377ZM2.97914 7.97558C1.84494 6.12694 1.73692 3.80293 1.73692 3.80293C-0.963556 7.76431 0.0626258 9.98268 0.980789 10.6165C2.169 11.5144 4.22136 10.1411 2.97914 7.97558ZM9.24425 3.85575C9.40628 2.58811 8.86619 1.32047 8.86619 1.32047C11.4046 2.95784 11.4046 4.33111 11.0806 4.91212C10.5945 5.59876 9.08222 5.28185 9.24425 3.85575Z" fill="#FF9D33"/>
</svg>
