<svg width="67" height="24" viewBox="0 0 67 24" fill="none" xmlns="http://www.w3.org/2000/svg">
<g clip-path="url(#clip0_1_4)">
<path d="M64.9795 17.5545C65.334 17.5545 65.6347 17.7132 65.8815 18.0306C66.1282 18.348 66.2507 18.7304 66.2507 19.1753C66.2507 19.6202 66.1282 19.9974 65.8815 20.307C65.6347 20.6166 65.334 20.7701 64.9795 20.7701H63.4615C62.5591 20.7701 61.7069 20.5516 60.9085 20.1145C60.1082 19.6774 59.4071 19.0843 58.8099 18.3402C58.2127 17.5936 57.7357 16.7194 57.3853 15.7152C57.0327 14.711 56.8586 13.6365 56.8586 12.4866C56.8586 11.3548 57.0327 10.2856 57.3853 9.28396C57.7376 8.27972 58.2127 7.4056 58.8099 6.65892C59.4071 5.91224 60.1082 5.32168 60.9085 4.8846C61.7091 4.44752 62.5591 4.229 63.4615 4.229H64.9795C65.334 4.229 65.6347 4.38248 65.8815 4.69208C66.1282 5.00168 66.2507 5.37892 66.2507 5.8238C66.2507 6.26868 66.1282 6.65112 65.8815 6.96852C65.6347 7.28592 65.334 7.4446 64.9795 7.4446H63.4615C62.9016 7.4446 62.3768 7.57728 61.8915 7.84264C61.4062 8.10804 60.979 8.46964 60.6101 8.92232C60.2408 9.3776 59.9504 9.91356 59.739 10.5301C59.5273 11.1467 59.4217 11.7997 59.4217 12.4866C59.4217 13.189 59.5273 13.8498 59.739 14.469C59.9504 15.0856 60.2408 15.6215 60.6101 16.0768C60.979 16.5321 61.4062 16.8911 61.8915 17.1565C62.3768 17.4218 62.8993 17.5545 63.4615 17.5545H64.9795Z" fill="#FAFAFA"/>
<path d="M53.6042 20.6516C53.2496 20.6516 52.9509 20.4981 52.7124 20.1885C52.4739 19.8789 52.3537 19.5017 52.3537 19.0568V9.53745L50.7155 11.5953C50.3877 12.0064 50.0188 12.3238 49.6018 12.5475C49.185 12.7713 48.7476 12.8831 48.283 12.8831C47.8185 12.8831 47.3766 12.7713 46.9538 12.5475C46.5307 12.3238 46.1637 12.0064 45.8503 11.5953L44.1936 9.51142V19.0568C44.1936 19.5017 44.0712 19.8789 43.8202 20.1885C43.5735 20.4981 43.2706 20.6516 42.9119 20.6516C42.5532 20.6516 42.2483 20.4981 42.0035 20.1885C41.7548 19.8789 41.6304 19.5017 41.6304 19.0568V5.70265C41.6304 5.25777 41.7526 4.88054 41.9993 4.57094C42.2461 4.26134 42.5471 4.10786 42.9016 4.10786C43.1609 4.10786 43.4013 4.2015 43.619 4.39141V4.36542L43.7829 4.54494L47.4327 9.14977C47.6795 9.42297 47.9594 9.56085 48.2725 9.56085C48.5732 9.56085 48.8471 9.42297 49.0939 9.14977L52.868 4.38882H52.8887C53.1065 4.1989 53.3472 4.10526 53.6064 4.10526C53.961 4.10526 54.2616 4.25873 54.5084 4.56833C54.7552 4.87793 54.8776 5.25517 54.8776 5.70005V19.0542C54.8776 19.4991 54.7552 19.8763 54.5084 20.1859C54.2616 20.4981 53.961 20.6516 53.6042 20.6516Z" fill="#FAFAFA"/>
<path d="M38.2156 4.17432C38.5702 4.17432 38.8709 4.333 39.1176 4.6504C39.3644 4.9678 39.4869 5.35024 39.4869 5.79512C39.4869 6.24 39.3644 6.61724 39.1176 6.92684C38.8709 7.23644 38.5702 7.38992 38.2156 7.38992H36.6355H34.9329V19.1492C34.9329 19.5941 34.8063 19.9714 34.5534 20.281C34.3003 20.5906 33.9955 20.744 33.6409 20.744C33.2864 20.744 32.9854 20.5906 32.7389 20.281C32.4921 19.9714 32.3696 19.5941 32.3696 19.1492V7.38992H30.8102H29.0869C28.7323 7.38992 28.4316 7.23644 28.1848 6.92684C27.938 6.61724 27.8157 6.24 27.8157 5.79512C27.8157 5.35024 27.938 4.9678 28.1848 4.6504C28.4316 4.333 28.7323 4.17432 29.0869 4.17432H30.8102H36.6355H38.2156Z" fill="#FAFAFA"/>
<path d="M24.6468 7.37429C24.2922 7.37429 23.9894 7.21561 23.7447 6.90341C23.4979 6.58601 23.3755 6.20877 23.3755 5.76649C23.3755 5.32421 23.4979 4.94701 23.7447 4.62961C23.9894 4.31481 24.2922 4.15869 24.6468 4.15869C25.0014 4.15869 25.3083 4.31741 25.5592 4.62961C25.8122 4.94701 25.9387 5.32421 25.9387 5.76649C25.9387 6.20877 25.8122 6.58601 25.5592 6.90341C25.3083 7.21821 25.0035 7.37429 24.6468 7.37429Z" fill="#FAFAFA"/>
<path d="M24.6468 9.30469C25.0014 9.30469 25.3062 9.46341 25.5592 9.78081C25.8122 10.0982 25.9387 10.4806 25.9387 10.9255V13.5141V13.6936V13.8471V14.5418V19.0946C25.9387 19.5395 25.8122 19.9219 25.5592 20.2393C25.3062 20.5567 25.0014 20.7154 24.6468 20.7154C24.2922 20.7154 23.9915 20.5567 23.7447 20.2393C23.4979 19.9219 23.3755 19.5395 23.3755 19.0946V14.5418V13.8471V13.6936V13.5141V10.9255C23.3755 10.4806 23.4979 10.0982 23.7447 9.78081C23.9915 9.46341 24.2922 9.30469 24.6468 9.30469Z" fill="#FAFAFA"/>
<path fill-rule="evenodd" clip-rule="evenodd" d="M8.44226 6.92677C8.95866 6.27897 9.80266 6.27897 10.319 6.92677L14.0476 11.6019C14.564 12.2497 14.564 13.3086 14.0476 13.9564C13.5313 14.6042 12.6872 14.6042 12.1709 13.9564L8.44226 9.28125C7.9259 8.63605 7.9259 7.57457 8.44226 6.92677Z" fill="url(#paint0_linear_1_4)"/>
<path fill-rule="evenodd" clip-rule="evenodd" d="M12.1543 3.10505C12.8863 3.16489 13.44 3.95578 13.3944 4.87417C13.3467 5.79253 12.7163 6.48717 11.9843 6.42993C11.2522 6.37009 10.6985 5.57921 10.7441 4.66081C10.7918 3.74245 11.4244 3.04522 12.1543 3.10505Z" fill="url(#paint1_linear_1_4)"/>
<path fill-rule="evenodd" clip-rule="evenodd" d="M0.881585 12.5698C0.369367 11.9168 0.373515 10.8527 0.889881 10.2049L8.63952 0.48262C9.15588 -0.165185 9.99574 -0.159983 10.508 0.493024C11.0202 1.14603 11.016 2.2101 10.4997 2.8579L3.69982 11.3886L6.49318 14.8904C7.00955 15.5382 7.00955 16.5971 6.49318 17.2449C5.97682 17.8927 5.13279 17.8927 4.61642 17.2449L0.96661 12.666C0.937577 12.6374 0.910619 12.6036 0.881585 12.5698Z" fill="url(#paint2_linear_1_4)"/>
<path fill-rule="evenodd" clip-rule="evenodd" d="M11.6112 17.055C11.0949 17.7028 10.2508 17.7028 9.73448 17.055L6.00586 12.3799C5.4895 11.7321 5.4895 10.6732 6.00586 10.0254C6.52226 9.3776 7.36626 9.3776 7.88262 10.0254L11.6112 14.7005C12.1276 15.3457 12.1276 16.4072 11.6112 17.055Z" fill="url(#paint3_linear_1_4)"/>
<path fill-rule="evenodd" clip-rule="evenodd" d="M7.95293 20.8923C7.22091 20.8325 6.66721 20.0416 6.71283 19.1232C6.76053 18.2048 7.39094 17.5102 8.12297 17.5674C8.85503 17.6273 9.40873 18.4182 9.3631 19.3366C9.3154 20.2575 8.68496 20.9522 7.95293 20.8923Z" fill="url(#paint4_linear_1_4)"/>
<path fill-rule="evenodd" clip-rule="evenodd" d="M13.6125 6.75257C14.1289 6.10477 14.9729 6.10477 15.4892 6.75257L19.1391 11.3314C19.1681 11.3627 19.1971 11.3965 19.2241 11.4303C19.7363 12.0833 19.7322 13.1473 19.2158 13.7952L11.4662 23.5174C10.9498 24.1652 10.1099 24.16 9.59771 23.507C9.08549 22.854 9.08964 21.7899 9.606 21.1421L16.4059 12.6114L13.6146 9.10965C13.0982 8.46181 13.0961 7.40037 13.6125 6.75257Z" fill="url(#paint5_linear_1_4)"/>
</g>
<defs>
<linearGradient id="paint0_linear_1_4" x1="11.2527" y1="6.60701" x2="11.2296" y2="14.4421" gradientUnits="userSpaceOnUse">
<stop stop-color="#4705DA"/>
<stop offset="1" stop-color="#F814F9"/>
</linearGradient>
<linearGradient id="paint1_linear_1_4" x1="12.0732" y1="3.17074" x2="12.0636" y2="6.43216" gradientUnits="userSpaceOnUse">
<stop stop-color="#4705DA"/>
<stop offset="1" stop-color="#F814F9"/>
</linearGradient>
<linearGradient id="paint2_linear_1_4" x1="5.71145" y1="0.364" x2="5.64185" y2="17.7303" gradientUnits="userSpaceOnUse">
<stop stop-color="#4705DA"/>
<stop offset="1" stop-color="#F814F9"/>
</linearGradient>
<linearGradient id="paint3_linear_1_4" x1="8.81628" y1="9.70488" x2="8.7932" y2="17.5399" gradientUnits="userSpaceOnUse">
<stop stop-color="#4705DA"/>
<stop offset="1" stop-color="#F814F9"/>
</linearGradient>
<linearGradient id="paint4_linear_1_4" x1="8.04052" y1="17.6353" x2="8.03093" y2="20.8968" gradientUnits="userSpaceOnUse">
<stop stop-color="#4705DA"/>
<stop offset="1" stop-color="#F814F9"/>
</linearGradient>
<linearGradient id="paint5_linear_1_4" x1="14.4401" y1="6.63401" x2="14.3705" y2="24.0003" gradientUnits="userSpaceOnUse">
<stop stop-color="#4705DA"/>
<stop offset="1" stop-color="#F814F9"/>
</linearGradient>
<clipPath id="clip0_1_4">
<rect width="66" height="24" fill="white" transform="translate(0.5)"/>
</clipPath>
</defs>
</svg>
