<svg width="14" height="15" viewBox="0 0 14 15" fill="none" xmlns="http://www.w3.org/2000/svg">
<path d="M7 9.25C7.46413 9.25 7.90925 9.06563 8.23744 8.73744C8.56563 8.40925 8.75 7.96413 8.75 7.5C8.75 7.03587 8.56563 6.59075 8.23744 6.26256C7.90925 5.93437 7.46413 5.75 7 5.75C6.53587 5.75 6.09075 5.93437 5.76256 6.26256C5.43437 6.59075 5.25 7.03587 5.25 7.5C5.25 7.96413 5.43437 8.40925 5.76256 8.73744C6.09075 9.06563 6.53587 9.25 7 9.25Z" stroke="white" stroke-width="1.5" stroke-miterlimit="10" stroke-linecap="round" stroke-linejoin="round"/>
<path d="M1.16669 8.01335V6.98668C1.16669 6.38001 1.66252 5.87835 2.27502 5.87835C3.33085 5.87835 3.76252 5.13168 3.23169 4.21585C2.92835 3.69085 3.10919 3.00835 3.64002 2.70501L4.64919 2.12751C5.11002 1.85335 5.70502 2.01668 5.97919 2.47751L6.04335 2.58835C6.56835 3.50418 7.43169 3.50418 7.96252 2.58835L8.02669 2.47751C8.30085 2.01668 8.89585 1.85335 9.35669 2.12751L10.3659 2.70501C10.8967 3.00835 11.0775 3.69085 10.7742 4.21585C10.2434 5.13168 10.675 5.87835 11.7309 5.87835C12.3375 5.87835 12.8392 6.37418 12.8392 6.98668V8.01335C12.8392 8.62001 12.3434 9.12168 11.7309 9.12168C10.675 9.12168 10.2434 9.86835 10.7742 10.7842C11.0775 11.315 10.8967 11.9917 10.3659 12.295L9.35669 12.8725C8.89585 13.1467 8.30085 12.9833 8.02669 12.5225L7.96252 12.4117C7.43752 11.4958 6.57419 11.4958 6.04335 12.4117L5.97919 12.5225C5.70502 12.9833 5.11002 13.1467 4.64919 12.8725L3.64002 12.295C3.38575 12.1486 3.19994 11.9073 3.12339 11.624C3.04683 11.3408 3.08578 11.0387 3.23169 10.7842C3.76252 9.86835 3.33085 9.12168 2.27502 9.12168C1.66252 9.12168 1.16669 8.62001 1.16669 8.01335Z" stroke="white" stroke-width="1.5" stroke-miterlimit="10" stroke-linecap="round" stroke-linejoin="round"/>
</svg>
