<svg width="21" height="21" viewBox="0 0 21 21" fill="none" xmlns="http://www.w3.org/2000/svg">
<path d="M2.16669 2.16667H3.61669C4.51669 2.16667 5.22502 2.94167 5.15002 3.83334L4.45835 12.1333C4.43135 12.4549 4.47143 12.7785 4.57605 13.0838C4.68067 13.389 4.84756 13.6692 5.06614 13.9066C5.28471 14.144 5.55021 14.3334 5.84581 14.4628C6.14141 14.5922 6.46067 14.6588 6.78335 14.6583H15.6584C16.8584 14.6583 17.9084 13.675 18 12.4833L18.45 6.23334C18.55 4.85001 17.5 3.725 16.1084 3.725H5.35002M8.00002 7.16667H18M14.0417 18.8333C14.318 18.8333 14.5829 18.7236 14.7783 18.5282C14.9736 18.3329 15.0834 18.0679 15.0834 17.7917C15.0834 17.5154 14.9736 17.2505 14.7783 17.0551C14.5829 16.8598 14.318 16.75 14.0417 16.75C13.7654 16.75 13.5005 16.8598 13.3051 17.0551C13.1098 17.2505 13 17.5154 13 17.7917C13 18.0679 13.1098 18.3329 13.3051 18.5282C13.5005 18.7236 13.7654 18.8333 14.0417 18.8333ZM7.37502 18.8333C7.65129 18.8333 7.91624 18.7236 8.11159 18.5282C8.30694 18.3329 8.41669 18.0679 8.41669 17.7917C8.41669 17.5154 8.30694 17.2505 8.11159 17.0551C7.91624 16.8598 7.65129 16.75 7.37502 16.75C7.09875 16.75 6.8338 16.8598 6.63845 17.0551C6.4431 17.2505 6.33335 17.5154 6.33335 17.7917C6.33335 18.0679 6.4431 18.3329 6.63845 18.5282C6.8338 18.7236 7.09875 18.8333 7.37502 18.8333Z" stroke="white" stroke-width="1.5" stroke-miterlimit="10" stroke-linecap="round" stroke-linejoin="round"/>
</svg>
