<svg width="64" height="64" viewBox="0 0 64 64" fill="none" xmlns="http://www.w3.org/2000/svg">
<rect x="0.5" y="0.5" width="63" height="63" rx="31.5" fill="#FAFAFA"/>
<path d="M31 41.3334C31 41.8857 31.4477 42.3334 32 42.3334C32.5523 42.3334 33 41.8857 33 41.3334H31ZM32 22.6667L32.7071 21.9596C32.3166 21.5691 31.6834 21.5691 31.2929 21.9596L32 22.6667ZM23.2929 29.9596C22.9024 30.3502 22.9024 30.9833 23.2929 31.3739C23.6834 31.7644 24.3166 31.7644 24.7071 31.3739L23.2929 29.9596ZM39.2929 31.3739C39.6834 31.7644 40.3166 31.7644 40.7071 31.3739C41.0976 30.9833 41.0976 30.3502 40.7071 29.9596L39.2929 31.3739ZM33 41.3334L33 22.6667L31 22.6667L31 41.3334H33ZM24.7071 31.3739L32.7071 23.3739L31.2929 21.9596L23.2929 29.9596L24.7071 31.3739ZM31.2929 23.3739L39.2929 31.3739L40.7071 29.9596L32.7071 21.9596L31.2929 23.3739Z" fill="#0B0E11"/>
<rect x="0.5" y="0.5" width="63" height="63" rx="31.5" stroke="#0B0E11"/>
</svg>
