<svg width="29" height="29" viewBox="0 0 29 29" fill="none" xmlns="http://www.w3.org/2000/svg">
<g clip-path="url(#clip0_6_304)">
<path d="M5.44564 0.5C2.61347 0.5 0.333008 2.78046 0.333008 5.61263V23.3874C0.333008 26.2196 2.61347 28.5 5.44564 28.5H15.0794V17.5538H12.1849V13.6128H15.0794V10.2458C15.0794 7.60046 16.7896 5.17163 20.7293 5.17163C22.3244 5.17163 23.5039 5.32476 23.5039 5.32476L23.4111 9.00503C23.4111 9.00503 22.2082 8.99366 20.8955 8.99366C19.4748 8.99366 19.247 9.64824 19.247 10.7349V13.6128H23.524L23.3376 17.5538H19.247V28.5001H23.2204C26.0525 28.5001 28.333 26.2196 28.333 23.3874V5.61266C28.333 2.78049 26.0525 0.500028 23.2204 0.500028H5.44561L5.44564 0.5Z" fill="#FAFAFA"/>
</g>
<defs>
<clipPath id="clip0_6_304">
<rect width="28" height="28" fill="white" transform="translate(0.333008 0.5)"/>
</clipPath>
</defs>
</svg>
