<svg width="64" height="64" viewBox="0 0 64 64" fill="none" xmlns="http://www.w3.org/2000/svg">
<path d="M31 41.3333C31 41.8856 31.4477 42.3333 32 42.3333C32.5523 42.3333 33 41.8856 33 41.3333H31ZM32 22.6666L32.7071 21.9595C32.3166 21.569 31.6834 21.569 31.2929 21.9595L32 22.6666ZM23.2929 29.9595C22.9024 30.35 22.9024 30.9832 23.2929 31.3737C23.6834 31.7643 24.3166 31.7643 24.7071 31.3737L23.2929 29.9595ZM39.2929 31.3737C39.6834 31.7643 40.3166 31.7643 40.7071 31.3737C41.0976 30.9832 41.0976 30.35 40.7071 29.9595L39.2929 31.3737ZM33 41.3333L33 22.6666L31 22.6666L31 41.3333H33ZM24.7071 31.3737L32.7071 23.3737L31.2929 21.9595L23.2929 29.9595L24.7071 31.3737ZM31.2929 23.3737L39.2929 31.3737L40.7071 29.9595L32.7071 21.9595L31.2929 23.3737Z" fill="#FAFAFA"/>
<rect x="0.5" y="0.5" width="63" height="63" rx="31.5" stroke="#FAFAFA"/>
</svg>
