<svg width="28" height="29" viewBox="0 0 28 29" fill="none" xmlns="http://www.w3.org/2000/svg">
<g clip-path="url(#clip0_6_299)">
<path d="M27.9098 8.76433C27.8941 7.58867 27.6737 6.4247 27.2583 5.32448C26.8981 4.39646 26.348 3.55364 25.6431 2.84989C24.9382 2.14613 24.0939 1.59692 23.1644 1.23733C22.0765 0.829637 20.9272 0.609189 19.7654 0.585375C18.2697 0.518627 17.7954 0.5 13.9984 0.5C10.2015 0.5 9.71479 0.5 8.2299 0.585375C7.06866 0.609364 5.91991 0.82981 4.83252 1.23733C3.9028 1.59667 3.05845 2.14579 2.35349 2.84958C1.64854 3.55336 1.09849 4.39631 0.73856 5.32448C0.329369 6.40973 0.109032 7.55683 0.0870724 8.71621C0.0202132 10.2111 0 10.6845 0 14.4752C0 18.2658 -1.15846e-08 18.7501 0.0870724 20.2341C0.110395 21.3952 0.329631 22.5408 0.73856 23.629C1.0991 24.5568 1.64955 25.3994 2.35474 26.1029C3.05994 26.8064 3.90436 27.3553 4.83407 27.7146C5.91849 28.1386 7.06744 28.3749 8.23145 28.4131C9.72879 28.4798 10.203 28.5 14 28.5C17.797 28.5 18.2837 28.5 19.7685 28.4131C20.9303 28.3902 22.0796 28.1703 23.1675 27.7627C24.0968 27.4027 24.9408 26.8533 25.6457 26.1496C26.3506 25.4459 26.9008 24.6033 27.2614 23.6755C27.6704 22.5889 27.8896 21.4433 27.9129 20.2807C27.9798 18.7874 28 18.3139 28 14.5217C27.9969 10.7311 27.9969 10.2499 27.9098 8.76433ZM13.9891 21.6436C10.018 21.6436 6.80098 18.4319 6.80098 14.4674C6.80098 10.5029 10.018 7.29122 13.9891 7.29122C15.8955 7.29122 17.7239 8.04728 19.0719 9.39308C20.4199 10.7389 21.1773 12.5642 21.1773 14.4674C21.1773 16.3706 20.4199 18.1959 19.0719 19.5417C17.7239 20.8875 15.8955 21.6436 13.9891 21.6436ZM21.4634 8.69913C21.2432 8.69934 21.0251 8.6562 20.8217 8.57218C20.6182 8.48815 20.4334 8.3649 20.2777 8.20948C20.122 8.05405 19.9985 7.8695 19.9144 7.66639C19.8302 7.46327 19.787 7.24558 19.7872 7.02578C19.7872 6.80613 19.8305 6.58864 19.9147 6.38571C19.9989 6.18278 20.1223 5.9984 20.2779 5.84309C20.4335 5.68777 20.6182 5.56457 20.8214 5.48052C21.0247 5.39646 21.2426 5.3532 21.4626 5.3532C21.6826 5.3532 21.9004 5.39646 22.1037 5.48052C22.307 5.56457 22.4917 5.68777 22.6472 5.84309C22.8028 5.9984 22.9262 6.18278 23.0104 6.38571C23.0946 6.58864 23.1379 6.80613 23.1379 7.02578C23.1379 7.95094 22.3885 8.69913 21.4634 8.69913Z" fill="#FAFAFA"/>
<path d="M13.9997 19.1667C16.577 19.1667 18.6663 17.0774 18.6663 14.5C18.6663 11.9227 16.577 9.83337 13.9997 9.83337C11.4223 9.83337 9.33301 11.9227 9.33301 14.5C9.33301 17.0774 11.4223 19.1667 13.9997 19.1667Z" fill="#FAFAFA"/>
</g>
<defs>
<clipPath id="clip0_6_299">
<rect width="28" height="28" fill="white" transform="translate(0 0.5)"/>
</clipPath>
</defs>
</svg>
