<svg width="223" height="86" viewBox="0 0 223 86" fill="none" xmlns="http://www.w3.org/2000/svg">
<path fill-rule="evenodd" clip-rule="evenodd" d="M35.748 24.8297C38.0708 22.5089 41.8725 22.5077 44.1967 24.8274L60.9767 41.5748C63.3007 43.8944 63.3016 47.6909 60.9788 50.0117C58.6561 52.3324 54.8544 52.3336 52.5304 50.0139L35.7505 33.2665C33.4262 30.9469 33.4253 27.1504 35.748 24.8297Z" fill="#FAFAFA"/>
<path fill-rule="evenodd" clip-rule="evenodd" d="M52.4587 11.1344C55.7514 11.3456 58.249 14.1823 58.0376 17.4704C57.8259 20.7584 54.9853 23.2527 51.6926 23.0413C48.4 22.8301 45.9024 19.9934 46.1141 16.7053C46.3255 13.4172 49.1661 10.923 52.4587 11.1344Z" fill="#FAFAFA"/>
<path fill-rule="evenodd" clip-rule="evenodd" d="M1.71695 45.0402C-0.586406 42.7002 -0.570153 38.887 1.75317 36.5667L36.6364 1.72981C38.9599 -0.590525 42.7454 -0.574511 45.049 1.76574C47.3526 4.10572 47.3361 7.91864 45.0128 10.239L14.4041 40.8072L26.9787 53.3574C29.3029 55.6773 29.3038 59.4737 26.981 61.7945C24.6584 64.1153 20.8567 64.1164 18.5324 61.7968L2.10025 45.3962C1.96874 45.2841 1.84067 45.1658 1.71695 45.0402Z" fill="#FAFAFA"/>
<path fill-rule="evenodd" clip-rule="evenodd" d="M50.0115 61.1102C47.6889 63.431 43.8872 63.4321 41.563 61.1125L24.783 44.365C22.459 42.0456 22.4581 38.2492 24.7807 35.9284C27.1035 33.6076 30.9052 33.6065 33.2292 35.9259L50.009 52.6733C52.3332 54.993 52.3341 58.7894 50.0115 61.1102Z" fill="#FAFAFA"/>
<path fill-rule="evenodd" clip-rule="evenodd" d="M33.5413 74.8656C30.2486 74.6542 27.751 71.8177 27.9624 68.5297C28.1741 65.2413 31.0148 62.7474 34.3074 62.9585C37.6 63.1699 40.0974 66.0064 39.886 69.2947C39.6745 72.5828 36.8339 75.0768 33.5413 74.8656Z" fill="#FAFAFA"/>
<path fill-rule="evenodd" clip-rule="evenodd" d="M59.019 24.2055C61.3416 21.8847 65.1433 21.8836 67.4676 24.2033L83.8997 40.6038C84.0312 40.716 84.1593 40.8342 84.2831 40.9598C86.5864 43.2998 86.5702 47.1127 84.2468 49.4333L49.3636 84.2702C47.0401 86.5905 43.2546 86.5745 40.951 84.2343C38.6474 81.8943 38.6639 78.0814 40.9872 75.7608L71.5959 45.1928L59.0213 32.6424C56.6971 30.3228 56.6962 26.5263 59.019 24.2055Z" fill="#FAFAFA"/>
<path d="M107.742 61.8984C108.602 61.8984 109.273 61.6406 109.758 61.125C110.258 60.6094 110.508 59.8984 110.508 58.9922V30.1875C110.508 29.2812 110.258 28.5703 109.758 28.0547C109.273 27.5391 108.602 27.2812 107.742 27.2812C106.883 27.2812 106.203 27.5391 105.703 28.0547C105.203 28.5703 104.953 29.2812 104.953 30.1875V58.9922C104.953 59.8984 105.203 60.6094 105.703 61.125C106.203 61.6406 106.883 61.8984 107.742 61.8984ZM127.617 61.8984C128.477 61.8984 129.148 61.6406 129.633 61.125C130.133 60.6094 130.383 59.8984 130.383 58.9922V32.4375H138.445C139.211 32.4375 139.828 32.2266 140.297 31.8047C140.781 31.3672 141.023 30.7891 141.023 30.0703C141.023 29.3359 140.781 28.7578 140.297 28.3359C139.828 27.8984 139.211 27.6797 138.445 27.6797H116.766C116 27.6797 115.375 27.8984 114.891 28.3359C114.422 28.7578 114.188 29.3359 114.188 30.0703C114.188 30.7891 114.422 31.3672 114.891 31.8047C115.375 32.2266 116 32.4375 116.766 32.4375H124.828V58.9922C124.828 59.8984 125.07 60.6094 125.555 61.125C126.055 61.6406 126.742 61.8984 127.617 61.8984ZM147.258 61.8984C148.039 61.8984 148.656 61.6641 149.109 61.1953C149.562 60.7266 149.789 60.0781 149.789 59.25V36.9609H149.953L159.211 59.3438C159.742 60.6406 160.664 61.2891 161.977 61.2891C163.273 61.2891 164.195 60.625 164.742 59.2969L174 36.9609H174.164V59.25C174.164 60.0781 174.383 60.7266 174.82 61.1953C175.273 61.6641 175.898 61.8984 176.695 61.8984C177.492 61.8984 178.109 61.6641 178.547 61.1953C179 60.7266 179.227 60.0781 179.227 59.25V30.8203C179.227 29.7266 178.906 28.8672 178.266 28.2422C177.641 27.6016 176.781 27.2812 175.688 27.2812C174.719 27.2812 173.93 27.5156 173.32 27.9844C172.711 28.4375 172.195 29.1797 171.773 30.2109L162.07 53.9062H161.883L152.156 30.2109C151.734 29.1797 151.227 28.4375 150.633 27.9844C150.039 27.5156 149.266 27.2812 148.312 27.2812C147.203 27.2812 146.328 27.6016 145.688 28.2422C145.047 28.8828 144.727 29.7422 144.727 30.8203V59.25C144.727 60.0781 144.945 60.7266 145.383 61.1953C145.836 61.6641 146.461 61.8984 147.258 61.8984ZM199.664 62.0625C201.758 62.0625 203.664 61.7734 205.383 61.1953C207.102 60.6172 208.586 59.7891 209.836 58.7109C211.102 57.6172 212.094 56.3125 212.812 54.7969C213.188 54.0156 213.375 53.2734 213.375 52.5703C213.375 51.8359 213.133 51.2422 212.648 50.7891C212.18 50.3203 211.562 50.0859 210.797 50.0859C210.188 50.0859 209.688 50.2266 209.297 50.5078C208.906 50.7891 208.57 51.2578 208.289 51.9141C207.773 53.1172 207.094 54.1172 206.25 54.9141C205.406 55.6953 204.422 56.2812 203.297 56.6719C202.188 57.0625 200.961 57.2578 199.617 57.2578C197.602 57.2578 195.844 56.7422 194.344 55.7109C192.859 54.6641 191.711 53.1953 190.898 51.3047C190.102 49.4141 189.703 47.1719 189.703 44.5781C189.703 42 190.109 39.7656 190.922 37.875C191.734 35.9688 192.883 34.5 194.367 33.4688C195.852 32.4375 197.594 31.9219 199.594 31.9219C200.859 31.9219 202.047 32.1406 203.156 32.5781C204.266 33 205.25 33.6328 206.109 34.4766C206.969 35.3203 207.664 36.3672 208.195 37.6172C208.492 38.3203 208.867 38.8359 209.32 39.1641C209.773 39.4922 210.32 39.6562 210.961 39.6562C211.711 39.6562 212.305 39.4297 212.742 38.9766C213.195 38.5234 213.422 37.9297 213.422 37.1953C213.422 36.5078 213.25 35.7969 212.906 35.0625C212.203 33.4062 211.195 31.9844 209.883 30.7969C208.586 29.6094 207.062 28.7031 205.312 28.0781C203.562 27.4375 201.648 27.1172 199.57 27.1172C196.414 27.1172 193.664 27.8281 191.32 29.25C188.992 30.6719 187.188 32.6875 185.906 35.2969C184.641 37.8906 184.008 40.9844 184.008 44.5781C184.008 48.1875 184.641 51.2969 185.906 53.9062C187.172 56.5156 188.977 58.5312 191.32 59.9531C193.664 61.3594 196.445 62.0625 199.664 62.0625Z" fill="#FAFAFA"/>
</svg>
