<svg width="29" height="29" viewBox="0 0 29 29" fill="none" xmlns="http://www.w3.org/2000/svg">
<g clip-path="url(#clip0_6_302)">
<path d="M18.964 0.5H10.3689C2.52539 0.5 0.666016 2.35938 0.666016 10.2029V18.798C0.666016 26.6415 2.52539 28.5009 10.3689 28.5009H18.964C26.8075 28.5009 28.6669 26.6415 28.6669 18.798V10.2029C28.6669 2.35938 26.7891 0.5 18.964 0.5ZM23.2708 20.4745H21.2381C20.4681 20.4745 20.231 19.8637 18.8459 18.4602C17.6428 17.2939 17.1099 17.139 16.8133 17.139C16.3941 17.139 16.2751 17.2571 16.2751 17.832V19.6686C16.2751 20.1612 16.1203 20.457 14.8165 20.457C12.6605 20.457 10.2683 19.1532 8.59089 16.7243C6.06127 13.1648 5.36914 10.4986 5.36914 9.94738C5.36914 9.65075 5.48727 9.37337 6.05689 9.37337H8.09389C8.60927 9.37337 8.80527 9.6105 9.00564 10.1617C10.0128 13.0694 11.6901 15.6165 12.3823 15.6165C12.6378 15.6165 12.7559 15.4984 12.7559 14.8465V11.8435C12.678 10.4584 11.9491 10.3394 11.9491 9.84762C11.9491 9.6105 12.1451 9.37337 12.4593 9.37337H15.6626C16.0958 9.37337 16.255 9.6105 16.255 10.1206V14.1719C16.255 14.6094 16.451 14.7642 16.5691 14.7642C16.8246 14.7642 17.0434 14.6094 17.5168 14.1351C18.9798 12.4945 20.028 9.96488 20.028 9.96488C20.1645 9.66825 20.4016 9.39087 20.917 9.39087H22.954C23.5648 9.39087 23.7013 9.705 23.5648 10.1425C23.3093 11.3273 20.8164 14.8456 20.8164 14.8456C20.602 15.2009 20.5198 15.3558 20.8164 15.7521C21.0351 16.0487 21.7465 16.6639 22.2199 17.2151C23.0905 18.2039 23.7599 19.0334 23.9384 19.6074C24.1388 20.177 23.843 20.4736 23.2681 20.4736L23.2708 20.4745Z" fill="#FAFAFA"/>
</g>
<defs>
<clipPath id="clip0_6_302">
<rect width="28" height="28" fill="white" transform="translate(0.666992 0.5)"/>
</clipPath>
</defs>
</svg>
