<svg width="207" height="60" viewBox="0 0 207 60" fill="none" xmlns="http://www.w3.org/2000/svg">
<path d="M202.231 43.8863C203.343 43.8863 204.286 44.283 205.06 45.0765C205.834 45.87 206.218 46.8261 206.218 47.9383C206.218 49.0505 205.834 49.9936 205.06 50.7676C204.286 51.5416 203.343 51.9253 202.231 51.9253H197.47C194.64 51.9253 191.967 51.379 189.463 50.2863C186.953 49.1936 184.754 47.7107 182.881 45.8505C181.008 43.9839 179.512 41.7985 178.413 39.2879C177.307 36.7774 176.761 34.0912 176.761 31.2164C176.761 28.3871 177.307 25.7139 178.413 23.2099C179.518 20.6993 181.008 18.514 182.881 16.6473C184.754 14.7806 186.953 13.3042 189.463 12.2115C191.974 11.1188 194.64 10.5725 197.47 10.5725H202.231C203.343 10.5725 204.286 10.9562 205.06 11.7302C205.834 12.5042 206.218 13.4473 206.218 14.5595C206.218 15.6717 205.834 16.6278 205.06 17.4213C204.286 18.2148 203.343 18.6115 202.231 18.6115H197.47C195.714 18.6115 194.068 18.9432 192.546 19.6066C191.024 20.2701 189.684 21.1741 188.527 22.3058C187.369 23.444 186.458 24.7839 185.795 26.3253C185.131 27.8668 184.8 29.4993 184.8 31.2164C184.8 32.9725 185.131 34.6245 185.795 36.1725C186.458 37.7139 187.369 39.0538 188.527 40.192C189.684 41.3302 191.024 42.2278 192.546 42.8912C194.068 43.5546 195.707 43.8863 197.47 43.8863H202.231Z" fill="#FAFAFA"/>
<path d="M165.691 51.8602C164.579 51.8602 163.642 51.4765 162.894 50.7025C162.146 49.9285 161.769 48.9854 161.769 47.8732V24.0749L156.631 29.2196C155.603 30.2472 154.446 31.0407 153.138 31.6C151.831 32.1594 150.459 32.4391 149.002 32.4391C147.545 32.4391 146.159 32.1594 144.833 31.6C143.506 31.0407 142.355 30.2472 141.372 29.2196L136.176 24.0098V47.8732C136.176 48.9854 135.792 49.9285 135.005 50.7025C134.231 51.4765 133.281 51.8602 132.156 51.8602C131.031 51.8602 130.075 51.4765 129.307 50.7025C128.527 49.9285 128.137 48.9854 128.137 47.8732V14.4879C128.137 13.3757 128.52 12.4326 129.294 11.6586C130.068 10.8846 131.012 10.5009 132.124 10.5009C132.937 10.5009 133.691 10.735 134.374 11.2098V11.1448L134.888 11.5936L146.335 23.1057C147.109 23.7887 147.987 24.1334 148.969 24.1334C149.912 24.1334 150.771 23.7887 151.545 23.1057L163.382 11.2033H163.447C164.13 10.7285 164.885 10.4944 165.698 10.4944C166.81 10.4944 167.753 10.8781 168.527 11.6521C169.301 12.4261 169.685 13.3692 169.685 14.4814V47.8667C169.685 48.9789 169.301 49.922 168.527 50.696C167.753 51.4765 166.81 51.8602 165.691 51.8602Z" fill="#FAFAFA"/>
<path d="M118.29 10.4358C119.402 10.4358 120.345 10.8325 121.119 11.626C121.893 12.4195 122.277 13.3756 122.277 14.4878C122.277 15.6 121.893 16.5431 121.119 17.3171C120.345 18.0911 119.402 18.4748 118.29 18.4748H113.334H107.994V47.8731C107.994 48.9853 107.597 49.9284 106.804 50.7024C106.01 51.4764 105.054 51.8601 103.942 51.8601C102.83 51.8601 101.886 51.4764 101.113 50.7024C100.339 49.9284 99.9548 48.9853 99.9548 47.8731V18.4748H95.0637H89.6589C88.5467 18.4748 87.6036 18.0911 86.8296 17.3171C86.0556 16.5431 85.6719 15.6 85.6719 14.4878C85.6719 13.3756 86.0556 12.4195 86.8296 11.626C87.6036 10.8325 88.5467 10.4358 89.6589 10.4358H95.0637H113.334H118.29Z" fill="#FAFAFA"/>
<path d="M75.7331 18.4357C74.6209 18.4357 73.6713 18.039 72.9038 17.2585C72.1298 16.465 71.7461 15.5219 71.7461 14.4162C71.7461 13.3105 72.1298 12.3675 72.9038 11.574C73.6713 10.787 74.6209 10.3967 75.7331 10.3967C76.8453 10.3967 77.8079 10.7935 78.5949 11.574C79.3884 12.3675 79.7851 13.3105 79.7851 14.4162C79.7851 15.5219 79.3884 16.465 78.5949 17.2585C77.8079 18.0455 76.8518 18.4357 75.7331 18.4357Z" fill="#FAFAFA"/>
<path d="M75.7331 23.2617C76.8453 23.2617 77.8014 23.6585 78.5949 24.452C79.3884 25.2455 79.7851 26.2016 79.7851 27.3137V33.7853V34.2341V34.6178V36.3544V47.7365C79.7851 48.8487 79.3884 49.8048 78.5949 50.5983C77.8014 51.3918 76.8453 51.7885 75.7331 51.7885C74.6209 51.7885 73.6778 51.3918 72.9038 50.5983C72.1298 49.8048 71.7461 48.8487 71.7461 47.7365V36.3544V34.6178V34.2341V33.7853V27.3137C71.7461 26.2016 72.1298 25.2455 72.9038 24.452C73.6778 23.6585 74.6209 23.2617 75.7331 23.2617Z" fill="#FAFAFA"/>
<path fill-rule="evenodd" clip-rule="evenodd" d="M24.9099 17.3169C26.5295 15.6974 29.1766 15.6974 30.7961 17.3169L42.4904 29.0047C44.1099 30.6242 44.1099 33.2714 42.4904 34.8909C40.8709 36.5104 38.2237 36.5104 36.6042 34.8909L24.9099 23.2031C23.2904 21.5901 23.2904 18.9364 24.9099 17.3169Z" fill="url(#paint0_linear_165_202)"/>
<path fill-rule="evenodd" clip-rule="evenodd" d="M36.5521 7.76261C38.848 7.91221 40.5846 9.88944 40.4415 12.1854C40.2919 14.4813 38.3147 16.2179 36.0188 16.0748C33.7228 15.9252 31.9862 13.948 32.1293 11.652C32.2789 9.35611 34.2627 7.61302 36.5521 7.76261Z" fill="url(#paint1_linear_165_202)"/>
<path fill-rule="evenodd" clip-rule="evenodd" d="M1.19679 31.4244C-0.409711 29.7919 -0.396703 27.1317 1.22281 25.5122L25.5285 1.20655C27.148 -0.412962 29.7821 -0.399957 31.3886 1.23256C32.9951 2.86508 32.9821 5.52524 31.3626 7.14475L10.0358 28.4715L18.7968 37.226C20.4163 38.8455 20.4163 41.4927 18.7968 43.1122C17.1773 44.7317 14.5301 44.7317 12.9106 43.1122L1.46346 31.665C1.3724 31.5935 1.28785 31.5089 1.19679 31.4244Z" fill="url(#paint2_linear_165_202)"/>
<path fill-rule="evenodd" clip-rule="evenodd" d="M34.8488 42.6375C33.2293 44.257 30.5821 44.257 28.9626 42.6375L17.2683 30.9497C15.6488 29.3302 15.6488 26.683 17.2683 25.0635C18.8879 23.444 21.535 23.444 23.1545 25.0635L34.8488 36.7513C36.4683 38.3643 36.4683 41.018 34.8488 42.6375Z" fill="url(#paint3_linear_165_202)"/>
<path fill-rule="evenodd" clip-rule="evenodd" d="M23.3752 52.2308C21.0793 52.0812 19.3427 50.104 19.4858 47.8081C19.6354 45.5121 21.6126 43.7756 23.9085 43.9186C26.2045 44.0682 27.9411 46.0455 27.798 48.3414C27.6484 50.6438 25.6711 52.3804 23.3752 52.2308Z" fill="url(#paint4_linear_165_202)"/>
<path fill-rule="evenodd" clip-rule="evenodd" d="M41.1256 16.8814C42.7451 15.2619 45.3922 15.2619 47.0117 16.8814L58.4589 28.3285C58.5499 28.4066 58.641 28.4911 58.7255 28.5757C60.332 30.2082 60.319 32.8683 58.6995 34.4879L34.3939 58.7935C32.7743 60.413 30.1402 60.4 28.5337 58.7675C26.9272 57.135 26.9402 54.4748 28.5597 52.8553L49.8865 31.5285L41.1321 22.7741C39.5126 21.1545 39.506 18.5009 41.1256 16.8814Z" fill="url(#paint5_linear_165_202)"/>
<defs>
<linearGradient id="paint0_linear_165_202" x1="33.7243" y1="16.5175" x2="33.6783" y2="36.1054" gradientUnits="userSpaceOnUse">
<stop stop-color="#4705DA"/>
<stop offset="1" stop-color="#F814F9"/>
</linearGradient>
<linearGradient id="paint1_linear_165_202" x1="36.2978" y1="7.92682" x2="36.2787" y2="16.0804" gradientUnits="userSpaceOnUse">
<stop stop-color="#4705DA"/>
<stop offset="1" stop-color="#F814F9"/>
</linearGradient>
<linearGradient id="paint2_linear_165_202" x1="16.345" y1="0.91" x2="16.2063" y2="44.326" gradientUnits="userSpaceOnUse">
<stop stop-color="#4705DA"/>
<stop offset="1" stop-color="#F814F9"/>
</linearGradient>
<linearGradient id="paint3_linear_165_202" x1="26.0828" y1="24.2622" x2="26.0368" y2="43.8499" gradientUnits="userSpaceOnUse">
<stop stop-color="#4705DA"/>
<stop offset="1" stop-color="#F814F9"/>
</linearGradient>
<linearGradient id="paint4_linear_165_202" x1="23.6499" y1="44.0883" x2="23.6308" y2="52.2421" gradientUnits="userSpaceOnUse">
<stop stop-color="#4705DA"/>
<stop offset="1" stop-color="#F814F9"/>
</linearGradient>
<linearGradient id="paint5_linear_165_202" x1="43.7213" y1="16.585" x2="43.5826" y2="60.001" gradientUnits="userSpaceOnUse">
<stop stop-color="#4705DA"/>
<stop offset="1" stop-color="#F814F9"/>
</linearGradient>
</defs>
</svg>
