<svg width="296" height="86" viewBox="0 0 296 86" fill="none" xmlns="http://www.w3.org/2000/svg">
<path d="M289.864 62.9035C291.458 62.9035 292.81 63.4722 293.92 64.6096C295.029 65.7469 295.579 67.1173 295.579 68.7115C295.579 70.3056 295.029 71.6574 293.92 72.7667C292.81 73.8761 291.458 74.4261 289.864 74.4261H283.04C278.985 74.4261 275.153 73.643 271.564 72.0769C267.966 70.5107 264.815 68.3852 262.13 65.7189C259.445 63.0434 257.301 59.911 255.725 56.3126C254.141 52.7141 253.357 48.8639 253.357 44.7434C253.357 40.6881 254.141 36.8565 255.725 33.2674C257.31 29.6689 259.445 26.5366 262.13 23.861C264.815 21.1854 267.966 19.0692 271.564 17.5031C275.163 15.9369 278.985 15.1538 283.04 15.1538H289.864C291.458 15.1538 292.81 15.7038 293.92 16.8132C295.029 17.9226 295.579 19.2743 295.579 20.8685C295.579 22.4626 295.029 23.833 293.92 24.9704C292.81 26.1077 291.458 26.6764 289.864 26.6764H283.04C280.523 26.6764 278.165 27.1518 275.983 28.1027C273.802 29.0536 271.881 30.3495 270.222 31.9716C268.562 33.603 267.257 35.5234 266.306 37.7328C265.355 39.9423 264.88 42.2822 264.88 44.7434C264.88 47.2604 265.355 49.6283 266.306 51.8471C267.257 54.0565 268.562 55.9769 270.222 57.6084C271.881 59.2398 273.802 60.5263 275.983 61.4772C278.165 62.4281 280.514 62.9035 283.04 62.9035H289.864Z" fill="#FAFAFA"/>
<path d="M237.49 74.333C235.896 74.333 234.554 73.7829 233.481 72.6736C232.409 71.5642 231.869 70.2124 231.869 68.6183V34.5073L224.504 41.8814C223.031 43.3544 221.372 44.4917 219.498 45.2934C217.624 46.0952 215.657 46.496 213.569 46.496C211.48 46.496 209.495 46.0952 207.593 45.2934C205.691 44.4917 204.041 43.3544 202.633 41.8814L195.185 34.4141V68.6183C195.185 70.2124 194.635 71.5642 193.507 72.6736C192.397 73.7829 191.036 74.333 189.423 74.333C187.811 74.333 186.44 73.7829 185.34 72.6736C184.221 71.5642 183.662 70.2124 183.662 68.6183V20.766C183.662 19.1718 184.212 17.8201 185.322 16.7107C186.431 15.6013 187.783 15.0513 189.377 15.0513C190.542 15.0513 191.624 15.3869 192.602 16.0675V15.9742L193.339 16.6175L209.746 33.1183C210.856 34.0971 212.114 34.5912 213.522 34.5912C214.874 34.5912 216.104 34.0971 217.214 33.1183L234.181 16.0581H234.274C235.253 15.3776 236.334 15.042 237.499 15.042C239.094 15.042 240.445 15.592 241.555 16.7014C242.664 17.8108 243.214 19.1625 243.214 20.7567V68.609C243.214 70.2031 242.664 71.5549 241.555 72.6642C240.445 73.7829 239.094 74.333 237.49 74.333Z" fill="#FAFAFA"/>
<path d="M169.548 14.958C171.142 14.958 172.494 15.5267 173.603 16.664C174.713 17.8014 175.263 19.1718 175.263 20.7659C175.263 22.3601 174.713 23.7118 173.603 24.8212C172.494 25.9306 171.142 26.4806 169.548 26.4806H162.444H154.791V68.6182C154.791 70.2123 154.222 71.5641 153.085 72.6735C151.947 73.7829 150.577 74.3329 148.983 74.3329C147.389 74.3329 146.037 73.7829 144.927 72.6735C143.818 71.5641 143.268 70.2123 143.268 68.6182V26.4806H136.258H128.511C126.916 26.4806 125.565 25.9306 124.455 24.8212C123.346 23.7118 122.796 22.3601 122.796 20.7659C122.796 19.1718 123.346 17.8014 124.455 16.664C125.565 15.5267 126.916 14.958 128.511 14.958H136.258H162.444H169.548Z" fill="#FAFAFA"/>
<path d="M108.551 26.4247C106.956 26.4247 105.595 25.856 104.495 24.7373C103.386 23.6 102.836 22.2482 102.836 20.6634C102.836 19.0786 103.386 17.7268 104.495 16.5895C105.595 15.4614 106.956 14.9021 108.551 14.9021C110.145 14.9021 111.524 15.4708 112.653 16.5895C113.79 17.7268 114.359 19.0786 114.359 20.6634C114.359 22.2482 113.79 23.6 112.653 24.7373C111.524 25.8653 110.154 26.4247 108.551 26.4247Z" fill="#FAFAFA"/>
<path d="M108.551 33.3418C110.145 33.3418 111.515 33.9105 112.653 35.0478C113.79 36.1852 114.359 37.5556 114.359 39.1497V48.4256V49.0688V49.6188V52.108V68.4223C114.359 70.0164 113.79 71.3868 112.653 72.5242C111.515 73.6615 110.145 74.2302 108.551 74.2302C106.956 74.2302 105.605 73.6615 104.495 72.5242C103.386 71.3868 102.836 70.0164 102.836 68.4223V52.108V49.6188V49.0688V48.4256V39.1497C102.836 37.5556 103.386 36.1852 104.495 35.0478C105.605 33.9105 106.956 33.3418 108.551 33.3418Z" fill="#FAFAFA"/>
<path fill-rule="evenodd" clip-rule="evenodd" d="M35.7048 24.8211C38.0261 22.4998 41.8204 22.4998 44.1417 24.8211L60.9035 41.5736C63.2248 43.8948 63.2248 47.6891 60.9035 50.0104C58.5822 52.3317 54.788 52.3317 52.4667 50.0104L35.7048 33.2579C33.3835 30.9459 33.3835 27.1423 35.7048 24.8211Z" fill="url(#paint0_linear_142_1006)"/>
<path fill-rule="evenodd" clip-rule="evenodd" d="M52.3921 11.1264C55.683 11.3408 58.1721 14.1748 57.967 17.4656C57.7525 20.7565 54.9185 23.2456 51.6277 23.0405C48.3368 22.8261 45.8477 19.992 46.0528 16.7012C46.2672 13.4104 49.1106 10.9119 52.3921 11.1264Z" fill="url(#paint1_linear_142_1006)"/>
<path fill-rule="evenodd" clip-rule="evenodd" d="M1.7154 45.0416C-0.587253 42.7017 -0.568608 38.8888 1.75269 36.5675L36.5908 1.72938C38.9121 -0.591913 42.6877 -0.573271 44.9904 1.76667C47.293 4.10661 47.2744 7.91951 44.9531 10.2408L14.3847 40.8092L26.942 53.3573C29.2633 55.6786 29.2633 59.4728 26.942 61.7941C24.6207 64.1154 20.8265 64.1154 18.5052 61.7941L2.09762 45.3865C1.96711 45.284 1.84591 45.1628 1.7154 45.0416Z" fill="url(#paint2_linear_142_1006)"/>
<path fill-rule="evenodd" clip-rule="evenodd" d="M49.9504 61.1137C47.6291 63.435 43.8348 63.435 41.5135 61.1137L24.7517 44.3612C22.4304 42.0399 22.4304 38.2456 24.7517 35.9243C27.073 33.603 30.8673 33.603 33.1886 35.9243L49.9504 52.6768C52.2717 54.9888 52.2717 58.7924 49.9504 61.1137Z" fill="url(#paint3_linear_142_1006)"/>
<path fill-rule="evenodd" clip-rule="evenodd" d="M33.5046 74.8642C30.2138 74.6498 27.7247 71.8157 27.9298 68.5249C28.1442 65.2341 30.9782 62.745 34.2691 62.95C37.5599 63.1645 40.049 65.9985 39.8439 69.2893C39.6295 72.5895 36.7955 75.0786 33.5046 74.8642Z" fill="url(#paint4_linear_142_1006)"/>
<path fill-rule="evenodd" clip-rule="evenodd" d="M58.9463 24.1965C61.2676 21.8752 65.0619 21.8752 67.3832 24.1965L83.7907 40.6041C83.9213 40.716 84.0518 40.8372 84.173 40.9584C86.4756 43.2983 86.457 47.1112 84.1357 49.4325L49.2976 84.2706C46.9763 86.5919 43.2007 86.5732 40.898 84.2333C38.5954 81.8934 38.614 78.0805 40.9353 75.7592L71.5037 45.1908L58.9557 32.6427C56.6344 30.3214 56.625 26.5178 58.9463 24.1965Z" fill="url(#paint5_linear_142_1006)"/>
<defs>
<linearGradient id="paint0_linear_142_1006" x1="48.3387" y1="23.6752" x2="48.2728" y2="51.7512" gradientUnits="userSpaceOnUse">
<stop stop-color="#4705DA"/>
<stop offset="1" stop-color="#F814F9"/>
</linearGradient>
<linearGradient id="paint1_linear_142_1006" x1="52.0277" y1="11.3617" x2="52.0002" y2="23.0485" gradientUnits="userSpaceOnUse">
<stop stop-color="#4705DA"/>
<stop offset="1" stop-color="#F814F9"/>
</linearGradient>
<linearGradient id="paint2_linear_142_1006" x1="23.4278" y1="1.30433" x2="23.229" y2="63.5339" gradientUnits="userSpaceOnUse">
<stop stop-color="#4705DA"/>
<stop offset="1" stop-color="#F814F9"/>
</linearGradient>
<linearGradient id="paint3_linear_142_1006" x1="37.3857" y1="34.7757" x2="37.3198" y2="62.8515" gradientUnits="userSpaceOnUse">
<stop stop-color="#4705DA"/>
<stop offset="1" stop-color="#F814F9"/>
</linearGradient>
<linearGradient id="paint4_linear_142_1006" x1="33.8984" y1="63.1933" x2="33.8709" y2="74.8803" gradientUnits="userSpaceOnUse">
<stop stop-color="#4705DA"/>
<stop offset="1" stop-color="#F814F9"/>
</linearGradient>
<linearGradient id="paint5_linear_142_1006" x1="62.667" y1="23.7717" x2="62.4681" y2="86.0013" gradientUnits="userSpaceOnUse">
<stop stop-color="#4705DA"/>
<stop offset="1" stop-color="#F814F9"/>
</linearGradient>
</defs>
</svg>
